<svg width="1440" height="980" viewBox="0 0 1440 980" fill="none" xmlns="http://www.w3.org/2000/svg">
    <g clip-path="url(#clip0_14982_17680)">
        <path opacity="0.5" d="M825.75 0L784.229 39.5552C780.561 43.0498 775.586 45.013 770.398 45.013H739.352C734.164 45.013 729.189 46.9762 725.521 50.4708L500.729 264.62C497.061 268.115 492.086 270.078 486.898 270.078H408.602C403.414 270.078 398.439 272.041 394.771 275.536L122.729 534.698C119.061 538.193 114.086 540.156 108.898 540.156H22.5M873 0L684 180.052L589.794 270.078M778.5 180.052H739.352C734.164 180.052 729.189 182.015 725.521 185.51L642.479 264.62C638.811 268.115 633.836 270.078 628.648 270.078H589.794M778.5 180.052H864.898C870.086 180.052 875.061 178.089 878.729 174.594L1062 0M778.5 180.052L967.5 0M778.5 180.052L400.5 540.156M967.794 270.078H928.352C923.164 270.078 918.189 272.041 914.521 275.536L784.229 399.659C780.561 403.154 775.586 405.117 770.398 405.117H739.352C734.164 405.117 729.189 407.08 725.521 410.575L500.729 624.724C497.061 628.219 492.086 630.182 486.898 630.182H408.602C403.414 630.182 398.439 632.145 394.771 635.64L306 720.208M967.794 270.078H1006.65C1011.84 270.078 1016.81 268.115 1020.48 264.62L1103.52 185.51C1107.19 182.015 1112.16 180.052 1117.35 180.052H1156.5M967.794 270.078L873 360.667M967.794 270.078L1062 180.052L1251 0M873 360.104L684 540.156L589.794 630.182M778.5 540.156H739.352C734.164 540.156 729.189 542.119 725.521 545.614L642.479 624.724C638.811 628.219 633.836 630.182 628.648 630.182H589.794M778.5 540.156H864.898C870.086 540.156 875.061 538.193 878.729 534.698L1150.77 275.536C1154.44 272.041 1159.41 270.078 1164.6 270.078H1242.9C1248.09 270.078 1253.06 268.115 1256.73 264.62L1440 90.026M778.5 540.156L1156.5 180.052M778.5 540.156L589.5 720.208M684 720.208L772.771 635.64C776.439 632.145 781.414 630.182 786.602 630.182H864.898C870.086 630.182 875.061 628.219 878.729 624.724L1103.52 410.575C1107.19 407.08 1112.16 405.117 1117.35 405.117H1148.4C1153.59 405.117 1158.56 403.154 1162.23 399.659L1292.52 275.536C1296.19 272.041 1301.16 270.078 1306.35 270.078H1345.79M825.75 720.208L914.521 635.64C918.189 632.145 923.164 630.182 928.352 630.182H967.794M967.794 630.182H1006.65C1011.84 630.182 1016.81 628.219 1020.48 624.724L1103.52 545.614C1107.19 542.119 1112.16 540.156 1117.35 540.156H1156.5M967.794 630.182L873 720.771M967.794 630.182L1062 540.156L1251 360.104M825.75 721.333L784.229 760.889C780.561 764.383 775.586 766.346 770.398 766.346H739.352C734.164 766.346 729.189 768.31 725.521 771.804L500.729 985.954C497.061 989.448 492.086 991.411 486.898 991.411H408.602C403.414 991.411 398.439 993.375 394.771 996.869L306 1081.44M873 721.333L684 901.385L589.794 991.411M778.5 901.385H739.352C734.164 901.385 729.189 903.349 725.521 906.843L642.479 985.954C638.811 989.448 633.836 991.411 628.648 991.411H589.794M778.5 901.385H864.898C870.086 901.385 875.061 899.422 878.729 895.928L1062 721.333M778.5 901.385L967.5 721.333M778.5 901.385L589.5 1081.44M684 1081.44L772.771 996.869C776.439 993.375 781.414 991.411 786.602 991.411H864.898C870.086 991.411 875.061 989.448 878.729 985.954L1103.52 771.804C1107.19 768.31 1112.16 766.346 1117.35 766.346H1148.4C1153.59 766.346 1158.56 764.383 1162.23 760.889L1203.75 721.333M825.75 1081.44L914.521 996.869C918.189 993.375 923.164 991.411 928.352 991.411H967.794M967.794 991.411H1006.65C1011.84 991.411 1016.81 989.448 1020.48 985.954L1103.52 906.843C1107.19 903.349 1112.16 901.385 1117.35 901.385H1156.5M967.794 991.411L873 1082M967.794 991.411L1062 901.385L1251 721.333M1203.75 0L1162.23 39.5552C1158.56 43.0498 1153.59 45.013 1148.4 45.013H1117.35C1112.16 45.013 1107.19 46.9762 1103.52 50.4708L878.729 264.62C875.061 268.115 870.086 270.078 864.898 270.078H786.602C781.414 270.078 776.439 272.041 772.771 275.536L500.729 534.698C497.061 538.193 492.086 540.156 486.898 540.156H400.5M1156.5 180.052H1242.9C1248.09 180.052 1253.06 178.089 1256.73 174.594L1440 0M1156.5 180.052L1345.5 0M1345.79 270.078H1384.65C1389.84 270.078 1394.81 268.115 1398.48 264.62L1440 225.065M1345.79 270.078L1251 360.667M1345.79 270.078L1440 180.052M1156.5 540.156H1242.9C1248.09 540.156 1253.06 538.193 1256.73 534.698L1440 360.104M1156.5 540.156L967.5 720.208M1156.5 540.156L1440 270.078M1062 720.208L1150.77 635.64C1154.44 632.145 1159.41 630.182 1164.6 630.182H1242.9C1248.09 630.182 1253.06 628.219 1256.73 624.724L1440 450.13M1203.75 720.208L1292.52 635.64C1296.19 632.145 1301.16 630.182 1306.35 630.182H1345.79M1345.79 630.182H1384.65C1389.84 630.182 1394.81 628.219 1398.48 624.724L1440 585.169M1345.79 630.182L1251 720.771M1345.79 630.182L1440 540.156M1345.5 720.208L1440 630.182M1156.5 901.385H1242.9C1248.09 901.385 1253.06 899.422 1256.73 895.928L1440 721.333M1156.5 901.385L967.5 1081.44M1156.5 901.385L1345.5 721.333M1062 1081.44L1150.77 996.869C1154.44 993.375 1159.41 991.411 1164.6 991.411H1242.9C1248.09 991.411 1253.06 989.448 1256.73 985.954L1440 811.359M1203.75 1081.44L1292.52 996.869C1296.19 993.375 1301.16 991.411 1306.35 991.411H1345.79M1345.79 991.411H1384.65C1389.84 991.411 1394.81 989.448 1398.48 985.954L1440 946.398M1345.79 991.411L1251 1082M1345.79 991.411L1440 901.385M1345.5 1081.44L1440 991.411M-72 90.026L-30.479 50.4708C-26.8108 46.9762 -21.8356 45.013 -16.6479 45.013H14.3979C19.5856 45.013 24.5608 43.0498 28.229 39.5552L69.75 0M-72 180.052L117 0M-72 225.065L-30.479 185.51C-26.8108 182.015 -21.8356 180.052 -16.6479 180.052H22.5M22.5 180.052H108.898C114.086 180.052 119.061 178.089 122.729 174.594L306 0M22.5 180.052L-72 270.078M22.5 180.052L211.5 0M-72 360.104L16.771 275.536C20.4392 272.041 25.4144 270.078 30.6021 270.078H108.898C114.086 270.078 119.061 268.115 122.729 264.62L347.521 50.4708C351.189 46.9762 356.164 45.013 361.352 45.013H392.398C397.586 45.013 402.561 43.0498 406.229 39.5552L447.75 0M211.794 270.078H172.352C167.164 270.078 162.189 272.041 158.521 275.536L28.229 399.659C24.5608 403.154 19.5856 405.117 14.3979 405.117H-16.6479C-21.8356 405.117 -26.8108 407.08 -30.479 410.575L-72 450.13M211.794 270.078H250.648C255.836 270.078 260.811 268.115 264.479 264.62L347.521 185.51C351.189 182.015 356.164 180.052 361.352 180.052H400.5M211.794 270.078L117 360.667M211.794 270.078L306 180.052L495 0M-72 540.156L117 360.104M-72 585.169L-30.479 545.614C-26.8108 542.119 -21.8356 540.156 -16.6479 540.156H22.5M22.5 540.156L-72 630.182M22.5 540.156L400.5 180.052M-72 720.208L16.771 635.64C20.4392 632.145 25.4144 630.182 30.6021 630.182H108.898C114.086 630.182 119.061 628.219 122.729 624.724L347.521 410.575C351.189 407.08 356.164 405.117 361.352 405.117H392.398C397.586 405.117 402.561 403.154 406.229 399.659L536.521 275.536C540.189 272.041 545.164 270.078 550.352 270.078H589.794M69.75 720.208L158.521 635.64C162.189 632.145 167.164 630.182 172.352 630.182H211.794M211.794 630.182H250.648C255.836 630.182 260.811 628.219 264.479 624.724L347.521 545.614C351.189 542.119 356.164 540.156 361.352 540.156H400.5M211.794 630.182L117 720.771M211.794 630.182L306 540.156L495 360.104M-72 811.359L-30.479 771.804C-26.8108 768.31 -21.8356 766.346 -16.6479 766.346H14.3979C19.5856 766.346 24.5608 764.383 28.229 760.889L69.75 721.333M-72 901.385L117 721.333M-72 946.398L-30.479 906.843C-26.8108 903.349 -21.8356 901.385 -16.6479 901.385H22.5M22.5 901.385H108.898C114.086 901.385 119.061 899.422 122.729 895.928L306 721.333M22.5 901.385L-72 991.411M22.5 901.385L211.5 721.333M-72 1081.44L16.771 996.869C20.4392 993.375 25.4144 991.411 30.6021 991.411H108.898C114.086 991.411 119.061 989.448 122.729 985.954L347.521 771.804C351.189 768.31 356.164 766.346 361.352 766.346H392.398C397.586 766.346 402.561 764.383 406.229 760.889L447.75 721.333M69.75 1081.44L158.521 996.869C162.189 993.375 167.164 991.411 172.352 991.411H211.794M211.794 991.411H250.648C255.836 991.411 260.811 989.448 264.479 985.954L347.521 906.843C351.189 903.349 356.164 901.385 361.352 901.385H400.5M211.794 991.411L117 1082M211.794 991.411L306 901.385L495 721.333M400.5 180.052H486.898C492.086 180.052 497.061 178.089 500.729 174.594L684 0M400.5 180.052L589.5 0M589.794 270.078L495 360.667M400.5 540.156L211.5 720.208M447.75 720.208L536.521 635.64C540.189 632.145 545.164 630.182 550.352 630.182H589.794M589.794 630.182L495 720.771M400.5 901.385H486.898C492.086 901.385 497.061 899.422 500.729 895.928L684 721.333M400.5 901.385L211.5 1081.44M400.5 901.385L589.5 721.333M447.75 1081.44L536.521 996.869C540.189 993.375 545.164 991.411 550.352 991.411H589.794M589.794 991.411L495 1082" stroke="url(#paint0_linear_14982_17680)" stroke-width="2" stroke-linecap="round"/>
    </g>
    <defs>
        <linearGradient id="paint0_linear_14982_17680" x1="1366.87" y1="1163.37" x2="390.606" y2="236.04" gradientUnits="userSpaceOnUse">
            <stop offset="0.206466" stop-color="#05C46B" stop-opacity="0"/>
            <stop offset="0.471057" stop-color="#05C46B"/>
            <stop offset="0.854989" stop-color="#05C46B" stop-opacity="0"/>
        </linearGradient>
        <clipPath id="clip0_14982_17680">
            <rect width="1440" height="980" fill="white"/>
        </clipPath>
    </defs>
</svg>
