<svg width="36" height="36" viewBox="0 0 36 36" fill="none" xmlns="http://www.w3.org/2000/svg">
    <path d="M0 4C0 1.79086 1.79086 0 4 0H32C34.2091 0 36 1.79086 36 4V32C36 34.2091 34.2091 36 32 36H4C1.79086 36 0 34.2091 0 32V4Z" fill="#05C46B"/>
    <path fill-rule="evenodd" clip-rule="evenodd" d="M6 18.3044C6 23.7398 9.43804 28.3519 14.2065 29.9789C14.8069 30.0922 15.0257 29.7123 15.0257 29.386C15.0257 29.0937 15.0154 28.3202 15.0095 27.2937C11.6716 28.0369 10.9674 25.644 10.9674 25.644C10.4215 24.2225 9.63473 23.8441 9.63473 23.8441C8.5452 23.0804 9.71724 23.0963 9.71724 23.0963C10.9217 23.1832 11.5552 24.3645 11.5552 24.3645C12.6264 26.2445 14.3642 25.7014 15.0478 25.3865C15.1568 24.5911 15.467 24.0495 15.8095 23.7413C13.145 23.4309 10.3434 22.3757 10.3434 17.6609C10.3434 16.3171 10.8112 15.2189 11.5788 14.3586C11.4558 14.0474 11.044 12.7965 11.6967 11.1031C11.6967 11.1031 12.7044 10.7715 14.9962 12.3637C15.9539 12.091 16.9801 11.9543 18.0004 11.9498C19.0199 11.9543 20.0461 12.091 21.0052 12.3637C23.2956 10.7715 24.3019 11.1031 24.3019 11.1031C24.956 12.7965 24.5442 14.0474 24.4212 14.3586C25.1903 15.2189 25.6544 16.3171 25.6544 17.6609C25.6544 22.387 22.8491 23.4271 20.1758 23.7323C20.6067 24.1122 20.9898 24.863 20.9898 26.0104C20.9898 27.6555 20.9758 28.9826 20.9758 29.386C20.9758 29.7153 21.1916 30.0975 21.8009 29.9774C26.5649 28.3474 30 23.7391 30 18.3044C30 11.5087 24.6267 6 17.9989 6C11.3733 6 6 11.5087 6 18.3044Z" fill="#0F1014"/>
</svg>
