<svg width="36" height="36" viewBox="0 0 36 36" fill="none" xmlns="http://www.w3.org/2000/svg">
    <path d="M0 4C0 1.79086 1.79086 0 4 0H32C34.2091 0 36 1.79086 36 4V32C36 34.2091 34.2091 36 32 36H4C1.79086 36 0 34.2091 0 32V4Z" fill="#05C46B"/>
    <path d="M14.6667 28L9.00011 28C8.44782 28 8.00011 27.5523 8.00011 27L8.00011 21.3333L11.1717 21.3333C11.7021 21.3333 12.2108 21.544 12.5859 21.9191L14.081 23.4142C14.456 23.7893 14.6667 24.298 14.6667 24.8284L14.6667 28Z" fill="#0F1014"/>
    <path d="M21.3334 8H27C27.5523 8 28 8.44772 28 9V14.6667H24.8285C24.2981 14.6667 23.7893 14.456 23.4143 14.0809L21.9192 12.5858C21.5441 12.2107 21.3334 11.702 21.3334 11.1716L21.3334 8Z" fill="#0F1014"/>
    <path d="M28 27.3333C28 27.7015 27.7015 27.9999 27.3333 27.9999H21.3334V22C21.3334 21.6318 21.0349 21.3333 20.6667 21.3333L15.219 21.3333C14.8654 21.3333 14.5263 21.1928 14.2762 20.9428L8.39065 15.0572C8.1406 14.8071 8.00012 14.468 8.00012 14.1144L8.00012 8.66667C8.00012 8.29848 8.2986 8 8.66679 8L14.6667 8L14.6667 14C14.6667 14.3682 14.9652 14.6666 15.3334 14.6666L20.7811 14.6666C21.1347 14.6666 21.4738 14.8071 21.7239 15.0572L27.6095 20.9428C27.8595 21.1928 28 21.532 28 21.8856V27.3333Z" fill="#0F1014"/>
</svg>
