<svg width="36" height="36" viewBox="0 0 36 36" fill="none" xmlns="http://www.w3.org/2000/svg">
    <path d="M0 4C0 1.79086 1.79086 0 4 0H32C34.2091 0 36 1.79086 36 4V32C36 34.2091 34.2091 36 32 36H4C1.79086 36 0 34.2091 0 32V4Z" fill="#05C46B"/>
    <path fill-rule="evenodd" clip-rule="evenodd" d="M20.7272 6.31401C18.0897 5.6985 15.3215 5.99331 12.8728 7.1505C10.4241 8.30769 8.43889 10.2592 7.23992 12.6877C6.04095 15.1162 5.69877 17.8789 6.26901 20.5266C6.83925 23.1742 8.28838 25.5511 10.3808 27.2708C12.4731 28.9904 15.0857 29.9517 17.7937 29.9982C19.7247 30.0314 21.6232 29.5981 23.3333 28.7497C24.0754 28.3815 24.3786 27.4815 24.0104 26.7393C23.6422 25.9972 22.7421 25.6941 22 26.0623C20.7174 26.6986 19.2935 27.0236 17.8453 26.9987C15.8143 26.9637 13.8549 26.2428 12.2856 24.9531C10.7163 23.6633 9.62944 21.8807 9.20176 19.8949C8.77408 17.9092 9.03072 15.8372 9.92994 14.0158C10.8292 12.1944 12.3181 10.7308 14.1546 9.86287C15.9911 8.99498 18.0673 8.77388 20.0454 9.23551C22.0235 9.69715 23.7873 10.8144 25.0499 12.4055C26.5814 14.3354 27 15.9646 27 18V18.875C27 19.8185 26.2352 20.5833 25.2917 20.5833C24.3482 20.5833 23.5833 19.8185 23.5833 18.875V18.0613C23.5836 18.041 23.5837 18.0207 23.5837 18.0003C23.5837 14.9167 21.0839 12.417 18.0003 12.417C14.9167 12.417 12.417 14.9167 12.417 18.0003C12.417 21.0839 14.9167 23.5837 18.0003 23.5837C19.482 23.5837 20.8289 23.0065 21.8284 22.0648C22.6888 22.9984 23.9219 23.5833 25.2917 23.5833C27.892 23.5833 30 21.4753 30 18.875V18C30 15.3687 29.4002 13.0614 27.3999 10.5407C25.7164 8.41916 23.3647 6.92952 20.7272 6.31401ZM20.5835 17.975C20.5834 17.9833 20.5833 17.9917 20.5833 18V18.0417C20.5612 19.4493 19.4133 20.5837 18.0003 20.5837C16.5736 20.5837 15.417 19.4271 15.417 18.0003C15.417 16.5736 16.5736 15.417 18.0003 15.417C19.4186 15.417 20.57 16.5599 20.5835 17.975Z" fill="#0F1014"/>
</svg>
