<svg width="36" height="36" viewBox="0 0 36 36" fill="none" xmlns="http://www.w3.org/2000/svg">
    <path d="M0 4C0 1.79086 1.79086 0 4 0H32C34.2091 0 36 1.79086 36 4V32C36 34.2091 34.2091 36 32 36H4C1.79086 36 0 34.2091 0 32V4Z" fill="#05C46B"/>
    <path d="M26.6392 9H9.35922C8.17122 9 7.19922 10.0125 7.19922 11.25V24.75C7.19922 25.9875 8.17122 27 9.35922 27H26.6392C27.8272 27 28.7992 25.9875 28.7992 24.75V11.25C28.7992 10.0125 27.8272 9 26.6392 9ZM26.2072 13.7812L19.144 18.3825C18.442 18.8438 17.5564 18.8438 16.8544 18.3825L9.79122 13.7812C9.52122 13.6013 9.35922 13.2975 9.35922 12.9713C9.35922 12.2175 10.1476 11.7675 10.7632 12.1612L17.9992 16.875L25.2352 12.1612C25.8508 11.7675 26.6392 12.2175 26.6392 12.9713C26.6392 13.2975 26.4772 13.6013 26.2072 13.7812Z" fill="#0F1014"/>
</svg>
