<svg width="36" height="36" viewBox="0 0 36 36" fill="none" xmlns="http://www.w3.org/2000/svg">
    <path d="M0 4C0 1.79086 1.79086 0 4 0H32C34.2091 0 36 1.79086 36 4V32C36 34.2091 34.2091 36 32 36H4C1.79086 36 0 34.2091 0 32V4Z" fill="#05C46B"/>
    <path fill-rule="evenodd" clip-rule="evenodd" d="M26.4083 12.7312C27.3407 12.1429 28.0561 11.21 28.3918 10.0987C27.5189 10.6448 26.5543 11.0397 25.5251 11.2536C24.7038 10.3275 23.53 9.75 22.231 9.75C19.7387 9.75 17.7191 11.8814 17.7191 14.5099C17.7191 14.8831 17.7566 15.2467 17.8341 15.594C14.0841 15.3952 10.759 13.5021 8.53149 10.6203C8.14281 11.3257 7.9207 12.1429 7.9207 13.0145C7.9207 14.6652 8.71744 16.1224 9.92868 16.9777C9.18877 16.9532 8.49275 16.7366 7.88325 16.3825V16.4411C7.88325 18.7482 9.43799 20.6726 11.5054 21.1084C11.1257 21.2201 10.728 21.2759 10.3148 21.2759C10.0242 21.2759 9.74015 21.2473 9.4664 21.1915C10.0397 23.0818 11.7068 24.4601 13.6825 24.4969C12.1368 25.7744 10.1908 26.5343 8.07695 26.5343C7.7128 26.5343 7.35253 26.5139 7 26.4689C8.99765 27.8186 11.3698 28.6071 13.9188 28.6071C22.2219 28.6071 26.7596 21.3536 26.7596 15.0628C26.7596 14.8558 26.757 14.6502 26.748 14.4473C27.6299 13.7758 28.397 12.9369 29 11.9822C28.1904 12.3608 27.32 12.6168 26.4083 12.7312Z" fill="#0F1014"/>
</svg>
