<svg width="36" height="36" viewBox="0 0 36 36" fill="none" xmlns="http://www.w3.org/2000/svg">
    <g clip-path="url(#clip0)">
        <path d="M0 4C0 1.79086 1.79086 0 4 0H32C34.2091 0 36 1.79086 36 4V32C36 34.2091 34.2091 36 32 36H4C1.79086 36 0 34.2091 0 32V4Z" fill="url(#paint0_linear)"/>
        <path d="M25.2484 18C25.2484 17.2232 24.6122 16.5937 23.8269 16.5937L18 16.5938L18 10.9687L23.8269 10.9687C27.7537 10.9687 30.9375 14.1171 30.9375 18C30.9375 21.8835 27.7537 25.0313 23.8269 25.0313L18 25.0313L18 19.4063L23.8269 19.4063C24.6122 19.4062 25.2484 18.7768 25.2484 18Z" fill="#13151A"/>
        <path d="M18 25.0313L18 36L5.72156e-07 36L0 -4.64916e-06L18 -4.64916e-06L18 10.9687L5.62493 10.9687L5.62493 25.0313L18 25.0313Z" fill="#13151A"/>
        <path d="M18 16.5938L18 19.4063L11.2499 19.4063L11.2499 16.5938L18 16.5938Z" fill="#13151A"/>
    </g>
    <defs>
        <linearGradient id="paint0_linear" x1="18" y1="0" x2="18" y2="36" gradientUnits="userSpaceOnUse">
            <stop stop-color="#FFD000"/>
            <stop offset="1" stop-color="#FFA800"/>
        </linearGradient>
        <clipPath id="clip0">
            <path d="M0 4C0 1.79086 1.79086 0 4 0H32C34.2091 0 36 1.79086 36 4V32C36 34.2091 34.2091 36 32 36H4C1.79086 36 0 34.2091 0 32V4Z" fill="white"/>
        </clipPath>
    </defs>
</svg>
