<svg width="36" height="36" viewBox="0 0 36 36" fill="none" xmlns="http://www.w3.org/2000/svg">
    <g clip-path="url(#clip0)">
        <path d="M0 4C0 1.79086 1.79086 0 4 0H32C34.2091 0 36 1.79086 36 4V32C36 34.2091 34.2091 36 32 36H4C1.79086 36 0 34.2091 0 32V4Z" fill="url(#paint0_linear)"/>
        <path d="M19.4175 18.2019C19.4175 18.9872 18.7881 19.6234 18.0113 19.6234C17.2344 19.6234 16.605 18.9872 16.605 18.2019V0L10.98 0L10.98 18.2019C10.98 22.1287 14.1278 25.3125 18.0113 25.3125C21.8942 25.3125 25.0425 22.1287 25.0425 18.2019V0L19.4175 0V18.2019Z" fill="#0F1014"/>
    </g>
    <defs>
        <linearGradient id="paint0_linear" x1="18" y1="0" x2="18" y2="36" gradientUnits="userSpaceOnUse">
            <stop stop-color="#FFD000"/>
            <stop offset="1" stop-color="#FFA800"/>
        </linearGradient>
        <clipPath id="clip0">
            <path d="M0 4C0 1.79086 1.79086 0 4 0H32C34.2091 0 36 1.79086 36 4V32C36 34.2091 34.2091 36 32 36H4C1.79086 36 0 34.2091 0 32V4Z" fill="white"/>
        </clipPath>
    </defs>
</svg>
