<svg width="36" height="36" viewBox="0 0 36 36" fill="none" xmlns="http://www.w3.org/2000/svg">
    <path d="M0 4C0 1.79086 1.79086 0 4 0H32C34.2091 0 36 1.79086 36 4V32C36 34.2091 34.2091 36 32 36H4C1.79086 36 0 34.2091 0 32V4Z" fill="#05C46B"/>
    <path fill-rule="evenodd" clip-rule="evenodd" d="M29 22.2006V13.7994C29 13.7994 29 9.75 25.2087 9.75H10.79C10.79 9.75 7 9.75 7 13.7994V22.2006C7 22.2006 7 26.25 10.79 26.25H25.2087C25.2087 26.25 29 26.25 29 22.2006ZM22.2712 18.0117L15.25 22.2006V13.7994L22.2712 18.0117Z" fill="#0F1014"/>
</svg>
