<svg width="708" height="900" viewBox="0 0 708 900" fill="none" xmlns="http://www.w3.org/2000/svg">
    <g clip-path="url(#clip0_15160_14725)">
        <path opacity="0.5" d="M108.75 0L67.229 39.5552C63.5608 43.0498 58.5856 45.013 53.3979 45.013H22.3521C17.1644 45.013 12.1892 46.9762 8.52096 50.4708L-216.271 264.62C-219.939 268.115 -224.914 270.078 -230.102 270.078H-308.398C-313.586 270.078 -318.561 272.041 -322.229 275.536L-594.271 534.698C-597.939 538.193 -602.914 540.156 -608.102 540.156H-694.5M156 0L-33 180.052L-127.206 270.078M61.5 180.052H22.3521C17.1644 180.052 12.1892 182.015 8.52096 185.51L-74.5209 264.62C-78.1892 268.115 -83.1645 270.078 -88.3521 270.078H-127.206M61.5 180.052H147.898C153.086 180.052 158.061 178.089 161.729 174.594L345 0M61.5 180.052L250.5 0M61.5 180.052L-316.5 540.156M250.794 270.078H211.352C206.164 270.078 201.189 272.041 197.521 275.536L67.229 399.659C63.5608 403.154 58.5856 405.117 53.3979 405.117H22.3521C17.1644 405.117 12.1892 407.08 8.52096 410.575L-216.271 624.724C-219.939 628.219 -224.914 630.182 -230.102 630.182H-308.398C-313.586 630.182 -318.561 632.145 -322.229 635.64L-411 720.208M250.794 270.078H289.648C294.836 270.078 299.811 268.115 303.479 264.62L386.521 185.51C390.189 182.015 395.164 180.052 400.352 180.052H439.5M250.794 270.078L156 360.667M250.794 270.078L345 180.052L534 0M156 360.104L-33 540.156L-127.206 630.182M61.5 540.156H22.3521C17.1644 540.156 12.1892 542.119 8.52096 545.614L-74.5209 624.724C-78.1892 628.219 -83.1645 630.182 -88.3521 630.182H-127.206M61.5 540.156H147.898C153.086 540.156 158.061 538.193 161.729 534.698L433.771 275.536C437.439 272.041 442.414 270.078 447.602 270.078H525.898C531.086 270.078 536.061 268.115 539.729 264.62L723 90.026M61.5 540.156L439.5 180.052M61.5 540.156L-127.5 720.208M-33 720.208L55.771 635.64C59.4392 632.145 64.4144 630.182 69.6021 630.182H147.898C153.086 630.182 158.061 628.219 161.729 624.724L386.521 410.575C390.189 407.08 395.164 405.117 400.352 405.117H431.398C436.586 405.117 441.561 403.154 445.229 399.659L575.521 275.536C579.189 272.041 584.164 270.078 589.352 270.078H628.794M108.75 720.208L197.521 635.64C201.189 632.145 206.164 630.182 211.352 630.182H250.794M250.794 630.182H289.648C294.836 630.182 299.811 628.219 303.479 624.724L386.521 545.614C390.189 542.119 395.164 540.156 400.352 540.156H439.5M250.794 630.182L156 720.771M250.794 630.182L345 540.156L534 360.104M108.75 721.333L67.229 760.889C63.5608 764.383 58.5856 766.346 53.3979 766.346H22.3521C17.1644 766.346 12.1892 768.31 8.52096 771.804L-216.271 985.954C-219.939 989.448 -224.914 991.411 -230.102 991.411H-308.398C-313.586 991.411 -318.561 993.375 -322.229 996.869L-411 1081.44M156 721.333L-33 901.385L-127.206 991.411M61.5 901.385H22.3521C17.1644 901.385 12.1892 903.349 8.52096 906.843L-74.5209 985.954C-78.1892 989.448 -83.1645 991.411 -88.3521 991.411H-127.206M61.5 901.385H147.898C153.086 901.385 158.061 899.422 161.729 895.928L345 721.333M61.5 901.385L250.5 721.333M61.5 901.385L-127.5 1081.44M-33 1081.44L55.771 996.869C59.4392 993.375 64.4144 991.411 69.6021 991.411H147.898C153.086 991.411 158.061 989.448 161.729 985.954L386.521 771.804C390.189 768.31 395.164 766.346 400.352 766.346H431.398C436.586 766.346 441.561 764.383 445.229 760.889L486.75 721.333M108.75 1081.44L197.521 996.869C201.189 993.375 206.164 991.411 211.352 991.411H250.794M250.794 991.411H289.648C294.836 991.411 299.811 989.448 303.479 985.954L386.521 906.843C390.189 903.349 395.164 901.385 400.352 901.385H439.5M250.794 991.411L156 1082M250.794 991.411L345 901.385L534 721.333M486.75 0L445.229 39.5552C441.561 43.0498 436.586 45.013 431.398 45.013H400.352C395.164 45.013 390.189 46.9762 386.521 50.4708L161.729 264.62C158.061 268.115 153.086 270.078 147.898 270.078H69.6021C64.4144 270.078 59.4392 272.041 55.771 275.536L-216.271 534.698C-219.939 538.193 -224.914 540.156 -230.102 540.156H-316.5M439.5 180.052H525.898C531.086 180.052 536.061 178.089 539.729 174.594L723 0M439.5 180.052L628.5 0M628.794 270.078H667.648C672.836 270.078 677.811 268.115 681.479 264.62L723 225.065M628.794 270.078L534 360.667M628.794 270.078L723 180.052M439.5 540.156H525.898C531.086 540.156 536.061 538.193 539.729 534.698L723 360.104M439.5 540.156L250.5 720.208M439.5 540.156L723 270.078M345 720.208L433.771 635.64C437.439 632.145 442.414 630.182 447.602 630.182H525.898C531.086 630.182 536.061 628.219 539.729 624.724L723 450.13M486.75 720.208L575.521 635.64C579.189 632.145 584.164 630.182 589.352 630.182H628.794M628.794 630.182H667.648C672.836 630.182 677.811 628.219 681.479 624.724L723 585.169M628.794 630.182L534 720.771M628.794 630.182L723 540.156M628.5 720.208L723 630.182M439.5 901.385H525.898C531.086 901.385 536.061 899.422 539.729 895.928L723 721.333M439.5 901.385L250.5 1081.44M439.5 901.385L628.5 721.333M345 1081.44L433.771 996.869C437.439 993.375 442.414 991.411 447.602 991.411H525.898C531.086 991.411 536.061 989.448 539.729 985.954L723 811.359M486.75 1081.44L575.521 996.869C579.189 993.375 584.164 991.411 589.352 991.411H628.794M628.794 991.411H667.648C672.836 991.411 677.811 989.448 681.479 985.954L723 946.398M628.794 991.411L534 1082M628.794 991.411L723 901.385M628.5 1081.44L723 991.411M-789 90.026L-747.479 50.4708C-743.811 46.9762 -738.836 45.013 -733.648 45.013H-702.602C-697.414 45.013 -692.439 43.0498 -688.771 39.5552L-647.25 0M-789 180.052L-600 0M-789 225.065L-747.479 185.51C-743.811 182.015 -738.836 180.052 -733.648 180.052H-694.5M-694.5 180.052H-608.102C-602.914 180.052 -597.939 178.089 -594.271 174.594L-411 0M-694.5 180.052L-789 270.078M-694.5 180.052L-505.5 0M-789 360.104L-700.229 275.536C-696.561 272.041 -691.586 270.078 -686.398 270.078H-608.102C-602.914 270.078 -597.939 268.115 -594.271 264.62L-369.479 50.4708C-365.811 46.9762 -360.836 45.013 -355.648 45.013H-324.602C-319.414 45.013 -314.439 43.0498 -310.771 39.5552L-269.25 0M-505.206 270.078H-544.648C-549.836 270.078 -554.811 272.041 -558.479 275.536L-688.771 399.659C-692.439 403.154 -697.414 405.117 -702.602 405.117H-733.648C-738.836 405.117 -743.811 407.08 -747.479 410.575L-789 450.13M-505.206 270.078H-466.352C-461.164 270.078 -456.189 268.115 -452.521 264.62L-369.479 185.51C-365.811 182.015 -360.836 180.052 -355.648 180.052H-316.5M-505.206 270.078L-600 360.667M-505.206 270.078L-411 180.052L-222 0M-789 540.156L-600 360.104M-789 585.169L-747.479 545.614C-743.811 542.119 -738.836 540.156 -733.648 540.156H-694.5M-694.5 540.156L-789 630.182M-694.5 540.156L-316.5 180.052M-789 720.208L-700.229 635.64C-696.561 632.145 -691.586 630.182 -686.398 630.182H-608.102C-602.914 630.182 -597.939 628.219 -594.271 624.724L-369.479 410.575C-365.811 407.08 -360.836 405.117 -355.648 405.117H-324.602C-319.414 405.117 -314.439 403.154 -310.771 399.659L-180.479 275.536C-176.811 272.041 -171.836 270.078 -166.648 270.078H-127.206M-647.25 720.208L-558.479 635.64C-554.811 632.145 -549.836 630.182 -544.648 630.182H-505.206M-505.206 630.182H-466.352C-461.164 630.182 -456.189 628.219 -452.521 624.724L-369.479 545.614C-365.811 542.119 -360.836 540.156 -355.648 540.156H-316.5M-505.206 630.182L-600 720.771M-505.206 630.182L-411 540.156L-222 360.104M-789 811.359L-747.479 771.804C-743.811 768.31 -738.836 766.346 -733.648 766.346H-702.602C-697.414 766.346 -692.439 764.383 -688.771 760.889L-647.25 721.333M-789 901.385L-600 721.333M-789 946.398L-747.479 906.843C-743.811 903.349 -738.836 901.385 -733.648 901.385H-694.5M-694.5 901.385H-608.102C-602.914 901.385 -597.939 899.422 -594.271 895.928L-411 721.333M-694.5 901.385L-789 991.411M-694.5 901.385L-505.5 721.333M-789 1081.44L-700.229 996.869C-696.561 993.375 -691.586 991.411 -686.398 991.411H-608.102C-602.914 991.411 -597.939 989.448 -594.271 985.954L-369.479 771.804C-365.811 768.31 -360.836 766.346 -355.648 766.346H-324.602C-319.414 766.346 -314.439 764.383 -310.771 760.889L-269.25 721.333M-647.25 1081.44L-558.479 996.869C-554.811 993.375 -549.836 991.411 -544.648 991.411H-505.206M-505.206 991.411H-466.352C-461.164 991.411 -456.189 989.448 -452.521 985.954L-369.479 906.843C-365.811 903.349 -360.836 901.385 -355.648 901.385H-316.5M-505.206 991.411L-600 1082M-505.206 991.411L-411 901.385L-222 721.333M-316.5 180.052H-230.102C-224.914 180.052 -219.939 178.089 -216.271 174.594L-33 0M-316.5 180.052L-127.5 0M-127.206 270.078L-222 360.667M-316.5 540.156L-505.5 720.208M-269.25 720.208L-180.479 635.64C-176.811 632.145 -171.836 630.182 -166.648 630.182H-127.206M-127.206 630.182L-222 720.771M-316.5 901.385H-230.102C-224.914 901.385 -219.939 899.422 -216.271 895.928L-33 721.333M-316.5 901.385L-505.5 1081.44M-316.5 901.385L-127.5 721.333M-269.25 1081.44L-180.479 996.869C-176.811 993.375 -171.836 991.411 -166.648 991.411H-127.206M-127.206 991.411L-222 1082" stroke="url(#paint0_linear_15160_14725)" stroke-width="2" stroke-linecap="round"/>
    </g>
    <defs>
        <linearGradient id="paint0_linear_15160_14725" x1="649.874" y1="1163.37" x2="-326.394" y2="236.04" gradientUnits="userSpaceOnUse">
            <stop offset="0.206466" stop-color="#05C46B" stop-opacity="0"/>
            <stop offset="0.471057" stop-color="#05C46B"/>
            <stop offset="0.854989" stop-color="#05C46B" stop-opacity="0"/>
        </linearGradient>
        <clipPath id="clip0_15160_14725">
            <rect width="708" height="900" fill="white"/>
        </clipPath>
    </defs>
</svg>
