<svg width="320" height="320" viewBox="0 0 320 320" fill="none" xmlns="http://www.w3.org/2000/svg">
    <g clip-path="url(#clip0_15532_1494)">
        <path d="M0 80L34.1421 45.8579C37.8929 42.1071 42.9799 40 48.2843 40H71.7157C77.0201 40 82.1071 37.8929 85.8579 34.1421L120 0" stroke="#05C46B" stroke-linecap="round"/>
        <path d="M0 160L160 0" stroke="#05C46B" stroke-linecap="round"/>
        <path d="M0 200L34.1421 165.858C37.8929 162.107 42.9799 160 48.2843 160H151.716C157.02 160 162.107 157.893 165.858 154.142L320 0" stroke="#05C46B" stroke-linecap="round"/>
        <path d="M0 240L240 0" stroke="#05C46B" stroke-linecap="round"/>
        <path d="M0 320L74.1421 245.858C77.8929 242.107 82.9799 240 88.2843 240H151.716C157.02 240 162.107 237.893 165.858 234.142L320 80" stroke="#05C46B" stroke-linecap="round"/>
        <path d="M120 320L194.142 245.858C197.893 242.107 202.98 240 208.284 240H271.716C277.02 240 282.107 237.893 285.858 234.142L320 200" stroke="#05C46B" stroke-linecap="round"/>
        <path d="M160 320L320 160" stroke="#05C46B" stroke-linecap="round"/>
        <path d="M240 320L320 240" stroke="#05C46B" stroke-linecap="round"/>
    </g>
    <defs>
        <clipPath id="clip0_15532_1494">
            <rect width="320" height="320" fill="white"/>
        </clipPath>
    </defs>
</svg>
