<svg width="447" height="260" viewBox="0 0 447 260" fill="none" xmlns="http://www.w3.org/2000/svg">
    <path d="M0.5 166C0.5 166.276 0.723858 166.5 1 166.5C1.27614 166.5 1.5 166.276 1.5 166H0.5ZM22.5625 139.5H48.4375V138.5H22.5625V139.5ZM69.5 161.5V166H70.5V161.5H69.5ZM1.5 166V161.5H0.5V166H1.5ZM48.4375 139.5C60.0502 139.5 69.5 149.329 69.5 161.5H70.5C70.5 148.818 60.6421 138.5 48.4375 138.5V139.5ZM22.5625 138.5C10.3579 138.5 0.5 148.818 0.5 161.5H1.5C1.5 149.329 10.9498 139.5 22.5625 139.5V138.5ZM52.25 110.875C52.25 119.908 44.7612 127.25 35.5 127.25V128.25C45.2926 128.25 53.25 120.481 53.25 110.875H52.25ZM35.5 127.25C26.2388 127.25 18.75 119.908 18.75 110.875H17.75C17.75 120.481 25.7074 128.25 35.5 128.25V127.25ZM18.75 110.875C18.75 101.842 26.2388 94.5 35.5 94.5V93.5C25.7074 93.5 17.75 101.269 17.75 110.875H18.75ZM35.5 94.5C44.7612 94.5 52.25 101.842 52.25 110.875H53.25C53.25 101.269 45.2926 93.5 35.5 93.5V94.5Z" fill="url(#paint0_linear_15160_14723)"/>
    <path d="M94 130H117.699C127.64 130 135.699 121.941 135.699 112V85C135.699 67.3269 150.026 53 167.699 53H199" stroke="url(#paint1_linear_15160_14723)" stroke-linecap="round"/>
    <path d="M94 130H117.699C127.64 130 135.699 138.059 135.699 148V175C135.699 192.673 150.026 207 167.699 207L199 207" stroke="url(#paint2_linear_15160_14723)" stroke-linecap="round"/>
    <circle cx="94" cy="130" r="2" fill="#05C46B"/>
    <path d="M11.6901 75L10.8501 72.528H7.46608L6.62608 75H5.60608L8.53408 66.624H9.81808L12.7461 75H11.6901ZM9.18208 67.56H9.12208L7.70608 71.64H10.5981L9.18208 67.56ZM16.3416 75.144C15.9096 75.144 15.5216 75.068 15.1776 74.916C14.8336 74.764 14.5416 74.548 14.3016 74.268C14.0696 73.988 13.8896 73.648 13.7616 73.248C13.6416 72.848 13.5816 72.4 13.5816 71.904C13.5816 71.408 13.6416 70.96 13.7616 70.56C13.8896 70.16 14.0696 69.82 14.3016 69.54C14.5416 69.26 14.8336 69.044 15.1776 68.892C15.5216 68.74 15.9096 68.664 16.3416 68.664C16.9576 68.664 17.4496 68.8 17.8176 69.072C18.1936 69.336 18.4736 69.684 18.6576 70.116L17.8536 70.524C17.7416 70.204 17.5576 69.956 17.3016 69.78C17.0456 69.604 16.7256 69.516 16.3416 69.516C16.0536 69.516 15.8016 69.564 15.5856 69.66C15.3696 69.748 15.1896 69.876 15.0456 70.044C14.9016 70.204 14.7936 70.4 14.7216 70.632C14.6496 70.856 14.6136 71.104 14.6136 71.376V72.432C14.6136 72.976 14.7576 73.424 15.0456 73.776C15.3416 74.12 15.7736 74.292 16.3416 74.292C17.1176 74.292 17.6776 73.932 18.0216 73.212L18.7176 73.68C18.5176 74.128 18.2176 74.484 17.8176 74.748C17.4256 75.012 16.9336 75.144 16.3416 75.144ZM22.3064 75.144C21.8744 75.144 21.4864 75.068 21.1424 74.916C20.7984 74.764 20.5064 74.548 20.2664 74.268C20.0344 73.988 19.8544 73.648 19.7264 73.248C19.6064 72.848 19.5464 72.4 19.5464 71.904C19.5464 71.408 19.6064 70.96 19.7264 70.56C19.8544 70.16 20.0344 69.82 20.2664 69.54C20.5064 69.26 20.7984 69.044 21.1424 68.892C21.4864 68.74 21.8744 68.664 22.3064 68.664C22.9224 68.664 23.4144 68.8 23.7824 69.072C24.1584 69.336 24.4384 69.684 24.6224 70.116L23.8184 70.524C23.7064 70.204 23.5224 69.956 23.2664 69.78C23.0104 69.604 22.6904 69.516 22.3064 69.516C22.0184 69.516 21.7664 69.564 21.5504 69.66C21.3344 69.748 21.1544 69.876 21.0104 70.044C20.8664 70.204 20.7584 70.4 20.6864 70.632C20.6144 70.856 20.5784 71.104 20.5784 71.376V72.432C20.5784 72.976 20.7224 73.424 21.0104 73.776C21.3064 74.12 21.7384 74.292 22.3064 74.292C23.0824 74.292 23.6424 73.932 23.9864 73.212L24.6824 73.68C24.4824 74.128 24.1824 74.484 23.7824 74.748C23.3904 75.012 22.8984 75.144 22.3064 75.144ZM28.3073 75.144C27.8913 75.144 27.5113 75.068 27.1673 74.916C26.8233 74.764 26.5273 74.548 26.2793 74.268C26.0393 73.98 25.8513 73.64 25.7153 73.248C25.5793 72.848 25.5113 72.4 25.5113 71.904C25.5113 71.416 25.5793 70.972 25.7153 70.572C25.8513 70.172 26.0393 69.832 26.2793 69.552C26.5273 69.264 26.8233 69.044 27.1673 68.892C27.5113 68.74 27.8913 68.664 28.3073 68.664C28.7233 68.664 29.0993 68.74 29.4353 68.892C29.7793 69.044 30.0753 69.264 30.3233 69.552C30.5713 69.832 30.7633 70.172 30.8993 70.572C31.0353 70.972 31.1033 71.416 31.1033 71.904C31.1033 72.4 31.0353 72.848 30.8993 73.248C30.7633 73.64 30.5713 73.98 30.3233 74.268C30.0753 74.548 29.7793 74.764 29.4353 74.916C29.0993 75.068 28.7233 75.144 28.3073 75.144ZM28.3073 74.292C28.8273 74.292 29.2513 74.132 29.5793 73.812C29.9073 73.492 30.0713 73.004 30.0713 72.348V71.46C30.0713 70.804 29.9073 70.316 29.5793 69.996C29.2513 69.676 28.8273 69.516 28.3073 69.516C27.7873 69.516 27.3633 69.676 27.0353 69.996C26.7073 70.316 26.5433 70.804 26.5433 71.46V72.348C26.5433 73.004 26.7073 73.492 27.0353 73.812C27.3633 74.132 27.7873 74.292 28.3073 74.292ZM36.4981 73.992H36.4501C36.3861 74.136 36.3061 74.28 36.2101 74.424C36.1221 74.56 36.0101 74.684 35.8741 74.796C35.7381 74.9 35.5741 74.984 35.3821 75.048C35.1901 75.112 34.9661 75.144 34.7101 75.144C34.0701 75.144 33.5621 74.94 33.1861 74.532C32.8101 74.116 32.6221 73.532 32.6221 72.78V68.808H33.5821V72.612C33.5821 73.724 34.0541 74.28 34.9981 74.28C35.1901 74.28 35.3741 74.256 35.5501 74.208C35.7341 74.16 35.8941 74.088 36.0301 73.992C36.1741 73.896 36.2861 73.776 36.3661 73.632C36.4541 73.48 36.4981 73.3 36.4981 73.092V68.808H37.4581V75H36.4981V73.992ZM39.5024 75V68.808H40.4624V69.816H40.5104C40.6624 69.464 40.8744 69.184 41.1464 68.976C41.4264 68.768 41.7984 68.664 42.2624 68.664C42.9024 68.664 43.4064 68.872 43.7744 69.288C44.1504 69.696 44.3384 70.276 44.3384 71.028V75H43.3784V71.196C43.3784 70.084 42.9104 69.528 41.9744 69.528C41.7824 69.528 41.5944 69.552 41.4104 69.6C41.2344 69.648 41.0744 69.72 40.9304 69.816C40.7864 69.912 40.6704 70.036 40.5824 70.188C40.5024 70.332 40.4624 70.504 40.4624 70.704V75H39.5024ZM47.6907 75C47.3547 75 47.0987 74.908 46.9227 74.724C46.7547 74.532 46.6707 74.284 46.6707 73.98V69.648H45.6507V68.808H46.2267C46.4347 68.808 46.5747 68.768 46.6467 68.688C46.7267 68.6 46.7667 68.452 46.7667 68.244V67.092H47.6307V68.808H48.9867V69.648H47.6307V74.16H48.8907V75H47.6907ZM51.0098 67.356C50.8018 67.356 50.6498 67.308 50.5538 67.212C50.4658 67.108 50.4218 66.976 50.4218 66.816V66.66C50.4218 66.5 50.4658 66.372 50.5538 66.276C50.6498 66.172 50.8018 66.12 51.0098 66.12C51.2178 66.12 51.3658 66.172 51.4538 66.276C51.5498 66.372 51.5978 66.5 51.5978 66.66V66.816C51.5978 66.976 51.5498 67.108 51.4538 67.212C51.3658 67.308 51.2178 67.356 51.0098 67.356ZM50.5298 68.808H51.4898V75H50.5298V68.808ZM53.5298 75V68.808H54.4898V69.816H54.5378C54.6898 69.464 54.9018 69.184 55.1738 68.976C55.4538 68.768 55.8258 68.664 56.2898 68.664C56.9298 68.664 57.4338 68.872 57.8018 69.288C58.1778 69.696 58.3658 70.276 58.3658 71.028V75H57.4058V71.196C57.4058 70.084 56.9378 69.528 56.0018 69.528C55.8098 69.528 55.6218 69.552 55.4378 69.6C55.2618 69.648 55.1018 69.72 54.9578 69.816C54.8138 69.912 54.6978 70.036 54.6098 70.188C54.5298 70.332 54.4898 70.504 54.4898 70.704V75H53.5298ZM65.5701 75.684C65.5701 76.324 65.3181 76.792 64.8141 77.088C64.3181 77.392 63.5701 77.544 62.5701 77.544C61.6021 77.544 60.9061 77.412 60.4821 77.148C60.0581 76.884 59.8461 76.508 59.8461 76.02C59.8461 75.684 59.9341 75.42 60.1101 75.228C60.2861 75.044 60.5261 74.908 60.8301 74.82V74.688C60.4621 74.512 60.2781 74.224 60.2781 73.824C60.2781 73.512 60.3781 73.276 60.5781 73.116C60.7781 72.948 61.0341 72.824 61.3461 72.744V72.696C60.9781 72.52 60.6901 72.268 60.4821 71.94C60.2821 71.612 60.1821 71.232 60.1821 70.8C60.1821 70.488 60.2381 70.2 60.3501 69.936C60.4621 69.672 60.6181 69.448 60.8181 69.264C61.0261 69.072 61.2701 68.924 61.5501 68.82C61.8381 68.716 62.1581 68.664 62.5101 68.664C62.9501 68.664 63.3421 68.744 63.6861 68.904V68.796C63.6861 68.556 63.7421 68.36 63.8541 68.208C63.9661 68.048 64.1501 67.968 64.4061 67.968H65.3301V68.808H64.1541V69.204C64.3781 69.396 64.5501 69.628 64.6701 69.9C64.7981 70.164 64.8621 70.464 64.8621 70.8C64.8621 71.112 64.8061 71.4 64.6941 71.664C64.5821 71.928 64.4221 72.156 64.2141 72.348C64.0141 72.532 63.7701 72.676 63.4821 72.78C63.1941 72.884 62.8741 72.936 62.5221 72.936C62.3221 72.936 62.1221 72.916 61.9221 72.876C61.7141 72.932 61.5261 73.016 61.3581 73.128C61.1901 73.232 61.1061 73.38 61.1061 73.572C61.1061 73.756 61.1941 73.88 61.3701 73.944C61.5461 74.008 61.7741 74.04 62.0541 74.04H63.3741C64.1421 74.04 64.6981 74.188 65.0421 74.484C65.3941 74.772 65.5701 75.172 65.5701 75.684ZM64.6701 75.756C64.6701 75.508 64.5741 75.308 64.3821 75.156C64.1981 75.012 63.8661 74.94 63.3861 74.94H61.3221C60.9381 75.116 60.7461 75.396 60.7461 75.78C60.7461 76.052 60.8461 76.284 61.0461 76.476C61.2541 76.668 61.6021 76.764 62.0901 76.764H62.9781C63.5141 76.764 63.9301 76.68 64.2261 76.512C64.5221 76.344 64.6701 76.092 64.6701 75.756ZM62.5221 72.168C62.9301 72.168 63.2541 72.072 63.4941 71.88C63.7341 71.68 63.8541 71.376 63.8541 70.968V70.632C63.8541 70.224 63.7341 69.924 63.4941 69.732C63.2541 69.532 62.9301 69.432 62.5221 69.432C62.1141 69.432 61.7901 69.532 61.5501 69.732C61.3101 69.924 61.1901 70.224 61.1901 70.632V70.968C61.1901 71.376 61.3101 71.68 61.5501 71.88C61.7901 72.072 62.1141 72.168 62.5221 72.168Z" fill="#808085"/>
    <path d="M209.807 13L208.967 10.528H205.583L204.743 13H203.723L206.651 4.624H207.935L210.863 13H209.807ZM207.299 5.56H207.239L205.823 9.64H208.715L207.299 5.56ZM214.015 13.144C213.439 13.144 212.955 13.036 212.563 12.82C212.179 12.596 211.847 12.3 211.567 11.932L212.251 11.38C212.491 11.684 212.759 11.92 213.055 12.088C213.351 12.248 213.695 12.328 214.087 12.328C214.495 12.328 214.811 12.24 215.035 12.064C215.267 11.888 215.383 11.64 215.383 11.32C215.383 11.08 215.303 10.876 215.143 10.708C214.991 10.532 214.711 10.412 214.303 10.348L213.811 10.276C213.523 10.236 213.259 10.176 213.019 10.096C212.779 10.008 212.567 9.896 212.383 9.76C212.207 9.616 212.067 9.44 211.963 9.232C211.867 9.024 211.819 8.776 211.819 8.488C211.819 8.184 211.875 7.92 211.987 7.696C212.099 7.464 212.251 7.272 212.443 7.12C212.643 6.968 212.879 6.856 213.151 6.784C213.423 6.704 213.715 6.664 214.027 6.664C214.531 6.664 214.951 6.752 215.287 6.928C215.631 7.104 215.931 7.348 216.187 7.66L215.551 8.236C215.415 8.044 215.215 7.872 214.951 7.72C214.687 7.56 214.355 7.48 213.955 7.48C213.555 7.48 213.251 7.568 213.043 7.744C212.843 7.912 212.743 8.144 212.743 8.44C212.743 8.744 212.843 8.964 213.043 9.1C213.251 9.236 213.547 9.336 213.931 9.4L214.411 9.472C215.099 9.576 215.587 9.776 215.875 10.072C216.163 10.36 216.307 10.74 216.307 11.212C216.307 11.812 216.103 12.284 215.695 12.628C215.287 12.972 214.727 13.144 214.015 13.144ZM219.792 13.144C219.216 13.144 218.732 13.036 218.34 12.82C217.956 12.596 217.624 12.3 217.344 11.932L218.028 11.38C218.268 11.684 218.536 11.92 218.832 12.088C219.128 12.248 219.472 12.328 219.864 12.328C220.272 12.328 220.588 12.24 220.812 12.064C221.044 11.888 221.16 11.64 221.16 11.32C221.16 11.08 221.08 10.876 220.92 10.708C220.768 10.532 220.488 10.412 220.08 10.348L219.588 10.276C219.3 10.236 219.036 10.176 218.796 10.096C218.556 10.008 218.344 9.896 218.16 9.76C217.984 9.616 217.844 9.44 217.74 9.232C217.644 9.024 217.596 8.776 217.596 8.488C217.596 8.184 217.652 7.92 217.764 7.696C217.876 7.464 218.028 7.272 218.22 7.12C218.42 6.968 218.656 6.856 218.928 6.784C219.2 6.704 219.492 6.664 219.804 6.664C220.308 6.664 220.728 6.752 221.064 6.928C221.408 7.104 221.708 7.348 221.964 7.66L221.328 8.236C221.192 8.044 220.992 7.872 220.728 7.72C220.464 7.56 220.132 7.48 219.732 7.48C219.332 7.48 219.028 7.568 218.82 7.744C218.62 7.912 218.52 8.144 218.52 8.44C218.52 8.744 218.62 8.964 218.82 9.1C219.028 9.236 219.324 9.336 219.708 9.4L220.188 9.472C220.876 9.576 221.364 9.776 221.652 10.072C221.94 10.36 222.084 10.74 222.084 11.212C222.084 11.812 221.88 12.284 221.472 12.628C221.064 12.972 220.504 13.144 219.792 13.144ZM226.108 13.144C225.684 13.144 225.3 13.068 224.956 12.916C224.62 12.764 224.328 12.548 224.08 12.268C223.84 11.98 223.652 11.64 223.516 11.248C223.388 10.848 223.324 10.4 223.324 9.904C223.324 9.416 223.388 8.972 223.516 8.572C223.652 8.172 223.84 7.832 224.08 7.552C224.328 7.264 224.62 7.044 224.956 6.892C225.3 6.74 225.684 6.664 226.108 6.664C226.524 6.664 226.896 6.74 227.224 6.892C227.552 7.044 227.832 7.256 228.064 7.528C228.296 7.792 228.472 8.108 228.592 8.476C228.72 8.844 228.784 9.248 228.784 9.688V10.144H224.332V10.432C224.332 10.696 224.372 10.944 224.452 11.176C224.54 11.4 224.66 11.596 224.812 11.764C224.972 11.932 225.164 12.064 225.388 12.16C225.62 12.256 225.88 12.304 226.168 12.304C226.56 12.304 226.9 12.212 227.188 12.028C227.484 11.844 227.712 11.58 227.872 11.236L228.556 11.728C228.356 12.152 228.044 12.496 227.62 12.76C227.196 13.016 226.692 13.144 226.108 13.144ZM226.108 7.468C225.844 7.468 225.604 7.516 225.388 7.612C225.172 7.7 224.984 7.828 224.824 7.996C224.672 8.164 224.552 8.364 224.464 8.596C224.376 8.82 224.332 9.068 224.332 9.34V9.424H227.752V9.292C227.752 8.74 227.6 8.3 227.296 7.972C227 7.636 226.604 7.468 226.108 7.468ZM231.734 13C231.398 13 231.142 12.908 230.966 12.724C230.798 12.532 230.714 12.284 230.714 11.98V7.648H229.694V6.808H230.27C230.478 6.808 230.618 6.768 230.69 6.688C230.77 6.6 230.81 6.452 230.81 6.244V5.092H231.674V6.808H233.03V7.648H231.674V12.16H232.934V13H231.734Z" fill="#808085"/>
    <path d="M190.982 249.944H190.922L190.214 251.348L188.21 254.996L186.206 251.348L185.498 249.944H185.438V257H184.454V248.624H185.798L188.198 253.136H188.258L190.67 248.624H191.966V257H190.982V249.944ZM198.596 257C198.236 257 197.976 256.904 197.816 256.712C197.664 256.52 197.568 256.28 197.528 255.992H197.468C197.332 256.376 197.108 256.664 196.796 256.856C196.484 257.048 196.112 257.144 195.68 257.144C195.024 257.144 194.512 256.976 194.144 256.64C193.784 256.304 193.604 255.848 193.604 255.272C193.604 254.688 193.816 254.24 194.24 253.928C194.672 253.616 195.34 253.46 196.244 253.46H197.468V252.848C197.468 252.408 197.348 252.072 197.108 251.84C196.868 251.608 196.5 251.492 196.004 251.492C195.628 251.492 195.312 251.576 195.056 251.744C194.808 251.912 194.6 252.136 194.432 252.416L193.856 251.876C194.024 251.54 194.292 251.256 194.66 251.024C195.028 250.784 195.492 250.664 196.052 250.664C196.804 250.664 197.388 250.848 197.804 251.216C198.22 251.584 198.428 252.096 198.428 252.752V256.16H199.136V257H198.596ZM195.836 256.328C196.076 256.328 196.296 256.3 196.496 256.244C196.696 256.188 196.868 256.108 197.012 256.004C197.156 255.9 197.268 255.78 197.348 255.644C197.428 255.508 197.468 255.36 197.468 255.2V254.18H196.196C195.644 254.18 195.24 254.26 194.984 254.42C194.736 254.58 194.612 254.812 194.612 255.116V255.368C194.612 255.672 194.72 255.908 194.936 256.076C195.16 256.244 195.46 256.328 195.836 256.328ZM200.506 257V250.808H201.466V251.816H201.514C201.666 251.464 201.878 251.184 202.15 250.976C202.43 250.768 202.802 250.664 203.266 250.664C203.906 250.664 204.41 250.872 204.778 251.288C205.154 251.696 205.342 252.276 205.342 253.028V257H204.382V253.196C204.382 252.084 203.914 251.528 202.978 251.528C202.786 251.528 202.598 251.552 202.414 251.6C202.238 251.648 202.078 251.72 201.934 251.816C201.79 251.912 201.674 252.036 201.586 252.188C201.506 252.332 201.466 252.504 201.466 252.704V257H200.506ZM211.827 257C211.467 257 211.207 256.904 211.047 256.712C210.895 256.52 210.799 256.28 210.759 255.992H210.699C210.563 256.376 210.339 256.664 210.027 256.856C209.715 257.048 209.343 257.144 208.911 257.144C208.255 257.144 207.743 256.976 207.375 256.64C207.015 256.304 206.835 255.848 206.835 255.272C206.835 254.688 207.047 254.24 207.471 253.928C207.903 253.616 208.571 253.46 209.475 253.46H210.699V252.848C210.699 252.408 210.579 252.072 210.339 251.84C210.099 251.608 209.731 251.492 209.235 251.492C208.859 251.492 208.543 251.576 208.287 251.744C208.039 251.912 207.831 252.136 207.663 252.416L207.087 251.876C207.255 251.54 207.523 251.256 207.891 251.024C208.259 250.784 208.723 250.664 209.283 250.664C210.035 250.664 210.619 250.848 211.035 251.216C211.451 251.584 211.659 252.096 211.659 252.752V256.16H212.367V257H211.827ZM209.067 256.328C209.307 256.328 209.527 256.3 209.727 256.244C209.927 256.188 210.099 256.108 210.243 256.004C210.387 255.9 210.499 255.78 210.579 255.644C210.659 255.508 210.699 255.36 210.699 255.2V254.18H209.427C208.875 254.18 208.471 254.26 208.215 254.42C207.967 254.58 207.843 254.812 207.843 255.116V255.368C207.843 255.672 207.951 255.908 208.167 256.076C208.391 256.244 208.691 256.328 209.067 256.328ZM218.957 257.684C218.957 258.324 218.705 258.792 218.201 259.088C217.705 259.392 216.957 259.544 215.957 259.544C214.989 259.544 214.293 259.412 213.869 259.148C213.445 258.884 213.233 258.508 213.233 258.02C213.233 257.684 213.321 257.42 213.497 257.228C213.673 257.044 213.913 256.908 214.217 256.82V256.688C213.849 256.512 213.665 256.224 213.665 255.824C213.665 255.512 213.765 255.276 213.965 255.116C214.165 254.948 214.421 254.824 214.733 254.744V254.696C214.365 254.52 214.077 254.268 213.869 253.94C213.669 253.612 213.569 253.232 213.569 252.8C213.569 252.488 213.625 252.2 213.737 251.936C213.849 251.672 214.005 251.448 214.205 251.264C214.413 251.072 214.657 250.924 214.937 250.82C215.225 250.716 215.545 250.664 215.897 250.664C216.337 250.664 216.729 250.744 217.073 250.904V250.796C217.073 250.556 217.129 250.36 217.241 250.208C217.353 250.048 217.537 249.968 217.793 249.968H218.717V250.808H217.541V251.204C217.765 251.396 217.937 251.628 218.057 251.9C218.185 252.164 218.249 252.464 218.249 252.8C218.249 253.112 218.193 253.4 218.081 253.664C217.969 253.928 217.809 254.156 217.601 254.348C217.401 254.532 217.157 254.676 216.869 254.78C216.581 254.884 216.261 254.936 215.909 254.936C215.709 254.936 215.509 254.916 215.309 254.876C215.101 254.932 214.913 255.016 214.745 255.128C214.577 255.232 214.493 255.38 214.493 255.572C214.493 255.756 214.581 255.88 214.757 255.944C214.933 256.008 215.161 256.04 215.441 256.04H216.761C217.529 256.04 218.085 256.188 218.429 256.484C218.781 256.772 218.957 257.172 218.957 257.684ZM218.057 257.756C218.057 257.508 217.961 257.308 217.769 257.156C217.585 257.012 217.253 256.94 216.773 256.94H214.709C214.325 257.116 214.133 257.396 214.133 257.78C214.133 258.052 214.233 258.284 214.433 258.476C214.641 258.668 214.989 258.764 215.477 258.764H216.365C216.901 258.764 217.317 258.68 217.613 258.512C217.909 258.344 218.057 258.092 218.057 257.756ZM215.909 254.168C216.317 254.168 216.641 254.072 216.881 253.88C217.121 253.68 217.241 253.376 217.241 252.968V252.632C217.241 252.224 217.121 251.924 216.881 251.732C216.641 251.532 216.317 251.432 215.909 251.432C215.501 251.432 215.177 251.532 214.937 251.732C214.697 251.924 214.577 252.224 214.577 252.632V252.968C214.577 253.376 214.697 253.68 214.937 253.88C215.177 254.072 215.501 254.168 215.909 254.168ZM222.334 257.144C221.91 257.144 221.526 257.068 221.182 256.916C220.846 256.764 220.554 256.548 220.306 256.268C220.066 255.98 219.878 255.64 219.742 255.248C219.614 254.848 219.55 254.4 219.55 253.904C219.55 253.416 219.614 252.972 219.742 252.572C219.878 252.172 220.066 251.832 220.306 251.552C220.554 251.264 220.846 251.044 221.182 250.892C221.526 250.74 221.91 250.664 222.334 250.664C222.75 250.664 223.122 250.74 223.45 250.892C223.778 251.044 224.058 251.256 224.29 251.528C224.522 251.792 224.698 252.108 224.818 252.476C224.946 252.844 225.01 253.248 225.01 253.688V254.144H220.558V254.432C220.558 254.696 220.598 254.944 220.678 255.176C220.766 255.4 220.886 255.596 221.038 255.764C221.198 255.932 221.39 256.064 221.614 256.16C221.846 256.256 222.106 256.304 222.394 256.304C222.786 256.304 223.126 256.212 223.414 256.028C223.71 255.844 223.938 255.58 224.098 255.236L224.782 255.728C224.582 256.152 224.27 256.496 223.846 256.76C223.422 257.016 222.918 257.144 222.334 257.144ZM222.334 251.468C222.07 251.468 221.83 251.516 221.614 251.612C221.398 251.7 221.21 251.828 221.05 251.996C220.898 252.164 220.778 252.364 220.69 252.596C220.602 252.82 220.558 253.068 220.558 253.34V253.424H223.978V253.292C223.978 252.74 223.826 252.3 223.522 251.972C223.226 251.636 222.83 251.468 222.334 251.468ZM226.592 257V250.808H227.552V251.816H227.6C227.672 251.656 227.752 251.508 227.84 251.372C227.936 251.228 228.048 251.104 228.176 251C228.312 250.896 228.468 250.816 228.644 250.76C228.82 250.696 229.028 250.664 229.268 250.664C229.676 250.664 230.052 250.764 230.396 250.964C230.74 251.156 230.996 251.476 231.164 251.924H231.188C231.3 251.588 231.508 251.296 231.812 251.048C232.124 250.792 232.544 250.664 233.072 250.664C233.704 250.664 234.196 250.872 234.548 251.288C234.908 251.696 235.088 252.276 235.088 253.028V257H234.128V253.196C234.128 252.644 234.02 252.228 233.804 251.948C233.588 251.668 233.244 251.528 232.772 251.528C232.58 251.528 232.396 251.552 232.22 251.6C232.052 251.648 231.9 251.72 231.764 251.816C231.628 251.912 231.52 252.036 231.44 252.188C231.36 252.332 231.32 252.504 231.32 252.704V257H230.36V253.196C230.36 252.644 230.252 252.228 230.036 251.948C229.82 251.668 229.484 251.528 229.028 251.528C228.836 251.528 228.652 251.552 228.476 251.6C228.3 251.648 228.144 251.72 228.008 251.816C227.872 251.912 227.76 252.036 227.672 252.188C227.592 252.332 227.552 252.504 227.552 252.704V257H226.592ZM239.397 257.144C238.973 257.144 238.589 257.068 238.245 256.916C237.909 256.764 237.617 256.548 237.369 256.268C237.129 255.98 236.941 255.64 236.805 255.248C236.677 254.848 236.613 254.4 236.613 253.904C236.613 253.416 236.677 252.972 236.805 252.572C236.941 252.172 237.129 251.832 237.369 251.552C237.617 251.264 237.909 251.044 238.245 250.892C238.589 250.74 238.973 250.664 239.397 250.664C239.813 250.664 240.185 250.74 240.513 250.892C240.841 251.044 241.121 251.256 241.353 251.528C241.585 251.792 241.761 252.108 241.881 252.476C242.009 252.844 242.073 253.248 242.073 253.688V254.144H237.621V254.432C237.621 254.696 237.661 254.944 237.741 255.176C237.829 255.4 237.949 255.596 238.101 255.764C238.261 255.932 238.453 256.064 238.677 256.16C238.909 256.256 239.169 256.304 239.457 256.304C239.849 256.304 240.189 256.212 240.477 256.028C240.773 255.844 241.001 255.58 241.161 255.236L241.845 255.728C241.645 256.152 241.333 256.496 240.909 256.76C240.485 257.016 239.981 257.144 239.397 257.144ZM239.397 251.468C239.133 251.468 238.893 251.516 238.677 251.612C238.461 251.7 238.273 251.828 238.113 251.996C237.961 252.164 237.841 252.364 237.753 252.596C237.665 252.82 237.621 253.068 237.621 253.34V253.424H241.041V253.292C241.041 252.74 240.889 252.3 240.585 251.972C240.289 251.636 239.893 251.468 239.397 251.468ZM243.655 257V250.808H244.615V251.816H244.663C244.815 251.464 245.027 251.184 245.299 250.976C245.579 250.768 245.951 250.664 246.415 250.664C247.055 250.664 247.559 250.872 247.927 251.288C248.303 251.696 248.491 252.276 248.491 253.028V257H247.531V253.196C247.531 252.084 247.063 251.528 246.127 251.528C245.935 251.528 245.747 251.552 245.563 251.6C245.387 251.648 245.227 251.72 245.083 251.816C244.939 251.912 244.823 252.036 244.735 252.188C244.655 252.332 244.615 252.504 244.615 252.704V257H243.655ZM251.843 257C251.507 257 251.251 256.908 251.075 256.724C250.907 256.532 250.823 256.284 250.823 255.98V251.648H249.803V250.808H250.379C250.587 250.808 250.727 250.768 250.799 250.688C250.879 250.6 250.919 250.452 250.919 250.244V249.092H251.783V250.808H253.139V251.648H251.783V256.16H253.043V257H251.843Z" fill="#808085"/>
    <path d="M368.687 74.144C368.007 74.144 367.427 74.016 366.947 73.76C366.467 73.496 366.059 73.136 365.723 72.68L366.467 72.056C366.763 72.448 367.091 72.748 367.451 72.956C367.811 73.156 368.235 73.256 368.723 73.256C369.323 73.256 369.779 73.112 370.091 72.824C370.411 72.536 370.571 72.152 370.571 71.672C370.571 71.272 370.451 70.964 370.211 70.748C369.971 70.532 369.575 70.36 369.023 70.232L368.339 70.076C367.571 69.9 366.983 69.636 366.575 69.284C366.175 68.924 365.975 68.42 365.975 67.772C365.975 67.404 366.043 67.076 366.179 66.788C366.315 66.5 366.503 66.26 366.743 66.068C366.991 65.876 367.283 65.732 367.619 65.636C367.963 65.532 368.339 65.48 368.747 65.48C369.379 65.48 369.919 65.596 370.367 65.828C370.823 66.06 371.207 66.4 371.519 66.848L370.763 67.4C370.531 67.08 370.251 66.828 369.923 66.644C369.595 66.46 369.187 66.368 368.699 66.368C368.163 66.368 367.739 66.484 367.427 66.716C367.123 66.94 366.971 67.28 366.971 67.736C366.971 68.136 367.099 68.44 367.355 68.648C367.619 68.848 368.015 69.008 368.543 69.128L369.227 69.284C370.051 69.468 370.647 69.748 371.015 70.124C371.383 70.5 371.567 71 371.567 71.624C371.567 72.008 371.499 72.356 371.363 72.668C371.235 72.98 371.047 73.244 370.799 73.46C370.551 73.676 370.247 73.844 369.887 73.964C369.535 74.084 369.135 74.144 368.687 74.144ZM373.211 74V67.808H374.171V68.816H374.219C374.291 68.656 374.371 68.508 374.459 68.372C374.555 68.228 374.667 68.104 374.795 68C374.931 67.896 375.087 67.816 375.263 67.76C375.439 67.696 375.647 67.664 375.887 67.664C376.295 67.664 376.671 67.764 377.015 67.964C377.359 68.156 377.615 68.476 377.783 68.924H377.807C377.919 68.588 378.127 68.296 378.431 68.048C378.743 67.792 379.163 67.664 379.691 67.664C380.323 67.664 380.815 67.872 381.167 68.288C381.527 68.696 381.707 69.276 381.707 70.028V74H380.747V70.196C380.747 69.644 380.639 69.228 380.423 68.948C380.207 68.668 379.863 68.528 379.391 68.528C379.199 68.528 379.015 68.552 378.839 68.6C378.671 68.648 378.519 68.72 378.383 68.816C378.247 68.912 378.139 69.036 378.059 69.188C377.979 69.332 377.939 69.504 377.939 69.704V74H376.979V70.196C376.979 69.644 376.871 69.228 376.655 68.948C376.439 68.668 376.103 68.528 375.647 68.528C375.455 68.528 375.271 68.552 375.095 68.6C374.919 68.648 374.763 68.72 374.627 68.816C374.491 68.912 374.379 69.036 374.291 69.188C374.211 69.332 374.171 69.504 374.171 69.704V74H373.211ZM388.188 74C387.828 74 387.568 73.904 387.408 73.712C387.256 73.52 387.16 73.28 387.12 72.992H387.06C386.924 73.376 386.7 73.664 386.388 73.856C386.076 74.048 385.704 74.144 385.272 74.144C384.616 74.144 384.104 73.976 383.736 73.64C383.376 73.304 383.196 72.848 383.196 72.272C383.196 71.688 383.408 71.24 383.832 70.928C384.264 70.616 384.932 70.46 385.836 70.46H387.06V69.848C387.06 69.408 386.94 69.072 386.7 68.84C386.46 68.608 386.092 68.492 385.596 68.492C385.22 68.492 384.904 68.576 384.648 68.744C384.4 68.912 384.192 69.136 384.024 69.416L383.448 68.876C383.616 68.54 383.884 68.256 384.252 68.024C384.62 67.784 385.084 67.664 385.644 67.664C386.396 67.664 386.98 67.848 387.396 68.216C387.812 68.584 388.02 69.096 388.02 69.752V73.16H388.728V74H388.188ZM385.428 73.328C385.668 73.328 385.888 73.3 386.088 73.244C386.288 73.188 386.46 73.108 386.604 73.004C386.748 72.9 386.86 72.78 386.94 72.644C387.02 72.508 387.06 72.36 387.06 72.2V71.18H385.788C385.236 71.18 384.832 71.26 384.576 71.42C384.328 71.58 384.204 71.812 384.204 72.116V72.368C384.204 72.672 384.312 72.908 384.528 73.076C384.752 73.244 385.052 73.328 385.428 73.328ZM390.098 74V67.808H391.058V68.948H391.118C391.23 68.652 391.43 68.388 391.718 68.156C392.006 67.924 392.402 67.808 392.906 67.808H393.278V68.768H392.714C392.194 68.768 391.786 68.868 391.49 69.068C391.202 69.26 391.058 69.504 391.058 69.8V74H390.098ZM395.919 74C395.583 74 395.327 73.908 395.151 73.724C394.983 73.532 394.899 73.284 394.899 72.98V68.648H393.879V67.808H394.455C394.663 67.808 394.803 67.768 394.875 67.688C394.955 67.6 394.995 67.452 394.995 67.244V66.092H395.859V67.808H397.215V68.648H395.859V73.16H397.119V74H395.919ZM404.642 74.144C403.578 74.144 402.75 73.784 402.158 73.064C401.566 72.336 401.27 71.268 401.27 69.86C401.27 68.452 401.566 67.372 402.158 66.62C402.75 65.86 403.578 65.48 404.642 65.48C405.346 65.48 405.934 65.64 406.406 65.96C406.886 66.28 407.258 66.732 407.522 67.316L406.706 67.808C406.538 67.376 406.282 67.032 405.938 66.776C405.594 66.512 405.162 66.38 404.642 66.38C404.282 66.38 403.958 66.448 403.67 66.584C403.39 66.72 403.15 66.916 402.95 67.172C402.758 67.42 402.61 67.72 402.506 68.072C402.402 68.416 402.35 68.804 402.35 69.236V70.484C402.35 71.348 402.55 72.024 402.95 72.512C403.35 73 403.914 73.244 404.642 73.244C405.178 73.244 405.626 73.108 405.986 72.836C406.346 72.556 406.61 72.188 406.778 71.732L407.582 72.236C407.318 72.828 406.938 73.296 406.442 73.64C405.946 73.976 405.346 74.144 404.642 74.144ZM411.387 74.144C410.971 74.144 410.591 74.068 410.247 73.916C409.903 73.764 409.607 73.548 409.359 73.268C409.119 72.98 408.931 72.64 408.795 72.248C408.659 71.848 408.591 71.4 408.591 70.904C408.591 70.416 408.659 69.972 408.795 69.572C408.931 69.172 409.119 68.832 409.359 68.552C409.607 68.264 409.903 68.044 410.247 67.892C410.591 67.74 410.971 67.664 411.387 67.664C411.803 67.664 412.179 67.74 412.515 67.892C412.859 68.044 413.155 68.264 413.403 68.552C413.651 68.832 413.843 69.172 413.979 69.572C414.115 69.972 414.183 70.416 414.183 70.904C414.183 71.4 414.115 71.848 413.979 72.248C413.843 72.64 413.651 72.98 413.403 73.268C413.155 73.548 412.859 73.764 412.515 73.916C412.179 74.068 411.803 74.144 411.387 74.144ZM411.387 73.292C411.907 73.292 412.331 73.132 412.659 72.812C412.987 72.492 413.151 72.004 413.151 71.348V70.46C413.151 69.804 412.987 69.316 412.659 68.996C412.331 68.676 411.907 68.516 411.387 68.516C410.867 68.516 410.443 68.676 410.115 68.996C409.787 69.316 409.623 69.804 409.623 70.46V71.348C409.623 72.004 409.787 72.492 410.115 72.812C410.443 73.132 410.867 73.292 411.387 73.292ZM415.762 74V67.808H416.722V68.816H416.77C416.922 68.464 417.134 68.184 417.406 67.976C417.686 67.768 418.058 67.664 418.522 67.664C419.162 67.664 419.666 67.872 420.034 68.288C420.41 68.696 420.598 69.276 420.598 70.028V74H419.638V70.196C419.638 69.084 419.17 68.528 418.234 68.528C418.042 68.528 417.854 68.552 417.67 68.6C417.494 68.648 417.334 68.72 417.19 68.816C417.046 68.912 416.93 69.036 416.842 69.188C416.762 69.332 416.722 69.504 416.722 69.704V74H415.762ZM423.951 74C423.615 74 423.359 73.908 423.183 73.724C423.015 73.532 422.931 73.284 422.931 72.98V68.648H421.911V67.808H422.487C422.695 67.808 422.835 67.768 422.907 67.688C422.987 67.6 423.027 67.452 423.027 67.244V66.092H423.891V67.808H425.247V68.648H423.891V73.16H425.151V74H423.951ZM426.79 74V67.808H427.75V68.948H427.81C427.922 68.652 428.122 68.388 428.41 68.156C428.698 67.924 429.094 67.808 429.598 67.808H429.97V68.768H429.406C428.886 68.768 428.478 68.868 428.182 69.068C427.894 69.26 427.75 69.504 427.75 69.8V74H426.79ZM435.649 74C435.289 74 435.029 73.904 434.869 73.712C434.717 73.52 434.621 73.28 434.581 72.992H434.521C434.385 73.376 434.161 73.664 433.849 73.856C433.537 74.048 433.165 74.144 432.733 74.144C432.077 74.144 431.565 73.976 431.197 73.64C430.837 73.304 430.657 72.848 430.657 72.272C430.657 71.688 430.869 71.24 431.293 70.928C431.725 70.616 432.393 70.46 433.297 70.46H434.521V69.848C434.521 69.408 434.401 69.072 434.161 68.84C433.921 68.608 433.553 68.492 433.057 68.492C432.681 68.492 432.365 68.576 432.109 68.744C431.861 68.912 431.653 69.136 431.485 69.416L430.909 68.876C431.077 68.54 431.345 68.256 431.713 68.024C432.081 67.784 432.545 67.664 433.105 67.664C433.857 67.664 434.441 67.848 434.857 68.216C435.273 68.584 435.481 69.096 435.481 69.752V73.16H436.189V74H435.649ZM432.889 73.328C433.129 73.328 433.349 73.3 433.549 73.244C433.749 73.188 433.921 73.108 434.065 73.004C434.209 72.9 434.321 72.78 434.401 72.644C434.481 72.508 434.521 72.36 434.521 72.2V71.18H433.249C432.697 71.18 432.293 71.26 432.037 71.42C431.789 71.58 431.665 71.812 431.665 72.116V72.368C431.665 72.672 431.773 72.908 431.989 73.076C432.213 73.244 432.513 73.328 432.889 73.328ZM439.863 74.144C439.431 74.144 439.043 74.068 438.699 73.916C438.355 73.764 438.063 73.548 437.823 73.268C437.591 72.988 437.411 72.648 437.283 72.248C437.163 71.848 437.103 71.4 437.103 70.904C437.103 70.408 437.163 69.96 437.283 69.56C437.411 69.16 437.591 68.82 437.823 68.54C438.063 68.26 438.355 68.044 438.699 67.892C439.043 67.74 439.431 67.664 439.863 67.664C440.479 67.664 440.971 67.8 441.339 68.072C441.715 68.336 441.995 68.684 442.179 69.116L441.375 69.524C441.263 69.204 441.079 68.956 440.823 68.78C440.567 68.604 440.247 68.516 439.863 68.516C439.575 68.516 439.323 68.564 439.107 68.66C438.891 68.748 438.711 68.876 438.567 69.044C438.423 69.204 438.315 69.4 438.243 69.632C438.171 69.856 438.135 70.104 438.135 70.376V71.432C438.135 71.976 438.279 72.424 438.567 72.776C438.863 73.12 439.295 73.292 439.863 73.292C440.639 73.292 441.199 72.932 441.543 72.212L442.239 72.68C442.039 73.128 441.739 73.484 441.339 73.748C440.947 74.012 440.455 74.144 439.863 74.144ZM444.962 74C444.626 74 444.37 73.908 444.194 73.724C444.026 73.532 443.942 73.284 443.942 72.98V68.648H442.922V67.808H443.498C443.706 67.808 443.846 67.768 443.918 67.688C443.998 67.6 444.038 67.452 444.038 67.244V66.092H444.902V67.808H446.258V68.648H444.902V73.16H446.162V74H444.962Z" fill="#808085"/>
    <path d="M350 130H319.868M350 130L345 136M350 130L345 124M319.868 130C309.927 130 301.868 121.941 301.868 112V85C301.868 67.3269 287.542 53 269.868 53L239 53M319.868 130C309.927 130 301.869 138.059 301.869 148V175C301.869 192.673 287.542 207 269.869 207H239" stroke="url(#paint3_linear_15160_14723)" stroke-linecap="round"/>
    <path d="M390 110.619H422M390 130H422M390 149.381H406M381.111 167H430.889C434.816 167 438 163.845 438 159.952V100.048C438 96.1553 434.816 93 430.889 93H381.111C377.184 93 374 96.1553 374 100.048V159.952C374 163.845 377.184 167 381.111 167Z" stroke="url(#paint4_linear_15160_14723)" stroke-linecap="round" stroke-linejoin="round"/>
    <path fill-rule="evenodd" clip-rule="evenodd" d="M219 228C230.598 228 240 218.598 240 207C240 195.402 230.598 186 219 186C207.402 186 198 195.402 198 207C198 218.598 207.402 228 219 228ZM214 198C214 196.896 214.895 196 216 196H222C223.105 196 224 196.896 224 198V199H214V198ZM226 198V199H227C229.761 199 232 201.239 232 204V208.417V209.417V214C232 216.761 229.761 219 227 219H211C208.239 219 206 216.761 206 214V209.417V208.417V204C206 201.239 208.239 199 211 199H212V198C212 195.791 213.791 194 216 194H222C224.209 194 226 195.791 226 198ZM227 201C228.657 201 230 202.343 230 204V207.417H220V206.5C220 205.948 219.552 205.5 219 205.5C218.448 205.5 218 205.948 218 206.5V207.417H208V204C208 202.343 209.343 201 211 201H227ZM220 209.417H230V214C230 215.657 228.657 217 227 217H211C209.343 217 208 215.657 208 214V209.417H218V210C218 210.552 218.448 211 219 211C219.552 211 220 210.552 220 210V209.417Z" fill="#05C46B"/>
    <path fill-rule="evenodd" clip-rule="evenodd" d="M219 74C230.598 74 240 64.598 240 53C240 41.402 230.598 32 219 32C207.402 32 198 41.402 198 53C198 64.598 207.402 74 219 74ZM219.882 41.625C219.882 41.0727 219.434 40.625 218.882 40.625C218.33 40.625 217.882 41.0727 217.882 41.625V44.2174H213.773C211.175 44.2174 209.25 46.5324 209.25 49.1507C209.25 51.7689 211.175 54.0839 213.773 54.0839H223.427C224.678 54.0839 225.875 55.2534 225.875 56.9335C225.875 58.6137 224.678 59.7831 223.427 59.7831H210.703C210.151 59.7831 209.703 60.2309 209.703 60.7831C209.703 61.3354 210.151 61.7831 210.703 61.7831H217.882V64.375C217.882 64.9273 218.33 65.375 218.882 65.375C219.434 65.375 219.882 64.9273 219.882 64.375V61.7831H223.427C225.984 61.7831 227.875 59.5056 227.875 56.9335C227.875 54.3615 225.984 52.0839 223.427 52.0839H213.773C212.48 52.0839 211.25 50.877 211.25 49.1507C211.25 47.4243 212.48 46.2174 213.773 46.2174H226.573C227.125 46.2174 227.573 45.7696 227.573 45.2174C227.573 44.6651 227.125 44.2174 226.573 44.2174H219.882V41.625Z" fill="#05C46B"/>
    <defs>
        <linearGradient id="paint0_linear_15160_14723" x1="60.8" y1="205.484" x2="-31.3167" y2="176.399" gradientUnits="userSpaceOnUse">
            <stop stop-color="#05C46B"/>
            <stop offset="0.34375" stop-color="#018346"/>
            <stop offset="0.6875" stop-color="#3FFDA5"/>
            <stop offset="1" stop-color="#05C46B"/>
        </linearGradient>
        <linearGradient id="paint1_linear_15160_14723" x1="185" y1="172.226" x2="56.7374" y2="114.601" gradientUnits="userSpaceOnUse">
            <stop stop-color="#05C46B"/>
            <stop offset="0.34375" stop-color="#018346"/>
            <stop offset="0.6875" stop-color="#3FFDA5"/>
            <stop offset="1" stop-color="#05C46B"/>
        </linearGradient>
        <linearGradient id="paint2_linear_15160_14723" x1="185" y1="87.7742" x2="56.7374" y2="145.399" gradientUnits="userSpaceOnUse">
            <stop stop-color="#05C46B"/>
            <stop offset="0.34375" stop-color="#018346"/>
            <stop offset="0.6875" stop-color="#3FFDA5"/>
            <stop offset="1" stop-color="#05C46B"/>
        </linearGradient>
        <linearGradient id="paint3_linear_15160_14723" x1="335.2" y1="291.452" x2="180.939" y2="254.819" gradientUnits="userSpaceOnUse">
            <stop stop-color="#05C46B"/>
            <stop offset="0.34375" stop-color="#018346"/>
            <stop offset="0.6875" stop-color="#3FFDA5"/>
            <stop offset="1" stop-color="#05C46B"/>
        </linearGradient>
        <linearGradient id="paint4_linear_15160_14723" x1="429.467" y1="207.581" x2="342.563" y2="182.818" gradientUnits="userSpaceOnUse">
            <stop stop-color="#05C46B"/>
            <stop offset="0.34375" stop-color="#018346"/>
            <stop offset="0.6875" stop-color="#3FFDA5"/>
            <stop offset="1" stop-color="#05C46B"/>
        </linearGradient>
    </defs>
</svg>
