<svg width="454" height="259" viewBox="0 0 454 259" fill="none" xmlns="http://www.w3.org/2000/svg">
    <path d="M101.687 89.144C101.007 89.144 100.427 89.016 99.9468 88.76C99.4668 88.496 99.0588 88.136 98.7228 87.68L99.4668 87.056C99.7628 87.448 100.091 87.748 100.451 87.956C100.811 88.156 101.235 88.256 101.723 88.256C102.323 88.256 102.779 88.112 103.091 87.824C103.411 87.536 103.571 87.152 103.571 86.672C103.571 86.272 103.451 85.964 103.211 85.748C102.971 85.532 102.575 85.36 102.023 85.232L101.339 85.076C100.571 84.9 99.9828 84.636 99.5748 84.284C99.1748 83.924 98.9748 83.42 98.9748 82.772C98.9748 82.404 99.0428 82.076 99.1788 81.788C99.3148 81.5 99.5028 81.26 99.7428 81.068C99.9908 80.876 100.283 80.732 100.619 80.636C100.963 80.532 101.339 80.48 101.747 80.48C102.379 80.48 102.919 80.596 103.367 80.828C103.823 81.06 104.207 81.4 104.519 81.848L103.763 82.4C103.531 82.08 103.251 81.828 102.923 81.644C102.595 81.46 102.187 81.368 101.699 81.368C101.163 81.368 100.739 81.484 100.427 81.716C100.123 81.94 99.9708 82.28 99.9708 82.736C99.9708 83.136 100.099 83.44 100.355 83.648C100.619 83.848 101.015 84.008 101.543 84.128L102.227 84.284C103.051 84.468 103.647 84.748 104.015 85.124C104.383 85.5 104.567 86 104.567 86.624C104.567 87.008 104.499 87.356 104.363 87.668C104.235 87.98 104.047 88.244 103.799 88.46C103.551 88.676 103.247 88.844 102.887 88.964C102.535 89.084 102.135 89.144 101.687 89.144ZM106.211 89V82.808H107.171V83.816H107.219C107.291 83.656 107.371 83.508 107.459 83.372C107.555 83.228 107.667 83.104 107.795 83C107.931 82.896 108.087 82.816 108.263 82.76C108.439 82.696 108.647 82.664 108.887 82.664C109.295 82.664 109.671 82.764 110.015 82.964C110.359 83.156 110.615 83.476 110.783 83.924H110.807C110.919 83.588 111.127 83.296 111.431 83.048C111.743 82.792 112.163 82.664 112.691 82.664C113.323 82.664 113.815 82.872 114.167 83.288C114.527 83.696 114.707 84.276 114.707 85.028V89H113.747V85.196C113.747 84.644 113.639 84.228 113.423 83.948C113.207 83.668 112.863 83.528 112.391 83.528C112.199 83.528 112.015 83.552 111.839 83.6C111.671 83.648 111.519 83.72 111.383 83.816C111.247 83.912 111.139 84.036 111.059 84.188C110.979 84.332 110.939 84.504 110.939 84.704V89H109.979V85.196C109.979 84.644 109.871 84.228 109.655 83.948C109.439 83.668 109.103 83.528 108.647 83.528C108.455 83.528 108.271 83.552 108.095 83.6C107.919 83.648 107.763 83.72 107.627 83.816C107.491 83.912 107.379 84.036 107.291 84.188C107.211 84.332 107.171 84.504 107.171 84.704V89H106.211ZM121.188 89C120.828 89 120.568 88.904 120.408 88.712C120.256 88.52 120.16 88.28 120.12 87.992H120.06C119.924 88.376 119.7 88.664 119.388 88.856C119.076 89.048 118.704 89.144 118.272 89.144C117.616 89.144 117.104 88.976 116.736 88.64C116.376 88.304 116.196 87.848 116.196 87.272C116.196 86.688 116.408 86.24 116.832 85.928C117.264 85.616 117.932 85.46 118.836 85.46H120.06V84.848C120.06 84.408 119.94 84.072 119.7 83.84C119.46 83.608 119.092 83.492 118.596 83.492C118.22 83.492 117.904 83.576 117.648 83.744C117.4 83.912 117.192 84.136 117.024 84.416L116.448 83.876C116.616 83.54 116.884 83.256 117.252 83.024C117.62 82.784 118.084 82.664 118.644 82.664C119.396 82.664 119.98 82.848 120.396 83.216C120.812 83.584 121.02 84.096 121.02 84.752V88.16H121.728V89H121.188ZM118.428 88.328C118.668 88.328 118.888 88.3 119.088 88.244C119.288 88.188 119.46 88.108 119.604 88.004C119.748 87.9 119.86 87.78 119.94 87.644C120.02 87.508 120.06 87.36 120.06 87.2V86.18H118.788C118.236 86.18 117.832 86.26 117.576 86.42C117.328 86.58 117.204 86.812 117.204 87.116V87.368C117.204 87.672 117.312 87.908 117.528 88.076C117.752 88.244 118.052 88.328 118.428 88.328ZM123.098 89V82.808H124.058V83.948H124.118C124.23 83.652 124.43 83.388 124.718 83.156C125.006 82.924 125.402 82.808 125.906 82.808H126.278V83.768H125.714C125.194 83.768 124.786 83.868 124.49 84.068C124.202 84.26 124.058 84.504 124.058 84.8V89H123.098ZM128.919 89C128.583 89 128.327 88.908 128.151 88.724C127.983 88.532 127.899 88.284 127.899 87.98V83.648H126.879V82.808H127.455C127.663 82.808 127.803 82.768 127.875 82.688C127.955 82.6 127.995 82.452 127.995 82.244V81.092H128.859V82.808H130.215V83.648H128.859V88.16H130.119V89H128.919ZM137.642 89.144C136.578 89.144 135.75 88.784 135.158 88.064C134.566 87.336 134.27 86.268 134.27 84.86C134.27 83.452 134.566 82.372 135.158 81.62C135.75 80.86 136.578 80.48 137.642 80.48C138.346 80.48 138.934 80.64 139.406 80.96C139.886 81.28 140.258 81.732 140.522 82.316L139.706 82.808C139.538 82.376 139.282 82.032 138.938 81.776C138.594 81.512 138.162 81.38 137.642 81.38C137.282 81.38 136.958 81.448 136.67 81.584C136.39 81.72 136.15 81.916 135.95 82.172C135.758 82.42 135.61 82.72 135.506 83.072C135.402 83.416 135.35 83.804 135.35 84.236V85.484C135.35 86.348 135.55 87.024 135.95 87.512C136.35 88 136.914 88.244 137.642 88.244C138.178 88.244 138.626 88.108 138.986 87.836C139.346 87.556 139.61 87.188 139.778 86.732L140.582 87.236C140.318 87.828 139.938 88.296 139.442 88.64C138.946 88.976 138.346 89.144 137.642 89.144ZM144.387 89.144C143.971 89.144 143.591 89.068 143.247 88.916C142.903 88.764 142.607 88.548 142.359 88.268C142.119 87.98 141.931 87.64 141.795 87.248C141.659 86.848 141.591 86.4 141.591 85.904C141.591 85.416 141.659 84.972 141.795 84.572C141.931 84.172 142.119 83.832 142.359 83.552C142.607 83.264 142.903 83.044 143.247 82.892C143.591 82.74 143.971 82.664 144.387 82.664C144.803 82.664 145.179 82.74 145.515 82.892C145.859 83.044 146.155 83.264 146.403 83.552C146.651 83.832 146.843 84.172 146.979 84.572C147.115 84.972 147.183 85.416 147.183 85.904C147.183 86.4 147.115 86.848 146.979 87.248C146.843 87.64 146.651 87.98 146.403 88.268C146.155 88.548 145.859 88.764 145.515 88.916C145.179 89.068 144.803 89.144 144.387 89.144ZM144.387 88.292C144.907 88.292 145.331 88.132 145.659 87.812C145.987 87.492 146.151 87.004 146.151 86.348V85.46C146.151 84.804 145.987 84.316 145.659 83.996C145.331 83.676 144.907 83.516 144.387 83.516C143.867 83.516 143.443 83.676 143.115 83.996C142.787 84.316 142.623 84.804 142.623 85.46V86.348C142.623 87.004 142.787 87.492 143.115 87.812C143.443 88.132 143.867 88.292 144.387 88.292ZM148.762 89V82.808H149.722V83.816H149.77C149.922 83.464 150.134 83.184 150.406 82.976C150.686 82.768 151.058 82.664 151.522 82.664C152.162 82.664 152.666 82.872 153.034 83.288C153.41 83.696 153.598 84.276 153.598 85.028V89H152.638V85.196C152.638 84.084 152.17 83.528 151.234 83.528C151.042 83.528 150.854 83.552 150.67 83.6C150.494 83.648 150.334 83.72 150.19 83.816C150.046 83.912 149.93 84.036 149.842 84.188C149.762 84.332 149.722 84.504 149.722 84.704V89H148.762ZM156.951 89C156.615 89 156.359 88.908 156.183 88.724C156.015 88.532 155.931 88.284 155.931 87.98V83.648H154.911V82.808H155.487C155.695 82.808 155.835 82.768 155.907 82.688C155.987 82.6 156.027 82.452 156.027 82.244V81.092H156.891V82.808H158.247V83.648H156.891V88.16H158.151V89H156.951ZM159.79 89V82.808H160.75V83.948H160.81C160.922 83.652 161.122 83.388 161.41 83.156C161.698 82.924 162.094 82.808 162.598 82.808H162.97V83.768H162.406C161.886 83.768 161.478 83.868 161.182 84.068C160.894 84.26 160.75 84.504 160.75 84.8V89H159.79ZM168.649 89C168.289 89 168.029 88.904 167.869 88.712C167.717 88.52 167.621 88.28 167.581 87.992H167.521C167.385 88.376 167.161 88.664 166.849 88.856C166.537 89.048 166.165 89.144 165.733 89.144C165.077 89.144 164.565 88.976 164.197 88.64C163.837 88.304 163.657 87.848 163.657 87.272C163.657 86.688 163.869 86.24 164.293 85.928C164.725 85.616 165.393 85.46 166.297 85.46H167.521V84.848C167.521 84.408 167.401 84.072 167.161 83.84C166.921 83.608 166.553 83.492 166.057 83.492C165.681 83.492 165.365 83.576 165.109 83.744C164.861 83.912 164.653 84.136 164.485 84.416L163.909 83.876C164.077 83.54 164.345 83.256 164.713 83.024C165.081 82.784 165.545 82.664 166.105 82.664C166.857 82.664 167.441 82.848 167.857 83.216C168.273 83.584 168.481 84.096 168.481 84.752V88.16H169.189V89H168.649ZM165.889 88.328C166.129 88.328 166.349 88.3 166.549 88.244C166.749 88.188 166.921 88.108 167.065 88.004C167.209 87.9 167.321 87.78 167.401 87.644C167.481 87.508 167.521 87.36 167.521 87.2V86.18H166.249C165.697 86.18 165.293 86.26 165.037 86.42C164.789 86.58 164.665 86.812 164.665 87.116V87.368C164.665 87.672 164.773 87.908 164.989 88.076C165.213 88.244 165.513 88.328 165.889 88.328ZM172.863 89.144C172.431 89.144 172.043 89.068 171.699 88.916C171.355 88.764 171.063 88.548 170.823 88.268C170.591 87.988 170.411 87.648 170.283 87.248C170.163 86.848 170.103 86.4 170.103 85.904C170.103 85.408 170.163 84.96 170.283 84.56C170.411 84.16 170.591 83.82 170.823 83.54C171.063 83.26 171.355 83.044 171.699 82.892C172.043 82.74 172.431 82.664 172.863 82.664C173.479 82.664 173.971 82.8 174.339 83.072C174.715 83.336 174.995 83.684 175.179 84.116L174.375 84.524C174.263 84.204 174.079 83.956 173.823 83.78C173.567 83.604 173.247 83.516 172.863 83.516C172.575 83.516 172.323 83.564 172.107 83.66C171.891 83.748 171.711 83.876 171.567 84.044C171.423 84.204 171.315 84.4 171.243 84.632C171.171 84.856 171.135 85.104 171.135 85.376V86.432C171.135 86.976 171.279 87.424 171.567 87.776C171.863 88.12 172.295 88.292 172.863 88.292C173.639 88.292 174.199 87.932 174.543 87.212L175.239 87.68C175.039 88.128 174.739 88.484 174.339 88.748C173.947 89.012 173.455 89.144 172.863 89.144ZM177.962 89C177.626 89 177.37 88.908 177.194 88.724C177.026 88.532 176.942 88.284 176.942 87.98V83.648H175.922V82.808H176.498C176.706 82.808 176.846 82.768 176.918 82.688C176.998 82.6 177.038 82.452 177.038 82.244V81.092H177.902V82.808H179.258V83.648H177.902V88.16H179.162V89H177.962Z" fill="#808085"/>
    <path d="M402.767 5.944H402.707L401.999 7.348L399.995 10.996L397.991 7.348L397.283 5.944H397.223V13H396.239V4.624H397.583L399.983 9.136H400.043L402.455 4.624H403.751V13H402.767V5.944ZM408.209 13.144C407.785 13.144 407.401 13.068 407.057 12.916C406.721 12.764 406.429 12.548 406.181 12.268C405.941 11.98 405.753 11.64 405.617 11.248C405.489 10.848 405.425 10.4 405.425 9.904C405.425 9.416 405.489 8.972 405.617 8.572C405.753 8.172 405.941 7.832 406.181 7.552C406.429 7.264 406.721 7.044 407.057 6.892C407.401 6.74 407.785 6.664 408.209 6.664C408.625 6.664 408.997 6.74 409.325 6.892C409.653 7.044 409.933 7.256 410.165 7.528C410.397 7.792 410.573 8.108 410.693 8.476C410.821 8.844 410.885 9.248 410.885 9.688V10.144H406.433V10.432C406.433 10.696 406.473 10.944 406.553 11.176C406.641 11.4 406.761 11.596 406.913 11.764C407.073 11.932 407.265 12.064 407.489 12.16C407.721 12.256 407.981 12.304 408.269 12.304C408.661 12.304 409.001 12.212 409.289 12.028C409.585 11.844 409.813 11.58 409.973 11.236L410.657 11.728C410.457 12.152 410.145 12.496 409.721 12.76C409.297 13.016 408.793 13.144 408.209 13.144ZM408.209 7.468C407.945 7.468 407.705 7.516 407.489 7.612C407.273 7.7 407.085 7.828 406.925 7.996C406.773 8.164 406.653 8.364 406.565 8.596C406.477 8.82 406.433 9.068 406.433 9.34V9.424H409.853V9.292C409.853 8.74 409.701 8.3 409.397 7.972C409.101 7.636 408.705 7.468 408.209 7.468ZM412.467 13V6.808H413.427V7.816H413.475C413.547 7.656 413.627 7.508 413.715 7.372C413.811 7.228 413.923 7.104 414.051 7C414.187 6.896 414.343 6.816 414.519 6.76C414.695 6.696 414.903 6.664 415.143 6.664C415.551 6.664 415.927 6.764 416.271 6.964C416.615 7.156 416.871 7.476 417.039 7.924H417.063C417.175 7.588 417.383 7.296 417.687 7.048C417.999 6.792 418.419 6.664 418.947 6.664C419.579 6.664 420.071 6.872 420.423 7.288C420.783 7.696 420.963 8.276 420.963 9.028V13H420.003V9.196C420.003 8.644 419.895 8.228 419.679 7.948C419.463 7.668 419.119 7.528 418.647 7.528C418.455 7.528 418.271 7.552 418.095 7.6C417.927 7.648 417.775 7.72 417.639 7.816C417.503 7.912 417.395 8.036 417.315 8.188C417.235 8.332 417.195 8.504 417.195 8.704V13H416.235V9.196C416.235 8.644 416.127 8.228 415.911 7.948C415.695 7.668 415.359 7.528 414.903 7.528C414.711 7.528 414.527 7.552 414.351 7.6C414.175 7.648 414.019 7.72 413.883 7.816C413.747 7.912 413.635 8.036 413.547 8.188C413.467 8.332 413.427 8.504 413.427 8.704V13H412.467ZM422.944 4.12H423.904V7.816H423.952C424.112 7.424 424.344 7.136 424.648 6.952C424.96 6.76 425.332 6.664 425.764 6.664C426.148 6.664 426.496 6.74 426.808 6.892C427.12 7.044 427.384 7.26 427.6 7.54C427.824 7.82 427.992 8.16 428.104 8.56C428.224 8.96 428.284 9.408 428.284 9.904C428.284 10.4 428.224 10.848 428.104 11.248C427.992 11.648 427.824 11.988 427.6 12.268C427.384 12.548 427.12 12.764 426.808 12.916C426.496 13.068 426.148 13.144 425.764 13.144C424.924 13.144 424.32 12.76 423.952 11.992H423.904V13H422.944V4.12ZM425.5 12.28C426.044 12.28 426.472 12.112 426.784 11.776C427.096 11.432 427.252 10.984 427.252 10.432V9.376C427.252 8.824 427.096 8.38 426.784 8.044C426.472 7.7 426.044 7.528 425.5 7.528C425.284 7.528 425.076 7.56 424.876 7.624C424.684 7.68 424.516 7.76 424.372 7.864C424.228 7.968 424.112 8.096 424.024 8.248C423.944 8.392 423.904 8.548 423.904 8.716V11.02C423.904 11.22 423.944 11.4 424.024 11.56C424.112 11.712 424.228 11.844 424.372 11.956C424.516 12.06 424.684 12.14 424.876 12.196C425.076 12.252 425.284 12.28 425.5 12.28ZM432.233 13.144C431.809 13.144 431.425 13.068 431.081 12.916C430.745 12.764 430.453 12.548 430.205 12.268C429.965 11.98 429.777 11.64 429.641 11.248C429.513 10.848 429.449 10.4 429.449 9.904C429.449 9.416 429.513 8.972 429.641 8.572C429.777 8.172 429.965 7.832 430.205 7.552C430.453 7.264 430.745 7.044 431.081 6.892C431.425 6.74 431.809 6.664 432.233 6.664C432.649 6.664 433.021 6.74 433.349 6.892C433.677 7.044 433.957 7.256 434.189 7.528C434.421 7.792 434.597 8.108 434.717 8.476C434.845 8.844 434.909 9.248 434.909 9.688V10.144H430.457V10.432C430.457 10.696 430.497 10.944 430.577 11.176C430.665 11.4 430.785 11.596 430.937 11.764C431.097 11.932 431.289 12.064 431.513 12.16C431.745 12.256 432.005 12.304 432.293 12.304C432.685 12.304 433.025 12.212 433.313 12.028C433.609 11.844 433.837 11.58 433.997 11.236L434.681 11.728C434.481 12.152 434.169 12.496 433.745 12.76C433.321 13.016 432.817 13.144 432.233 13.144ZM432.233 7.468C431.969 7.468 431.729 7.516 431.513 7.612C431.297 7.7 431.109 7.828 430.949 7.996C430.797 8.164 430.677 8.364 430.589 8.596C430.501 8.82 430.457 9.068 430.457 9.34V9.424H433.877V9.292C433.877 8.74 433.725 8.3 433.421 7.972C433.125 7.636 432.729 7.468 432.233 7.468ZM436.491 13V6.808H437.451V7.948H437.511C437.623 7.652 437.823 7.388 438.111 7.156C438.399 6.924 438.795 6.808 439.299 6.808H439.671V7.768H439.107C438.587 7.768 438.179 7.868 437.883 8.068C437.595 8.26 437.451 8.504 437.451 8.8V13H436.491Z" fill="#808085"/>
    <path d="M402.767 159.944H402.707L401.999 161.348L399.995 164.996L397.991 161.348L397.283 159.944H397.223V167H396.239V158.624H397.583L399.983 163.136H400.043L402.455 158.624H403.751V167H402.767V159.944ZM408.209 167.144C407.785 167.144 407.401 167.068 407.057 166.916C406.721 166.764 406.429 166.548 406.181 166.268C405.941 165.98 405.753 165.64 405.617 165.248C405.489 164.848 405.425 164.4 405.425 163.904C405.425 163.416 405.489 162.972 405.617 162.572C405.753 162.172 405.941 161.832 406.181 161.552C406.429 161.264 406.721 161.044 407.057 160.892C407.401 160.74 407.785 160.664 408.209 160.664C408.625 160.664 408.997 160.74 409.325 160.892C409.653 161.044 409.933 161.256 410.165 161.528C410.397 161.792 410.573 162.108 410.693 162.476C410.821 162.844 410.885 163.248 410.885 163.688V164.144H406.433V164.432C406.433 164.696 406.473 164.944 406.553 165.176C406.641 165.4 406.761 165.596 406.913 165.764C407.073 165.932 407.265 166.064 407.489 166.16C407.721 166.256 407.981 166.304 408.269 166.304C408.661 166.304 409.001 166.212 409.289 166.028C409.585 165.844 409.813 165.58 409.973 165.236L410.657 165.728C410.457 166.152 410.145 166.496 409.721 166.76C409.297 167.016 408.793 167.144 408.209 167.144ZM408.209 161.468C407.945 161.468 407.705 161.516 407.489 161.612C407.273 161.7 407.085 161.828 406.925 161.996C406.773 162.164 406.653 162.364 406.565 162.596C406.477 162.82 406.433 163.068 406.433 163.34V163.424H409.853V163.292C409.853 162.74 409.701 162.3 409.397 161.972C409.101 161.636 408.705 161.468 408.209 161.468ZM412.467 167V160.808H413.427V161.816H413.475C413.547 161.656 413.627 161.508 413.715 161.372C413.811 161.228 413.923 161.104 414.051 161C414.187 160.896 414.343 160.816 414.519 160.76C414.695 160.696 414.903 160.664 415.143 160.664C415.551 160.664 415.927 160.764 416.271 160.964C416.615 161.156 416.871 161.476 417.039 161.924H417.063C417.175 161.588 417.383 161.296 417.687 161.048C417.999 160.792 418.419 160.664 418.947 160.664C419.579 160.664 420.071 160.872 420.423 161.288C420.783 161.696 420.963 162.276 420.963 163.028V167H420.003V163.196C420.003 162.644 419.895 162.228 419.679 161.948C419.463 161.668 419.119 161.528 418.647 161.528C418.455 161.528 418.271 161.552 418.095 161.6C417.927 161.648 417.775 161.72 417.639 161.816C417.503 161.912 417.395 162.036 417.315 162.188C417.235 162.332 417.195 162.504 417.195 162.704V167H416.235V163.196C416.235 162.644 416.127 162.228 415.911 161.948C415.695 161.668 415.359 161.528 414.903 161.528C414.711 161.528 414.527 161.552 414.351 161.6C414.175 161.648 414.019 161.72 413.883 161.816C413.747 161.912 413.635 162.036 413.547 162.188C413.467 162.332 413.427 162.504 413.427 162.704V167H412.467ZM422.944 158.12H423.904V161.816H423.952C424.112 161.424 424.344 161.136 424.648 160.952C424.96 160.76 425.332 160.664 425.764 160.664C426.148 160.664 426.496 160.74 426.808 160.892C427.12 161.044 427.384 161.26 427.6 161.54C427.824 161.82 427.992 162.16 428.104 162.56C428.224 162.96 428.284 163.408 428.284 163.904C428.284 164.4 428.224 164.848 428.104 165.248C427.992 165.648 427.824 165.988 427.6 166.268C427.384 166.548 427.12 166.764 426.808 166.916C426.496 167.068 426.148 167.144 425.764 167.144C424.924 167.144 424.32 166.76 423.952 165.992H423.904V167H422.944V158.12ZM425.5 166.28C426.044 166.28 426.472 166.112 426.784 165.776C427.096 165.432 427.252 164.984 427.252 164.432V163.376C427.252 162.824 427.096 162.38 426.784 162.044C426.472 161.7 426.044 161.528 425.5 161.528C425.284 161.528 425.076 161.56 424.876 161.624C424.684 161.68 424.516 161.76 424.372 161.864C424.228 161.968 424.112 162.096 424.024 162.248C423.944 162.392 423.904 162.548 423.904 162.716V165.02C423.904 165.22 423.944 165.4 424.024 165.56C424.112 165.712 424.228 165.844 424.372 165.956C424.516 166.06 424.684 166.14 424.876 166.196C425.076 166.252 425.284 166.28 425.5 166.28ZM432.233 167.144C431.809 167.144 431.425 167.068 431.081 166.916C430.745 166.764 430.453 166.548 430.205 166.268C429.965 165.98 429.777 165.64 429.641 165.248C429.513 164.848 429.449 164.4 429.449 163.904C429.449 163.416 429.513 162.972 429.641 162.572C429.777 162.172 429.965 161.832 430.205 161.552C430.453 161.264 430.745 161.044 431.081 160.892C431.425 160.74 431.809 160.664 432.233 160.664C432.649 160.664 433.021 160.74 433.349 160.892C433.677 161.044 433.957 161.256 434.189 161.528C434.421 161.792 434.597 162.108 434.717 162.476C434.845 162.844 434.909 163.248 434.909 163.688V164.144H430.457V164.432C430.457 164.696 430.497 164.944 430.577 165.176C430.665 165.4 430.785 165.596 430.937 165.764C431.097 165.932 431.289 166.064 431.513 166.16C431.745 166.256 432.005 166.304 432.293 166.304C432.685 166.304 433.025 166.212 433.313 166.028C433.609 165.844 433.837 165.58 433.997 165.236L434.681 165.728C434.481 166.152 434.169 166.496 433.745 166.76C433.321 167.016 432.817 167.144 432.233 167.144ZM432.233 161.468C431.969 161.468 431.729 161.516 431.513 161.612C431.297 161.7 431.109 161.828 430.949 161.996C430.797 162.164 430.677 162.364 430.589 162.596C430.501 162.82 430.457 163.068 430.457 163.34V163.424H433.877V163.292C433.877 162.74 433.725 162.3 433.421 161.972C433.125 161.636 432.729 161.468 432.233 161.468ZM436.491 167V160.808H437.451V161.948H437.511C437.623 161.652 437.823 161.388 438.111 161.156C438.399 160.924 438.795 160.808 439.299 160.808H439.671V161.768H439.107C438.587 161.768 438.179 161.868 437.883 162.068C437.595 162.26 437.451 162.504 437.451 162.8V167H436.491Z" fill="#808085"/>
    <path d="M286.681 182.144C286.001 182.144 285.421 182.016 284.941 181.76C284.461 181.496 284.053 181.136 283.717 180.68L284.461 180.056C284.757 180.448 285.085 180.748 285.445 180.956C285.805 181.156 286.229 181.256 286.717 181.256C287.317 181.256 287.773 181.112 288.085 180.824C288.405 180.536 288.565 180.152 288.565 179.672C288.565 179.272 288.445 178.964 288.205 178.748C287.965 178.532 287.569 178.36 287.017 178.232L286.333 178.076C285.565 177.9 284.977 177.636 284.569 177.284C284.169 176.924 283.969 176.42 283.969 175.772C283.969 175.404 284.037 175.076 284.173 174.788C284.309 174.5 284.497 174.26 284.737 174.068C284.985 173.876 285.277 173.732 285.613 173.636C285.957 173.532 286.333 173.48 286.741 173.48C287.373 173.48 287.913 173.596 288.361 173.828C288.817 174.06 289.201 174.4 289.513 174.848L288.757 175.4C288.525 175.08 288.245 174.828 287.917 174.644C287.589 174.46 287.181 174.368 286.693 174.368C286.157 174.368 285.733 174.484 285.421 174.716C285.117 174.94 284.965 175.28 284.965 175.736C284.965 176.136 285.093 176.44 285.349 176.648C285.613 176.848 286.009 177.008 286.537 177.128L287.221 177.284C288.045 177.468 288.641 177.748 289.009 178.124C289.377 178.5 289.561 179 289.561 179.624C289.561 180.008 289.493 180.356 289.357 180.668C289.229 180.98 289.041 181.244 288.793 181.46C288.545 181.676 288.241 181.844 287.881 181.964C287.529 182.084 287.129 182.144 286.681 182.144ZM295.706 182C295.346 182 295.086 181.904 294.926 181.712C294.774 181.52 294.678 181.28 294.638 180.992H294.578C294.442 181.376 294.218 181.664 293.906 181.856C293.594 182.048 293.222 182.144 292.79 182.144C292.134 182.144 291.622 181.976 291.254 181.64C290.894 181.304 290.714 180.848 290.714 180.272C290.714 179.688 290.926 179.24 291.35 178.928C291.782 178.616 292.45 178.46 293.354 178.46H294.578V177.848C294.578 177.408 294.458 177.072 294.218 176.84C293.978 176.608 293.61 176.492 293.114 176.492C292.738 176.492 292.422 176.576 292.166 176.744C291.918 176.912 291.71 177.136 291.542 177.416L290.966 176.876C291.134 176.54 291.402 176.256 291.77 176.024C292.138 175.784 292.602 175.664 293.162 175.664C293.914 175.664 294.498 175.848 294.914 176.216C295.33 176.584 295.538 177.096 295.538 177.752V181.16H296.246V182H295.706ZM292.946 181.328C293.186 181.328 293.406 181.3 293.606 181.244C293.806 181.188 293.978 181.108 294.122 181.004C294.266 180.9 294.378 180.78 294.458 180.644C294.538 180.508 294.578 180.36 294.578 180.2V179.18H293.306C292.754 179.18 292.35 179.26 292.094 179.42C291.846 179.58 291.722 179.812 291.722 180.116V180.368C291.722 180.672 291.83 180.908 292.046 181.076C292.27 181.244 292.57 181.328 292.946 181.328ZM298.636 182C298.3 182 298.044 181.908 297.868 181.724C297.7 181.532 297.616 181.292 297.616 181.004V173.12H298.576V181.16H299.488V182H298.636ZM305.385 182C305.025 182 304.765 181.904 304.605 181.712C304.453 181.52 304.357 181.28 304.317 180.992H304.257C304.121 181.376 303.897 181.664 303.585 181.856C303.273 182.048 302.901 182.144 302.469 182.144C301.813 182.144 301.301 181.976 300.933 181.64C300.573 181.304 300.393 180.848 300.393 180.272C300.393 179.688 300.605 179.24 301.029 178.928C301.461 178.616 302.129 178.46 303.033 178.46H304.257V177.848C304.257 177.408 304.137 177.072 303.897 176.84C303.657 176.608 303.289 176.492 302.793 176.492C302.417 176.492 302.101 176.576 301.845 176.744C301.597 176.912 301.389 177.136 301.221 177.416L300.645 176.876C300.813 176.54 301.081 176.256 301.449 176.024C301.817 175.784 302.281 175.664 302.841 175.664C303.593 175.664 304.177 175.848 304.593 176.216C305.009 176.584 305.217 177.096 305.217 177.752V181.16H305.925V182H305.385ZM302.625 181.328C302.865 181.328 303.085 181.3 303.285 181.244C303.485 181.188 303.657 181.108 303.801 181.004C303.945 180.9 304.057 180.78 304.137 180.644C304.217 180.508 304.257 180.36 304.257 180.2V179.18H302.985C302.433 179.18 302.029 179.26 301.773 179.42C301.525 179.58 301.401 179.812 301.401 180.116V180.368C301.401 180.672 301.509 180.908 301.725 181.076C301.949 181.244 302.249 181.328 302.625 181.328ZM307.295 182V175.808H308.255V176.948H308.315C308.427 176.652 308.627 176.388 308.915 176.156C309.203 175.924 309.599 175.808 310.103 175.808H310.475V176.768H309.911C309.391 176.768 308.983 176.868 308.687 177.068C308.399 177.26 308.255 177.504 308.255 177.8V182H307.295ZM315.635 175.808H316.583L313.811 183.44C313.739 183.624 313.667 183.776 313.595 183.896C313.523 184.024 313.435 184.124 313.331 184.196C313.227 184.268 313.095 184.32 312.935 184.352C312.783 184.384 312.595 184.4 312.371 184.4H311.879V183.56H312.851L313.319 182.24L311.003 175.808H311.963L313.451 180.02L313.739 181.028H313.799L314.135 180.02L315.635 175.808Z" fill="#808085"/>
    <path d="M286.681 28.144C286.001 28.144 285.421 28.016 284.941 27.76C284.461 27.496 284.053 27.136 283.717 26.68L284.461 26.056C284.757 26.448 285.085 26.748 285.445 26.956C285.805 27.156 286.229 27.256 286.717 27.256C287.317 27.256 287.773 27.112 288.085 26.824C288.405 26.536 288.565 26.152 288.565 25.672C288.565 25.272 288.445 24.964 288.205 24.748C287.965 24.532 287.569 24.36 287.017 24.232L286.333 24.076C285.565 23.9 284.977 23.636 284.569 23.284C284.169 22.924 283.969 22.42 283.969 21.772C283.969 21.404 284.037 21.076 284.173 20.788C284.309 20.5 284.497 20.26 284.737 20.068C284.985 19.876 285.277 19.732 285.613 19.636C285.957 19.532 286.333 19.48 286.741 19.48C287.373 19.48 287.913 19.596 288.361 19.828C288.817 20.06 289.201 20.4 289.513 20.848L288.757 21.4C288.525 21.08 288.245 20.828 287.917 20.644C287.589 20.46 287.181 20.368 286.693 20.368C286.157 20.368 285.733 20.484 285.421 20.716C285.117 20.94 284.965 21.28 284.965 21.736C284.965 22.136 285.093 22.44 285.349 22.648C285.613 22.848 286.009 23.008 286.537 23.128L287.221 23.284C288.045 23.468 288.641 23.748 289.009 24.124C289.377 24.5 289.561 25 289.561 25.624C289.561 26.008 289.493 26.356 289.357 26.668C289.229 26.98 289.041 27.244 288.793 27.46C288.545 27.676 288.241 27.844 287.881 27.964C287.529 28.084 287.129 28.144 286.681 28.144ZM295.706 28C295.346 28 295.086 27.904 294.926 27.712C294.774 27.52 294.678 27.28 294.638 26.992H294.578C294.442 27.376 294.218 27.664 293.906 27.856C293.594 28.048 293.222 28.144 292.79 28.144C292.134 28.144 291.622 27.976 291.254 27.64C290.894 27.304 290.714 26.848 290.714 26.272C290.714 25.688 290.926 25.24 291.35 24.928C291.782 24.616 292.45 24.46 293.354 24.46H294.578V23.848C294.578 23.408 294.458 23.072 294.218 22.84C293.978 22.608 293.61 22.492 293.114 22.492C292.738 22.492 292.422 22.576 292.166 22.744C291.918 22.912 291.71 23.136 291.542 23.416L290.966 22.876C291.134 22.54 291.402 22.256 291.77 22.024C292.138 21.784 292.602 21.664 293.162 21.664C293.914 21.664 294.498 21.848 294.914 22.216C295.33 22.584 295.538 23.096 295.538 23.752V27.16H296.246V28H295.706ZM292.946 27.328C293.186 27.328 293.406 27.3 293.606 27.244C293.806 27.188 293.978 27.108 294.122 27.004C294.266 26.9 294.378 26.78 294.458 26.644C294.538 26.508 294.578 26.36 294.578 26.2V25.18H293.306C292.754 25.18 292.35 25.26 292.094 25.42C291.846 25.58 291.722 25.812 291.722 26.116V26.368C291.722 26.672 291.83 26.908 292.046 27.076C292.27 27.244 292.57 27.328 292.946 27.328ZM298.636 28C298.3 28 298.044 27.908 297.868 27.724C297.7 27.532 297.616 27.292 297.616 27.004V19.12H298.576V27.16H299.488V28H298.636ZM305.385 28C305.025 28 304.765 27.904 304.605 27.712C304.453 27.52 304.357 27.28 304.317 26.992H304.257C304.121 27.376 303.897 27.664 303.585 27.856C303.273 28.048 302.901 28.144 302.469 28.144C301.813 28.144 301.301 27.976 300.933 27.64C300.573 27.304 300.393 26.848 300.393 26.272C300.393 25.688 300.605 25.24 301.029 24.928C301.461 24.616 302.129 24.46 303.033 24.46H304.257V23.848C304.257 23.408 304.137 23.072 303.897 22.84C303.657 22.608 303.289 22.492 302.793 22.492C302.417 22.492 302.101 22.576 301.845 22.744C301.597 22.912 301.389 23.136 301.221 23.416L300.645 22.876C300.813 22.54 301.081 22.256 301.449 22.024C301.817 21.784 302.281 21.664 302.841 21.664C303.593 21.664 304.177 21.848 304.593 22.216C305.009 22.584 305.217 23.096 305.217 23.752V27.16H305.925V28H305.385ZM302.625 27.328C302.865 27.328 303.085 27.3 303.285 27.244C303.485 27.188 303.657 27.108 303.801 27.004C303.945 26.9 304.057 26.78 304.137 26.644C304.217 26.508 304.257 26.36 304.257 26.2V25.18H302.985C302.433 25.18 302.029 25.26 301.773 25.42C301.525 25.58 301.401 25.812 301.401 26.116V26.368C301.401 26.672 301.509 26.908 301.725 27.076C301.949 27.244 302.249 27.328 302.625 27.328ZM307.295 28V21.808H308.255V22.948H308.315C308.427 22.652 308.627 22.388 308.915 22.156C309.203 21.924 309.599 21.808 310.103 21.808H310.475V22.768H309.911C309.391 22.768 308.983 22.868 308.687 23.068C308.399 23.26 308.255 23.504 308.255 23.8V28H307.295ZM315.635 21.808H316.583L313.811 29.44C313.739 29.624 313.667 29.776 313.595 29.896C313.523 30.024 313.435 30.124 313.331 30.196C313.227 30.268 313.095 30.32 312.935 30.352C312.783 30.384 312.595 30.4 312.371 30.4H311.879V29.56H312.851L313.319 28.24L311.003 21.808H311.963L313.451 26.02L313.739 27.028H313.799L314.135 26.02L315.635 21.808Z" fill="#808085"/>
    <path d="M11.8073 105L10.9673 102.528H7.58327L6.74327 105H5.72327L8.65127 96.624H9.93527L12.8633 105H11.8073ZM9.29927 97.56H9.23927L7.82327 101.64H10.7153L9.29927 97.56ZM16.0148 105.144C15.4388 105.144 14.9548 105.036 14.5628 104.82C14.1788 104.596 13.8468 104.3 13.5668 103.932L14.2508 103.38C14.4908 103.684 14.7588 103.92 15.0548 104.088C15.3508 104.248 15.6948 104.328 16.0868 104.328C16.4948 104.328 16.8108 104.24 17.0348 104.064C17.2668 103.888 17.3828 103.64 17.3828 103.32C17.3828 103.08 17.3028 102.876 17.1428 102.708C16.9908 102.532 16.7108 102.412 16.3028 102.348L15.8108 102.276C15.5228 102.236 15.2588 102.176 15.0188 102.096C14.7788 102.008 14.5668 101.896 14.3828 101.76C14.2068 101.616 14.0668 101.44 13.9628 101.232C13.8668 101.024 13.8188 100.776 13.8188 100.488C13.8188 100.184 13.8748 99.92 13.9868 99.696C14.0988 99.464 14.2508 99.272 14.4428 99.12C14.6428 98.968 14.8788 98.856 15.1508 98.784C15.4228 98.704 15.7148 98.664 16.0268 98.664C16.5308 98.664 16.9508 98.752 17.2868 98.928C17.6308 99.104 17.9308 99.348 18.1868 99.66L17.5508 100.236C17.4148 100.044 17.2148 99.872 16.9508 99.72C16.6868 99.56 16.3548 99.48 15.9548 99.48C15.5548 99.48 15.2508 99.568 15.0428 99.744C14.8428 99.912 14.7428 100.144 14.7428 100.44C14.7428 100.744 14.8428 100.964 15.0428 101.1C15.2508 101.236 15.5468 101.336 15.9308 101.4L16.4108 101.472C17.0988 101.576 17.5868 101.776 17.8748 102.072C18.1628 102.36 18.3068 102.74 18.3068 103.212C18.3068 103.812 18.1028 104.284 17.6948 104.628C17.2868 104.972 16.7268 105.144 16.0148 105.144ZM21.7921 105.144C21.2161 105.144 20.7321 105.036 20.3401 104.82C19.9561 104.596 19.6241 104.3 19.3441 103.932L20.0281 103.38C20.2681 103.684 20.5361 103.92 20.8321 104.088C21.1281 104.248 21.4721 104.328 21.8641 104.328C22.2721 104.328 22.5881 104.24 22.8121 104.064C23.0441 103.888 23.1601 103.64 23.1601 103.32C23.1601 103.08 23.0801 102.876 22.9201 102.708C22.7681 102.532 22.4881 102.412 22.0801 102.348L21.5881 102.276C21.3001 102.236 21.0361 102.176 20.7961 102.096C20.5561 102.008 20.3441 101.896 20.1601 101.76C19.9841 101.616 19.8441 101.44 19.7401 101.232C19.6441 101.024 19.5961 100.776 19.5961 100.488C19.5961 100.184 19.6521 99.92 19.7641 99.696C19.8761 99.464 20.0281 99.272 20.2201 99.12C20.4201 98.968 20.6561 98.856 20.9281 98.784C21.2001 98.704 21.4921 98.664 21.8041 98.664C22.3081 98.664 22.7281 98.752 23.0641 98.928C23.4081 99.104 23.7081 99.348 23.9641 99.66L23.3281 100.236C23.1921 100.044 22.9921 99.872 22.7281 99.72C22.4641 99.56 22.1321 99.48 21.7321 99.48C21.3321 99.48 21.0281 99.568 20.8201 99.744C20.6201 99.912 20.5201 100.144 20.5201 100.44C20.5201 100.744 20.6201 100.964 20.8201 101.1C21.0281 101.236 21.3241 101.336 21.7081 101.4L22.1881 101.472C22.8761 101.576 23.3641 101.776 23.6521 102.072C23.9401 102.36 24.0841 102.74 24.0841 103.212C24.0841 103.812 23.8801 104.284 23.4721 104.628C23.0641 104.972 22.5041 105.144 21.7921 105.144ZM28.1078 105.144C27.6838 105.144 27.2998 105.068 26.9558 104.916C26.6198 104.764 26.3278 104.548 26.0798 104.268C25.8398 103.98 25.6518 103.64 25.5158 103.248C25.3878 102.848 25.3238 102.4 25.3238 101.904C25.3238 101.416 25.3878 100.972 25.5158 100.572C25.6518 100.172 25.8398 99.832 26.0798 99.552C26.3278 99.264 26.6198 99.044 26.9558 98.892C27.2998 98.74 27.6838 98.664 28.1078 98.664C28.5238 98.664 28.8958 98.74 29.2238 98.892C29.5518 99.044 29.8318 99.256 30.0638 99.528C30.2958 99.792 30.4718 100.108 30.5918 100.476C30.7198 100.844 30.7838 101.248 30.7838 101.688V102.144H26.3318V102.432C26.3318 102.696 26.3718 102.944 26.4518 103.176C26.5398 103.4 26.6598 103.596 26.8118 103.764C26.9718 103.932 27.1638 104.064 27.3878 104.16C27.6198 104.256 27.8798 104.304 28.1678 104.304C28.5598 104.304 28.8998 104.212 29.1878 104.028C29.4838 103.844 29.7118 103.58 29.8718 103.236L30.5558 103.728C30.3558 104.152 30.0438 104.496 29.6198 104.76C29.1958 105.016 28.6918 105.144 28.1078 105.144ZM28.1078 99.468C27.8438 99.468 27.6038 99.516 27.3878 99.612C27.1718 99.7 26.9838 99.828 26.8238 99.996C26.6718 100.164 26.5518 100.364 26.4638 100.596C26.3758 100.82 26.3318 101.068 26.3318 101.34V101.424H29.7518V101.292C29.7518 100.74 29.5998 100.3 29.2958 99.972C28.9998 99.636 28.6038 99.468 28.1078 99.468ZM33.7337 105C33.3977 105 33.1417 104.908 32.9657 104.724C32.7977 104.532 32.7137 104.284 32.7137 103.98V99.648H31.6937V98.808H32.2697C32.4777 98.808 32.6177 98.768 32.6897 98.688C32.7697 98.6 32.8097 98.452 32.8097 98.244V97.092H33.6737V98.808H35.0297V99.648H33.6737V104.16H34.9337V105H33.7337Z" fill="#808085"/>
    <path d="M196 145H209C218.941 145 227 136.941 227 127V100C227 82.3269 241.327 68 259 68H280" stroke="url(#paint0_linear_15160_14721)" stroke-linecap="round"/>
    <path d="M196 145H209C218.941 145 227 153.059 227 163V190C227 207.673 241.327 222 259 222H280" stroke="url(#paint1_linear_15160_14721)" stroke-linecap="round"/>
    <path d="M383.5 104C383.5 104.276 383.724 104.5 384 104.5C384.276 104.5 384.5 104.276 384.5 104H383.5ZM405.562 77.5H431.438V76.5H405.562V77.5ZM452.5 99.5V104H453.5V99.5H452.5ZM384.5 104V99.5H383.5V104H384.5ZM431.438 77.5C443.05 77.5 452.5 87.3295 452.5 99.5H453.5C453.5 86.8177 443.642 76.5 431.438 76.5V77.5ZM405.562 76.5C393.358 76.5 383.5 86.8177 383.5 99.5H384.5C384.5 87.3295 393.95 77.5 405.562 77.5V76.5ZM435.25 48.875C435.25 57.9084 427.761 65.25 418.5 65.25V66.25C428.293 66.25 436.25 58.4812 436.25 48.875H435.25ZM418.5 65.25C409.239 65.25 401.75 57.9084 401.75 48.875H400.75C400.75 58.4812 408.707 66.25 418.5 66.25V65.25ZM401.75 48.875C401.75 39.8416 409.239 32.5 418.5 32.5V31.5C408.707 31.5 400.75 39.2688 400.75 48.875H401.75ZM418.5 32.5C427.761 32.5 435.25 39.8416 435.25 48.875H436.25C436.25 39.2688 428.293 31.5 418.5 31.5V32.5Z" fill="url(#paint2_linear_15160_14721)"/>
    <path d="M383.5 258C383.5 258.276 383.724 258.5 384 258.5C384.276 258.5 384.5 258.276 384.5 258H383.5ZM405.562 231.5H431.438V230.5H405.562V231.5ZM452.5 253.5V258H453.5V253.5H452.5ZM384.5 258V253.5H383.5V258H384.5ZM431.438 231.5C443.05 231.5 452.5 241.329 452.5 253.5H453.5C453.5 240.818 443.642 230.5 431.438 230.5V231.5ZM405.562 230.5C393.358 230.5 383.5 240.818 383.5 253.5H384.5C384.5 241.329 393.95 231.5 405.562 231.5V230.5ZM435.25 202.875C435.25 211.908 427.761 219.25 418.5 219.25V220.25C428.293 220.25 436.25 212.481 436.25 202.875H435.25ZM418.5 219.25C409.239 219.25 401.75 211.908 401.75 202.875H400.75C400.75 212.481 408.707 220.25 418.5 220.25V219.25ZM401.75 202.875C401.75 193.842 409.239 186.5 418.5 186.5V185.5C408.707 185.5 400.75 193.269 400.75 202.875H401.75ZM418.5 186.5C427.761 186.5 435.25 193.842 435.25 202.875H436.25C436.25 193.269 428.293 185.5 418.5 185.5V186.5Z" fill="url(#paint3_linear_15160_14721)"/>
    <path d="M320 68H360M360 68L352 60M360 68L352 76" stroke="url(#paint4_linear_15160_14721)" stroke-linecap="round" stroke-linejoin="round"/>
    <path d="M320 222H360M360 222L352 214M360 222L352 230" stroke="url(#paint5_linear_15160_14721)" stroke-linecap="round" stroke-linejoin="round"/>
    <path d="M84.0006 145L84.3542 145.354C84.5494 145.158 84.5494 144.842 84.3542 144.646L84.0006 145ZM76.3542 136.646C76.1589 136.451 75.8423 136.451 75.6471 136.646C75.4518 136.842 75.4518 137.158 75.6471 137.354L76.3542 136.646ZM75.6471 152.646C75.4518 152.842 75.4518 153.158 75.6471 153.354C75.8423 153.549 76.1589 153.549 76.3542 153.354L75.6471 152.646ZM41 145.5H84.0006V144.5H41V145.5ZM75.6471 137.354L83.6471 145.354L84.3542 144.646L76.3542 136.646L75.6471 137.354ZM83.6471 144.646L75.6471 152.646L76.3542 153.354L84.3542 145.354L83.6471 144.646Z" fill="url(#paint6_linear_15160_14721)"/>
    <circle cx="196" cy="145" r="2" fill="#05C46B"/>
    <path d="M124 125.619H156M124 145H156M124 164.381H140M115.111 182H164.889C168.816 182 172 178.845 172 174.952V115.048C172 111.155 168.816 108 164.889 108H115.111C111.184 108 108 111.155 108 115.048V174.952C108 178.845 111.184 182 115.111 182Z" stroke="url(#paint7_linear_15160_14721)" stroke-linecap="round" stroke-linejoin="round"/>
    <path fill-rule="evenodd" clip-rule="evenodd" d="M300 89C311.598 89 321 79.598 321 68C321 56.402 311.598 47 300 47C288.402 47 279 56.402 279 68C279 79.598 288.402 89 300 89ZM300.882 56.625C300.882 56.0727 300.434 55.625 299.882 55.625C299.33 55.625 298.882 56.0727 298.882 56.625V59.2174H294.773C292.175 59.2174 290.25 61.5324 290.25 64.1507C290.25 66.7689 292.175 69.0839 294.773 69.0839H304.427C305.678 69.0839 306.875 70.2534 306.875 71.9335C306.875 73.6137 305.678 74.7831 304.427 74.7831H291.703C291.151 74.7831 290.703 75.2309 290.703 75.7831C290.703 76.3354 291.151 76.7831 291.703 76.7831H298.882V79.375C298.882 79.9273 299.33 80.375 299.882 80.375C300.434 80.375 300.882 79.9273 300.882 79.375V76.7831H304.427C306.984 76.7831 308.875 74.5056 308.875 71.9335C308.875 69.3615 306.984 67.0839 304.427 67.0839H294.773C293.48 67.0839 292.25 65.877 292.25 64.1507C292.25 62.4243 293.48 61.2174 294.773 61.2174H307.573C308.125 61.2174 308.573 60.7696 308.573 60.2174C308.573 59.6651 308.125 59.2174 307.573 59.2174H300.882V56.625Z" fill="#05C46B"/>
    <path fill-rule="evenodd" clip-rule="evenodd" d="M300 243C311.598 243 321 233.598 321 222C321 210.402 311.598 201 300 201C288.402 201 279 210.402 279 222C279 233.598 288.402 243 300 243ZM300.882 210.625C300.882 210.073 300.434 209.625 299.882 209.625C299.33 209.625 298.882 210.073 298.882 210.625V213.217H294.773C292.175 213.217 290.25 215.532 290.25 218.151C290.25 220.769 292.175 223.084 294.773 223.084H304.427C305.678 223.084 306.875 224.253 306.875 225.934C306.875 227.614 305.678 228.783 304.427 228.783H291.703C291.151 228.783 290.703 229.231 290.703 229.783C290.703 230.335 291.151 230.783 291.703 230.783H298.882V233.375C298.882 233.927 299.33 234.375 299.882 234.375C300.434 234.375 300.882 233.927 300.882 233.375V230.783H304.427C306.984 230.783 308.875 228.506 308.875 225.934C308.875 223.362 306.984 221.084 304.427 221.084H294.773C293.48 221.084 292.25 219.877 292.25 218.151C292.25 216.424 293.48 215.217 294.773 215.217H307.573C308.125 215.217 308.573 214.77 308.573 214.217C308.573 213.665 308.125 213.217 307.573 213.217H300.882V210.625Z" fill="#05C46B"/>
    <path fill-rule="evenodd" clip-rule="evenodd" d="M21 166C32.598 166 42 156.598 42 145C42 133.402 32.598 124 21 124C9.40202 124 0 133.402 0 145C0 156.598 9.40202 166 21 166ZM21.8822 133.625C21.8822 133.073 21.4345 132.625 20.8822 132.625C20.3299 132.625 19.8822 133.073 19.8822 133.625V136.217H15.7734C13.1745 136.217 11.25 138.532 11.25 141.151C11.25 143.769 13.1745 146.084 15.7734 146.084H25.4266C26.6782 146.084 27.875 147.253 27.875 148.934C27.875 150.614 26.6782 151.783 25.4266 151.783H12.7034C12.1511 151.783 11.7034 152.231 11.7034 152.783C11.7034 153.335 12.1511 153.783 12.7034 153.783H19.8822V156.375C19.8822 156.927 20.3299 157.375 20.8822 157.375C21.4345 157.375 21.8822 156.927 21.8822 156.375V153.783H25.4266C27.984 153.783 29.875 151.506 29.875 148.934C29.875 146.362 27.984 144.084 25.4266 144.084H15.7734C14.4804 144.084 13.25 142.877 13.25 141.151C13.25 139.424 14.4804 138.217 15.7734 138.217H28.5727C29.125 138.217 29.5727 137.77 29.5727 137.217C29.5727 136.665 29.125 136.217 28.5727 136.217H21.8822V133.625Z" fill="#05C46B"/>
    <defs>
        <linearGradient id="paint0_linear_15160_14721" x1="268.8" y1="187.226" x2="159.587" y2="147.972" gradientUnits="userSpaceOnUse">
            <stop stop-color="#05C46B"/>
            <stop offset="0.34375" stop-color="#018346"/>
            <stop offset="0.6875" stop-color="#3FFDA5"/>
            <stop offset="1" stop-color="#05C46B"/>
        </linearGradient>
        <linearGradient id="paint1_linear_15160_14721" x1="268.8" y1="102.774" x2="159.587" y2="142.028" gradientUnits="userSpaceOnUse">
            <stop stop-color="#05C46B"/>
            <stop offset="0.34375" stop-color="#018346"/>
            <stop offset="0.6875" stop-color="#3FFDA5"/>
            <stop offset="1" stop-color="#05C46B"/>
        </linearGradient>
        <linearGradient id="paint2_linear_15160_14721" x1="443.8" y1="143.484" x2="351.683" y2="114.399" gradientUnits="userSpaceOnUse">
            <stop stop-color="#05C46B"/>
            <stop offset="0.34375" stop-color="#018346"/>
            <stop offset="0.6875" stop-color="#3FFDA5"/>
            <stop offset="1" stop-color="#05C46B"/>
        </linearGradient>
        <linearGradient id="paint3_linear_15160_14721" x1="443.8" y1="297.484" x2="351.683" y2="268.399" gradientUnits="userSpaceOnUse">
            <stop stop-color="#05C46B"/>
            <stop offset="0.34375" stop-color="#018346"/>
            <stop offset="0.6875" stop-color="#3FFDA5"/>
            <stop offset="1" stop-color="#05C46B"/>
        </linearGradient>
        <linearGradient id="paint4_linear_15160_14721" x1="354.666" y1="84.7742" x2="319.679" y2="55.956" gradientUnits="userSpaceOnUse">
            <stop stop-color="#05C46B"/>
            <stop offset="0.34375" stop-color="#018346"/>
            <stop offset="0.6875" stop-color="#3FFDA5"/>
            <stop offset="1" stop-color="#05C46B"/>
        </linearGradient>
        <linearGradient id="paint5_linear_15160_14721" x1="354.666" y1="238.774" x2="319.679" y2="209.956" gradientUnits="userSpaceOnUse">
            <stop stop-color="#05C46B"/>
            <stop offset="0.34375" stop-color="#018346"/>
            <stop offset="0.6875" stop-color="#3FFDA5"/>
            <stop offset="1" stop-color="#05C46B"/>
        </linearGradient>
        <linearGradient id="paint6_linear_15160_14721" x1="78.2672" y1="161.774" x2="42.8813" y2="130.441" gradientUnits="userSpaceOnUse">
            <stop stop-color="#05C46B"/>
            <stop offset="0.34375" stop-color="#018346"/>
            <stop offset="0.6875" stop-color="#3FFDA5"/>
            <stop offset="1" stop-color="#05C46B"/>
        </linearGradient>
        <linearGradient id="paint7_linear_15160_14721" x1="163.467" y1="222.581" x2="76.5633" y2="197.818" gradientUnits="userSpaceOnUse">
            <stop stop-color="#05C46B"/>
            <stop offset="0.34375" stop-color="#018346"/>
            <stop offset="0.6875" stop-color="#3FFDA5"/>
            <stop offset="1" stop-color="#05C46B"/>
        </linearGradient>
    </defs>
</svg>
