<svg width="462" height="306" viewBox="0 0 462 306" fill="none" xmlns="http://www.w3.org/2000/svg">
    <path d="M391.5 189C391.5 189.276 391.724 189.5 392 189.5C392.276 189.5 392.5 189.276 392.5 189H391.5ZM413.562 162.5H439.438V161.5H413.562V162.5ZM460.5 184.5V189H461.5V184.5H460.5ZM392.5 189V184.5H391.5V189H392.5ZM439.438 162.5C451.05 162.5 460.5 172.329 460.5 184.5H461.5C461.5 171.818 451.642 161.5 439.438 161.5V162.5ZM413.562 161.5C401.358 161.5 391.5 171.818 391.5 184.5H392.5C392.5 172.329 401.95 162.5 413.562 162.5V161.5ZM443.25 133.875C443.25 142.908 435.761 150.25 426.5 150.25V151.25C436.293 151.25 444.25 143.481 444.25 133.875H443.25ZM426.5 150.25C417.239 150.25 409.75 142.908 409.75 133.875H408.75C408.75 143.481 416.707 151.25 426.5 151.25V150.25ZM409.75 133.875C409.75 124.842 417.239 117.5 426.5 117.5V116.5C416.707 116.5 408.75 124.269 408.75 133.875H409.75ZM426.5 117.5C435.761 117.5 443.25 124.842 443.25 133.875H444.25C444.25 124.269 436.293 116.5 426.5 116.5V117.5Z" fill="url(#paint0_linear_15160_14722)"/>
    <path d="M192.807 303L191.967 300.528H188.583L187.743 303H186.723L189.651 294.624H190.935L193.863 303H192.807ZM190.299 295.56H190.239L188.823 299.64H191.715L190.299 295.56ZM197.015 303.144C196.439 303.144 195.955 303.036 195.563 302.82C195.179 302.596 194.847 302.3 194.567 301.932L195.251 301.38C195.491 301.684 195.759 301.92 196.055 302.088C196.351 302.248 196.695 302.328 197.087 302.328C197.495 302.328 197.811 302.24 198.035 302.064C198.267 301.888 198.383 301.64 198.383 301.32C198.383 301.08 198.303 300.876 198.143 300.708C197.991 300.532 197.711 300.412 197.303 300.348L196.811 300.276C196.523 300.236 196.259 300.176 196.019 300.096C195.779 300.008 195.567 299.896 195.383 299.76C195.207 299.616 195.067 299.44 194.963 299.232C194.867 299.024 194.819 298.776 194.819 298.488C194.819 298.184 194.875 297.92 194.987 297.696C195.099 297.464 195.251 297.272 195.443 297.12C195.643 296.968 195.879 296.856 196.151 296.784C196.423 296.704 196.715 296.664 197.027 296.664C197.531 296.664 197.951 296.752 198.287 296.928C198.631 297.104 198.931 297.348 199.187 297.66L198.551 298.236C198.415 298.044 198.215 297.872 197.951 297.72C197.687 297.56 197.355 297.48 196.955 297.48C196.555 297.48 196.251 297.568 196.043 297.744C195.843 297.912 195.743 298.144 195.743 298.44C195.743 298.744 195.843 298.964 196.043 299.1C196.251 299.236 196.547 299.336 196.931 299.4L197.411 299.472C198.099 299.576 198.587 299.776 198.875 300.072C199.163 300.36 199.307 300.74 199.307 301.212C199.307 301.812 199.103 302.284 198.695 302.628C198.287 302.972 197.727 303.144 197.015 303.144ZM202.792 303.144C202.216 303.144 201.732 303.036 201.34 302.82C200.956 302.596 200.624 302.3 200.344 301.932L201.028 301.38C201.268 301.684 201.536 301.92 201.832 302.088C202.128 302.248 202.472 302.328 202.864 302.328C203.272 302.328 203.588 302.24 203.812 302.064C204.044 301.888 204.16 301.64 204.16 301.32C204.16 301.08 204.08 300.876 203.92 300.708C203.768 300.532 203.488 300.412 203.08 300.348L202.588 300.276C202.3 300.236 202.036 300.176 201.796 300.096C201.556 300.008 201.344 299.896 201.16 299.76C200.984 299.616 200.844 299.44 200.74 299.232C200.644 299.024 200.596 298.776 200.596 298.488C200.596 298.184 200.652 297.92 200.764 297.696C200.876 297.464 201.028 297.272 201.22 297.12C201.42 296.968 201.656 296.856 201.928 296.784C202.2 296.704 202.492 296.664 202.804 296.664C203.308 296.664 203.728 296.752 204.064 296.928C204.408 297.104 204.708 297.348 204.964 297.66L204.328 298.236C204.192 298.044 203.992 297.872 203.728 297.72C203.464 297.56 203.132 297.48 202.732 297.48C202.332 297.48 202.028 297.568 201.82 297.744C201.62 297.912 201.52 298.144 201.52 298.44C201.52 298.744 201.62 298.964 201.82 299.1C202.028 299.236 202.324 299.336 202.708 299.4L203.188 299.472C203.876 299.576 204.364 299.776 204.652 300.072C204.94 300.36 205.084 300.74 205.084 301.212C205.084 301.812 204.88 302.284 204.472 302.628C204.064 302.972 203.504 303.144 202.792 303.144ZM209.108 303.144C208.684 303.144 208.3 303.068 207.956 302.916C207.62 302.764 207.328 302.548 207.08 302.268C206.84 301.98 206.652 301.64 206.516 301.248C206.388 300.848 206.324 300.4 206.324 299.904C206.324 299.416 206.388 298.972 206.516 298.572C206.652 298.172 206.84 297.832 207.08 297.552C207.328 297.264 207.62 297.044 207.956 296.892C208.3 296.74 208.684 296.664 209.108 296.664C209.524 296.664 209.896 296.74 210.224 296.892C210.552 297.044 210.832 297.256 211.064 297.528C211.296 297.792 211.472 298.108 211.592 298.476C211.72 298.844 211.784 299.248 211.784 299.688V300.144H207.332V300.432C207.332 300.696 207.372 300.944 207.452 301.176C207.54 301.4 207.66 301.596 207.812 301.764C207.972 301.932 208.164 302.064 208.388 302.16C208.62 302.256 208.88 302.304 209.168 302.304C209.56 302.304 209.9 302.212 210.188 302.028C210.484 301.844 210.712 301.58 210.872 301.236L211.556 301.728C211.356 302.152 211.044 302.496 210.62 302.76C210.196 303.016 209.692 303.144 209.108 303.144ZM209.108 297.468C208.844 297.468 208.604 297.516 208.388 297.612C208.172 297.7 207.984 297.828 207.824 297.996C207.672 298.164 207.552 298.364 207.464 298.596C207.376 298.82 207.332 299.068 207.332 299.34V299.424H210.752V299.292C210.752 298.74 210.6 298.3 210.296 297.972C210 297.636 209.604 297.468 209.108 297.468ZM214.734 303C214.398 303 214.142 302.908 213.966 302.724C213.798 302.532 213.714 302.284 213.714 301.98V297.648H212.694V296.808H213.27C213.478 296.808 213.618 296.768 213.69 296.688C213.77 296.6 213.81 296.452 213.81 296.244V295.092H214.674V296.808H216.03V297.648H214.674V302.16H215.934V303H214.734Z" fill="#808085"/>
    <path d="M189.577 4.624H192.385C192.905 4.624 193.377 4.712 193.801 4.888C194.225 5.064 194.585 5.328 194.881 5.68C195.185 6.024 195.417 6.46 195.577 6.988C195.737 7.508 195.817 8.116 195.817 8.812C195.817 9.508 195.737 10.12 195.577 10.648C195.417 11.168 195.185 11.604 194.881 11.956C194.585 12.3 194.225 12.56 193.801 12.736C193.377 12.912 192.905 13 192.385 13H189.577V4.624ZM192.385 12.112C192.729 12.112 193.045 12.056 193.333 11.944C193.621 11.824 193.869 11.652 194.077 11.428C194.285 11.204 194.445 10.932 194.557 10.612C194.677 10.284 194.737 9.912 194.737 9.496V8.128C194.737 7.712 194.677 7.344 194.557 7.024C194.445 6.696 194.285 6.42 194.077 6.196C193.869 5.972 193.621 5.804 193.333 5.692C193.045 5.572 192.729 5.512 192.385 5.512H190.585V12.112H192.385ZM202.032 13C201.672 13 201.412 12.904 201.252 12.712C201.1 12.52 201.004 12.28 200.964 11.992H200.904C200.768 12.376 200.544 12.664 200.232 12.856C199.92 13.048 199.548 13.144 199.116 13.144C198.46 13.144 197.948 12.976 197.58 12.64C197.22 12.304 197.04 11.848 197.04 11.272C197.04 10.688 197.252 10.24 197.676 9.928C198.108 9.616 198.776 9.46 199.68 9.46H200.904V8.848C200.904 8.408 200.784 8.072 200.544 7.84C200.304 7.608 199.936 7.492 199.44 7.492C199.064 7.492 198.748 7.576 198.492 7.744C198.244 7.912 198.036 8.136 197.868 8.416L197.292 7.876C197.46 7.54 197.728 7.256 198.096 7.024C198.464 6.784 198.928 6.664 199.488 6.664C200.24 6.664 200.824 6.848 201.24 7.216C201.656 7.584 201.864 8.096 201.864 8.752V12.16H202.572V13H202.032ZM199.272 12.328C199.512 12.328 199.732 12.3 199.932 12.244C200.132 12.188 200.304 12.108 200.448 12.004C200.592 11.9 200.704 11.78 200.784 11.644C200.864 11.508 200.904 11.36 200.904 11.2V10.18H199.632C199.08 10.18 198.676 10.26 198.42 10.42C198.172 10.58 198.048 10.812 198.048 11.116V11.368C198.048 11.672 198.156 11.908 198.372 12.076C198.596 12.244 198.896 12.328 199.272 12.328ZM205.31 13C204.974 13 204.718 12.908 204.542 12.724C204.374 12.532 204.29 12.284 204.29 11.98V7.648H203.27V6.808H203.846C204.054 6.808 204.194 6.768 204.266 6.688C204.346 6.6 204.386 6.452 204.386 6.244V5.092H205.25V6.808H206.606V7.648H205.25V12.16H206.51V13H205.31ZM212.649 13C212.289 13 212.029 12.904 211.869 12.712C211.717 12.52 211.621 12.28 211.581 11.992H211.521C211.385 12.376 211.161 12.664 210.849 12.856C210.537 13.048 210.165 13.144 209.733 13.144C209.077 13.144 208.565 12.976 208.197 12.64C207.837 12.304 207.657 11.848 207.657 11.272C207.657 10.688 207.869 10.24 208.293 9.928C208.725 9.616 209.393 9.46 210.297 9.46H211.521V8.848C211.521 8.408 211.401 8.072 211.161 7.84C210.921 7.608 210.553 7.492 210.057 7.492C209.681 7.492 209.365 7.576 209.109 7.744C208.861 7.912 208.653 8.136 208.485 8.416L207.909 7.876C208.077 7.54 208.345 7.256 208.713 7.024C209.081 6.784 209.545 6.664 210.105 6.664C210.857 6.664 211.441 6.848 211.857 7.216C212.273 7.584 212.481 8.096 212.481 8.752V12.16H213.189V13H212.649ZM209.889 12.328C210.129 12.328 210.349 12.3 210.549 12.244C210.749 12.188 210.921 12.108 211.065 12.004C211.209 11.9 211.321 11.78 211.401 11.644C211.481 11.508 211.521 11.36 211.521 11.2V10.18H210.249C209.697 10.18 209.293 10.26 209.037 10.42C208.789 10.58 208.665 10.812 208.665 11.116V11.368C208.665 11.672 208.773 11.908 208.989 12.076C209.213 12.244 209.513 12.328 209.889 12.328Z" fill="#808085"/>
    <path d="M23.2106 97.144C22.1466 97.144 21.3186 96.784 20.7266 96.064C20.1346 95.336 19.8386 94.268 19.8386 92.86C19.8386 91.452 20.1346 90.372 20.7266 89.62C21.3186 88.86 22.1466 88.48 23.2106 88.48C23.9146 88.48 24.5026 88.64 24.9746 88.96C25.4546 89.28 25.8266 89.732 26.0906 90.316L25.2746 90.808C25.1066 90.376 24.8506 90.032 24.5066 89.776C24.1626 89.512 23.7306 89.38 23.2106 89.38C22.8506 89.38 22.5266 89.448 22.2386 89.584C21.9586 89.72 21.7186 89.916 21.5186 90.172C21.3266 90.42 21.1786 90.72 21.0746 91.072C20.9706 91.416 20.9186 91.804 20.9186 92.236V93.484C20.9186 94.348 21.1186 95.024 21.5186 95.512C21.9186 96 22.4826 96.244 23.2106 96.244C23.7466 96.244 24.1946 96.108 24.5546 95.836C24.9146 95.556 25.1786 95.188 25.3466 94.732L26.1506 95.236C25.8866 95.828 25.5066 96.296 25.0106 96.64C24.5146 96.976 23.9146 97.144 23.2106 97.144ZM29.9557 97.144C29.5397 97.144 29.1597 97.068 28.8157 96.916C28.4717 96.764 28.1757 96.548 27.9277 96.268C27.6877 95.98 27.4997 95.64 27.3637 95.248C27.2277 94.848 27.1597 94.4 27.1597 93.904C27.1597 93.416 27.2277 92.972 27.3637 92.572C27.4997 92.172 27.6877 91.832 27.9277 91.552C28.1757 91.264 28.4717 91.044 28.8157 90.892C29.1597 90.74 29.5397 90.664 29.9557 90.664C30.3717 90.664 30.7477 90.74 31.0837 90.892C31.4277 91.044 31.7237 91.264 31.9717 91.552C32.2197 91.832 32.4117 92.172 32.5477 92.572C32.6837 92.972 32.7517 93.416 32.7517 93.904C32.7517 94.4 32.6837 94.848 32.5477 95.248C32.4117 95.64 32.2197 95.98 31.9717 96.268C31.7237 96.548 31.4277 96.764 31.0837 96.916C30.7477 97.068 30.3717 97.144 29.9557 97.144ZM29.9557 96.292C30.4757 96.292 30.8997 96.132 31.2277 95.812C31.5557 95.492 31.7197 95.004 31.7197 94.348V93.46C31.7197 92.804 31.5557 92.316 31.2277 91.996C30.8997 91.676 30.4757 91.516 29.9557 91.516C29.4357 91.516 29.0117 91.676 28.6837 91.996C28.3557 92.316 28.1917 92.804 28.1917 93.46V94.348C28.1917 95.004 28.3557 95.492 28.6837 95.812C29.0117 96.132 29.4357 96.292 29.9557 96.292ZM38.2905 95.992H38.2425C37.8665 96.76 37.2625 97.144 36.4305 97.144C36.0465 97.144 35.6985 97.068 35.3865 96.916C35.0745 96.764 34.8065 96.548 34.5825 96.268C34.3665 95.988 34.1985 95.648 34.0785 95.248C33.9665 94.848 33.9105 94.4 33.9105 93.904C33.9105 93.408 33.9665 92.96 34.0785 92.56C34.1985 92.16 34.3665 91.82 34.5825 91.54C34.8065 91.26 35.0745 91.044 35.3865 90.892C35.6985 90.74 36.0465 90.664 36.4305 90.664C36.8625 90.664 37.2305 90.76 37.5345 90.952C37.8465 91.136 38.0825 91.424 38.2425 91.816H38.2905V88.12H39.2505V97H38.2905V95.992ZM36.6945 96.28C36.9105 96.28 37.1145 96.252 37.3065 96.196C37.5065 96.14 37.6785 96.06 37.8225 95.956C37.9665 95.844 38.0785 95.712 38.1585 95.56C38.2465 95.4 38.2905 95.22 38.2905 95.02V92.716C38.2905 92.548 38.2465 92.392 38.1585 92.248C38.0785 92.096 37.9665 91.968 37.8225 91.864C37.6785 91.76 37.5065 91.68 37.3065 91.624C37.1145 91.56 36.9105 91.528 36.6945 91.528C36.1505 91.528 35.7225 91.7 35.4105 92.044C35.0985 92.38 34.9425 92.824 34.9425 93.376V94.432C34.9425 94.984 35.0985 95.432 35.4105 95.776C35.7225 96.112 36.1505 96.28 36.6945 96.28ZM43.6195 97.144C43.1955 97.144 42.8115 97.068 42.4675 96.916C42.1315 96.764 41.8395 96.548 41.5915 96.268C41.3515 95.98 41.1635 95.64 41.0275 95.248C40.8995 94.848 40.8355 94.4 40.8355 93.904C40.8355 93.416 40.8995 92.972 41.0275 92.572C41.1635 92.172 41.3515 91.832 41.5915 91.552C41.8395 91.264 42.1315 91.044 42.4675 90.892C42.8115 90.74 43.1955 90.664 43.6195 90.664C44.0355 90.664 44.4075 90.74 44.7355 90.892C45.0635 91.044 45.3435 91.256 45.5755 91.528C45.8075 91.792 45.9835 92.108 46.1035 92.476C46.2315 92.844 46.2955 93.248 46.2955 93.688V94.144H41.8435V94.432C41.8435 94.696 41.8835 94.944 41.9635 95.176C42.0515 95.4 42.1715 95.596 42.3235 95.764C42.4835 95.932 42.6755 96.064 42.8995 96.16C43.1315 96.256 43.3915 96.304 43.6795 96.304C44.0715 96.304 44.4115 96.212 44.6995 96.028C44.9955 95.844 45.2235 95.58 45.3835 95.236L46.0675 95.728C45.8675 96.152 45.5555 96.496 45.1315 96.76C44.7075 97.016 44.2035 97.144 43.6195 97.144ZM43.6195 91.468C43.3555 91.468 43.1155 91.516 42.8995 91.612C42.6835 91.7 42.4955 91.828 42.3355 91.996C42.1835 92.164 42.0635 92.364 41.9755 92.596C41.8875 92.82 41.8435 93.068 41.8435 93.34V93.424H45.2635V93.292C45.2635 92.74 45.1115 92.3 44.8075 91.972C44.5115 91.636 44.1155 91.468 43.6195 91.468Z" fill="#808085"/>
    <path d="M411.767 90.944H411.707L410.999 92.348L408.995 95.996L406.991 92.348L406.283 90.944H406.223V98H405.239V89.624H406.583L408.983 94.136H409.043L411.455 89.624H412.751V98H411.767V90.944ZM417.209 98.144C416.785 98.144 416.401 98.068 416.057 97.916C415.721 97.764 415.429 97.548 415.181 97.268C414.941 96.98 414.753 96.64 414.617 96.248C414.489 95.848 414.425 95.4 414.425 94.904C414.425 94.416 414.489 93.972 414.617 93.572C414.753 93.172 414.941 92.832 415.181 92.552C415.429 92.264 415.721 92.044 416.057 91.892C416.401 91.74 416.785 91.664 417.209 91.664C417.625 91.664 417.997 91.74 418.325 91.892C418.653 92.044 418.933 92.256 419.165 92.528C419.397 92.792 419.573 93.108 419.693 93.476C419.821 93.844 419.885 94.248 419.885 94.688V95.144H415.433V95.432C415.433 95.696 415.473 95.944 415.553 96.176C415.641 96.4 415.761 96.596 415.913 96.764C416.073 96.932 416.265 97.064 416.489 97.16C416.721 97.256 416.981 97.304 417.269 97.304C417.661 97.304 418.001 97.212 418.289 97.028C418.585 96.844 418.813 96.58 418.973 96.236L419.657 96.728C419.457 97.152 419.145 97.496 418.721 97.76C418.297 98.016 417.793 98.144 417.209 98.144ZM417.209 92.468C416.945 92.468 416.705 92.516 416.489 92.612C416.273 92.7 416.085 92.828 415.925 92.996C415.773 93.164 415.653 93.364 415.565 93.596C415.477 93.82 415.433 94.068 415.433 94.34V94.424H418.853V94.292C418.853 93.74 418.701 93.3 418.397 92.972C418.101 92.636 417.705 92.468 417.209 92.468ZM421.467 98V91.808H422.427V92.816H422.475C422.547 92.656 422.627 92.508 422.715 92.372C422.811 92.228 422.923 92.104 423.051 92C423.187 91.896 423.343 91.816 423.519 91.76C423.695 91.696 423.903 91.664 424.143 91.664C424.551 91.664 424.927 91.764 425.271 91.964C425.615 92.156 425.871 92.476 426.039 92.924H426.063C426.175 92.588 426.383 92.296 426.687 92.048C426.999 91.792 427.419 91.664 427.947 91.664C428.579 91.664 429.071 91.872 429.423 92.288C429.783 92.696 429.963 93.276 429.963 94.028V98H429.003V94.196C429.003 93.644 428.895 93.228 428.679 92.948C428.463 92.668 428.119 92.528 427.647 92.528C427.455 92.528 427.271 92.552 427.095 92.6C426.927 92.648 426.775 92.72 426.639 92.816C426.503 92.912 426.395 93.036 426.315 93.188C426.235 93.332 426.195 93.504 426.195 93.704V98H425.235V94.196C425.235 93.644 425.127 93.228 424.911 92.948C424.695 92.668 424.359 92.528 423.903 92.528C423.711 92.528 423.527 92.552 423.351 92.6C423.175 92.648 423.019 92.72 422.883 92.816C422.747 92.912 422.635 93.036 422.547 93.188C422.467 93.332 422.427 93.504 422.427 93.704V98H421.467ZM431.944 89.12H432.904V92.816H432.952C433.112 92.424 433.344 92.136 433.648 91.952C433.96 91.76 434.332 91.664 434.764 91.664C435.148 91.664 435.496 91.74 435.808 91.892C436.12 92.044 436.384 92.26 436.6 92.54C436.824 92.82 436.992 93.16 437.104 93.56C437.224 93.96 437.284 94.408 437.284 94.904C437.284 95.4 437.224 95.848 437.104 96.248C436.992 96.648 436.824 96.988 436.6 97.268C436.384 97.548 436.12 97.764 435.808 97.916C435.496 98.068 435.148 98.144 434.764 98.144C433.924 98.144 433.32 97.76 432.952 96.992H432.904V98H431.944V89.12ZM434.5 97.28C435.044 97.28 435.472 97.112 435.784 96.776C436.096 96.432 436.252 95.984 436.252 95.432V94.376C436.252 93.824 436.096 93.38 435.784 93.044C435.472 92.7 435.044 92.528 434.5 92.528C434.284 92.528 434.076 92.56 433.876 92.624C433.684 92.68 433.516 92.76 433.372 92.864C433.228 92.968 433.112 93.096 433.024 93.248C432.944 93.392 432.904 93.548 432.904 93.716V96.02C432.904 96.22 432.944 96.4 433.024 96.56C433.112 96.712 433.228 96.844 433.372 96.956C433.516 97.06 433.684 97.14 433.876 97.196C434.076 97.252 434.284 97.28 434.5 97.28ZM441.233 98.144C440.809 98.144 440.425 98.068 440.081 97.916C439.745 97.764 439.453 97.548 439.205 97.268C438.965 96.98 438.777 96.64 438.641 96.248C438.513 95.848 438.449 95.4 438.449 94.904C438.449 94.416 438.513 93.972 438.641 93.572C438.777 93.172 438.965 92.832 439.205 92.552C439.453 92.264 439.745 92.044 440.081 91.892C440.425 91.74 440.809 91.664 441.233 91.664C441.649 91.664 442.021 91.74 442.349 91.892C442.677 92.044 442.957 92.256 443.189 92.528C443.421 92.792 443.597 93.108 443.717 93.476C443.845 93.844 443.909 94.248 443.909 94.688V95.144H439.457V95.432C439.457 95.696 439.497 95.944 439.577 96.176C439.665 96.4 439.785 96.596 439.937 96.764C440.097 96.932 440.289 97.064 440.513 97.16C440.745 97.256 441.005 97.304 441.293 97.304C441.685 97.304 442.025 97.212 442.313 97.028C442.609 96.844 442.837 96.58 442.997 96.236L443.681 96.728C443.481 97.152 443.169 97.496 442.745 97.76C442.321 98.016 441.817 98.144 441.233 98.144ZM441.233 92.468C440.969 92.468 440.729 92.516 440.513 92.612C440.297 92.7 440.109 92.828 439.949 92.996C439.797 93.164 439.677 93.364 439.589 93.596C439.501 93.82 439.457 94.068 439.457 94.34V94.424H442.877V94.292C442.877 93.74 442.725 93.3 442.421 92.972C442.125 92.636 441.729 92.468 441.233 92.468ZM445.491 98V91.808H446.451V92.948H446.511C446.623 92.652 446.823 92.388 447.111 92.156C447.399 91.924 447.795 91.808 448.299 91.808H448.671V92.768H448.107C447.587 92.768 447.179 92.868 446.883 93.068C446.595 93.26 446.451 93.504 446.451 93.8V98H445.491Z" fill="#808085"/>
    <path d="M256.335 203L254.295 194.624H255.363L256.263 198.656L256.959 201.788H256.983L257.763 198.656L258.819 194.624H259.971L260.991 198.656L261.771 201.776H261.807L262.527 198.656L263.475 194.624H264.507L262.359 203H261.243L260.151 198.824L259.383 195.752H259.359L258.567 198.824L257.451 203H256.335ZM270.145 203C269.785 203 269.525 202.904 269.365 202.712C269.213 202.52 269.117 202.28 269.077 201.992H269.017C268.881 202.376 268.657 202.664 268.345 202.856C268.033 203.048 267.661 203.144 267.229 203.144C266.573 203.144 266.061 202.976 265.693 202.64C265.333 202.304 265.153 201.848 265.153 201.272C265.153 200.688 265.365 200.24 265.789 199.928C266.221 199.616 266.889 199.46 267.793 199.46H269.017V198.848C269.017 198.408 268.897 198.072 268.657 197.84C268.417 197.608 268.049 197.492 267.553 197.492C267.177 197.492 266.861 197.576 266.605 197.744C266.357 197.912 266.149 198.136 265.981 198.416L265.405 197.876C265.573 197.54 265.841 197.256 266.209 197.024C266.577 196.784 267.041 196.664 267.601 196.664C268.353 196.664 268.937 196.848 269.353 197.216C269.769 197.584 269.977 198.096 269.977 198.752V202.16H270.685V203H270.145ZM267.385 202.328C267.625 202.328 267.845 202.3 268.045 202.244C268.245 202.188 268.417 202.108 268.561 202.004C268.705 201.9 268.817 201.78 268.897 201.644C268.977 201.508 269.017 201.36 269.017 201.2V200.18H267.745C267.193 200.18 266.789 200.26 266.533 200.42C266.285 200.58 266.161 200.812 266.161 201.116V201.368C266.161 201.672 266.269 201.908 266.485 202.076C266.709 202.244 267.009 202.328 267.385 202.328ZM273.075 203C272.739 203 272.483 202.908 272.307 202.724C272.139 202.532 272.055 202.292 272.055 202.004V194.12H273.015V202.16H273.927V203H273.075ZM276.286 203C275.95 203 275.694 202.908 275.518 202.724C275.35 202.532 275.266 202.292 275.266 202.004V194.12H276.226V202.16H277.138V203H276.286ZM280.864 203.144C280.44 203.144 280.056 203.068 279.712 202.916C279.376 202.764 279.084 202.548 278.836 202.268C278.596 201.98 278.408 201.64 278.272 201.248C278.144 200.848 278.08 200.4 278.08 199.904C278.08 199.416 278.144 198.972 278.272 198.572C278.408 198.172 278.596 197.832 278.836 197.552C279.084 197.264 279.376 197.044 279.712 196.892C280.056 196.74 280.44 196.664 280.864 196.664C281.28 196.664 281.652 196.74 281.98 196.892C282.308 197.044 282.588 197.256 282.82 197.528C283.052 197.792 283.228 198.108 283.348 198.476C283.476 198.844 283.54 199.248 283.54 199.688V200.144H279.088V200.432C279.088 200.696 279.128 200.944 279.208 201.176C279.296 201.4 279.416 201.596 279.568 201.764C279.728 201.932 279.92 202.064 280.144 202.16C280.376 202.256 280.636 202.304 280.924 202.304C281.316 202.304 281.656 202.212 281.944 202.028C282.24 201.844 282.468 201.58 282.628 201.236L283.312 201.728C283.112 202.152 282.8 202.496 282.376 202.76C281.952 203.016 281.448 203.144 280.864 203.144ZM280.864 197.468C280.6 197.468 280.36 197.516 280.144 197.612C279.928 197.7 279.74 197.828 279.58 197.996C279.428 198.164 279.308 198.364 279.22 198.596C279.132 198.82 279.088 199.068 279.088 199.34V199.424H282.508V199.292C282.508 198.74 282.356 198.3 282.052 197.972C281.756 197.636 281.36 197.468 280.864 197.468ZM286.49 203C286.154 203 285.898 202.908 285.722 202.724C285.554 202.532 285.47 202.284 285.47 201.98V197.648H284.45V196.808H285.026C285.234 196.808 285.374 196.768 285.446 196.688C285.526 196.6 285.566 196.452 285.566 196.244V195.092H286.43V196.808H287.786V197.648H286.43V202.16H287.69V203H286.49ZM292.377 203.144C291.313 203.144 290.485 202.784 289.893 202.064C289.301 201.336 289.005 200.268 289.005 198.86C289.005 197.452 289.301 196.372 289.893 195.62C290.485 194.86 291.313 194.48 292.377 194.48C293.081 194.48 293.669 194.64 294.141 194.96C294.621 195.28 294.993 195.732 295.257 196.316L294.441 196.808C294.273 196.376 294.017 196.032 293.673 195.776C293.329 195.512 292.897 195.38 292.377 195.38C292.017 195.38 291.693 195.448 291.405 195.584C291.125 195.72 290.885 195.916 290.685 196.172C290.493 196.42 290.345 196.72 290.241 197.072C290.137 197.416 290.085 197.804 290.085 198.236V199.484C290.085 200.348 290.285 201.024 290.685 201.512C291.085 202 291.649 202.244 292.377 202.244C292.913 202.244 293.361 202.108 293.721 201.836C294.081 201.556 294.345 201.188 294.513 200.732L295.317 201.236C295.053 201.828 294.673 202.296 294.177 202.64C293.681 202.976 293.081 203.144 292.377 203.144ZM299.122 203.144C298.706 203.144 298.326 203.068 297.982 202.916C297.638 202.764 297.342 202.548 297.094 202.268C296.854 201.98 296.666 201.64 296.53 201.248C296.394 200.848 296.326 200.4 296.326 199.904C296.326 199.416 296.394 198.972 296.53 198.572C296.666 198.172 296.854 197.832 297.094 197.552C297.342 197.264 297.638 197.044 297.982 196.892C298.326 196.74 298.706 196.664 299.122 196.664C299.538 196.664 299.914 196.74 300.25 196.892C300.594 197.044 300.89 197.264 301.138 197.552C301.386 197.832 301.578 198.172 301.714 198.572C301.85 198.972 301.918 199.416 301.918 199.904C301.918 200.4 301.85 200.848 301.714 201.248C301.578 201.64 301.386 201.98 301.138 202.268C300.89 202.548 300.594 202.764 300.25 202.916C299.914 203.068 299.538 203.144 299.122 203.144ZM299.122 202.292C299.642 202.292 300.066 202.132 300.394 201.812C300.722 201.492 300.886 201.004 300.886 200.348V199.46C300.886 198.804 300.722 198.316 300.394 197.996C300.066 197.676 299.642 197.516 299.122 197.516C298.602 197.516 298.178 197.676 297.85 197.996C297.522 198.316 297.358 198.804 297.358 199.46V200.348C297.358 201.004 297.522 201.492 297.85 201.812C298.178 202.132 298.602 202.292 299.122 202.292ZM303.497 203V196.808H304.457V197.816H304.505C304.657 197.464 304.869 197.184 305.141 196.976C305.421 196.768 305.793 196.664 306.257 196.664C306.897 196.664 307.401 196.872 307.769 197.288C308.145 197.696 308.333 198.276 308.333 199.028V203H307.373V199.196C307.373 198.084 306.905 197.528 305.969 197.528C305.777 197.528 305.589 197.552 305.405 197.6C305.229 197.648 305.069 197.72 304.925 197.816C304.781 197.912 304.665 198.036 304.577 198.188C304.497 198.332 304.457 198.504 304.457 198.704V203H303.497ZM310.317 203V196.808H311.277V197.816H311.325C311.477 197.464 311.689 197.184 311.961 196.976C312.241 196.768 312.613 196.664 313.077 196.664C313.717 196.664 314.221 196.872 314.589 197.288C314.965 197.696 315.153 198.276 315.153 199.028V203H314.193V199.196C314.193 198.084 313.725 197.528 312.789 197.528C312.597 197.528 312.409 197.552 312.225 197.6C312.049 197.648 311.889 197.72 311.745 197.816C311.601 197.912 311.485 198.036 311.397 198.188C311.317 198.332 311.277 198.504 311.277 198.704V203H310.317ZM319.465 203.144C319.041 203.144 318.657 203.068 318.313 202.916C317.977 202.764 317.685 202.548 317.437 202.268C317.197 201.98 317.009 201.64 316.873 201.248C316.745 200.848 316.681 200.4 316.681 199.904C316.681 199.416 316.745 198.972 316.873 198.572C317.009 198.172 317.197 197.832 317.437 197.552C317.685 197.264 317.977 197.044 318.313 196.892C318.657 196.74 319.041 196.664 319.465 196.664C319.881 196.664 320.253 196.74 320.581 196.892C320.909 197.044 321.189 197.256 321.421 197.528C321.653 197.792 321.829 198.108 321.949 198.476C322.077 198.844 322.141 199.248 322.141 199.688V200.144H317.689V200.432C317.689 200.696 317.729 200.944 317.809 201.176C317.897 201.4 318.017 201.596 318.169 201.764C318.329 201.932 318.521 202.064 318.745 202.16C318.977 202.256 319.237 202.304 319.525 202.304C319.917 202.304 320.257 202.212 320.545 202.028C320.841 201.844 321.069 201.58 321.229 201.236L321.913 201.728C321.713 202.152 321.401 202.496 320.977 202.76C320.553 203.016 320.049 203.144 319.465 203.144ZM319.465 197.468C319.201 197.468 318.961 197.516 318.745 197.612C318.529 197.7 318.341 197.828 318.181 197.996C318.029 198.164 317.909 198.364 317.821 198.596C317.733 198.82 317.689 199.068 317.689 199.34V199.424H321.109V199.292C321.109 198.74 320.957 198.3 320.653 197.972C320.357 197.636 319.961 197.468 319.465 197.468ZM326.027 203.144C325.595 203.144 325.207 203.068 324.863 202.916C324.519 202.764 324.227 202.548 323.987 202.268C323.755 201.988 323.575 201.648 323.447 201.248C323.327 200.848 323.267 200.4 323.267 199.904C323.267 199.408 323.327 198.96 323.447 198.56C323.575 198.16 323.755 197.82 323.987 197.54C324.227 197.26 324.519 197.044 324.863 196.892C325.207 196.74 325.595 196.664 326.027 196.664C326.643 196.664 327.135 196.8 327.503 197.072C327.879 197.336 328.159 197.684 328.343 198.116L327.539 198.524C327.427 198.204 327.243 197.956 326.987 197.78C326.731 197.604 326.411 197.516 326.027 197.516C325.739 197.516 325.487 197.564 325.271 197.66C325.055 197.748 324.875 197.876 324.731 198.044C324.587 198.204 324.479 198.4 324.407 198.632C324.335 198.856 324.299 199.104 324.299 199.376V200.432C324.299 200.976 324.443 201.424 324.731 201.776C325.027 202.12 325.459 202.292 326.027 202.292C326.803 202.292 327.363 201.932 327.707 201.212L328.403 201.68C328.203 202.128 327.903 202.484 327.503 202.748C327.111 203.012 326.619 203.144 326.027 203.144ZM331.126 203C330.79 203 330.534 202.908 330.358 202.724C330.19 202.532 330.106 202.284 330.106 201.98V197.648H329.086V196.808H329.662C329.87 196.808 330.01 196.768 330.082 196.688C330.162 196.6 330.202 196.452 330.202 196.244V195.092H331.066V196.808H332.422V197.648H331.066V202.16H332.326V203H331.126Z" fill="#808085"/>
    <path d="M334.621 159.32C334.798 159.532 335.113 159.561 335.325 159.384C335.537 159.207 335.566 158.892 335.389 158.68L334.621 159.32ZM330.005 153L329.621 152.68C329.466 152.865 329.466 153.135 329.621 153.32L330.005 153ZM335.389 147.32C335.566 147.108 335.537 146.793 335.325 146.616C335.113 146.439 334.798 146.468 334.621 146.68L335.389 147.32ZM330 153.498H365V152.498H330V153.498ZM335.389 158.68L330.389 152.68L329.621 153.32L334.621 159.32L335.389 158.68ZM330.389 153.32L335.389 147.32L334.621 146.68L329.621 152.68L330.389 153.32Z" fill="url(#paint1_linear_15160_14722)"/>
    <path d="M221.205 129.643L220.774 129.897L221.205 129.643ZM223.04 132.749L223.471 132.495V132.495L223.04 132.749ZM215.164 126.31L214.706 126.511L215.164 126.31ZM216.605 129.596L216.147 129.797L216.296 130.135L216.663 130.092L216.605 129.596ZM220.253 129.171L220.311 129.667L220.253 129.171ZM203.628 129.643L203.198 129.388L203.628 129.643ZM201.793 132.749L201.362 132.495L201.793 132.749ZM204.579 129.171L204.522 129.667L204.579 129.171ZM208.227 129.596L208.17 130.092L208.537 130.135L208.685 129.797L208.227 129.596ZM209.669 126.31L209.211 126.109V126.109L209.669 126.31ZM222.975 133.837L222.578 133.533L222.975 133.837ZM220.794 136.685L220.397 136.381L220.164 136.685L220.397 136.989L220.794 136.685ZM201.858 133.837L201.461 134.141L201.858 133.837ZM204.039 136.685L204.436 136.989L204.668 136.685L204.436 136.381L204.039 136.685ZM221.205 143.728L220.774 143.473L221.205 143.728ZM223.04 140.621L223.471 140.875L223.04 140.621ZM215.164 147.06L214.706 146.859L215.164 147.06ZM216.605 143.774L216.663 143.278L216.296 143.235L216.147 143.574L216.605 143.774ZM220.253 144.2L220.311 143.703L220.253 144.2ZM203.628 143.727L204.059 143.473L203.628 143.727ZM201.793 140.621L202.223 140.367L201.793 140.621ZM204.58 144.199L204.637 144.696L204.58 144.199ZM208.227 143.774L208.685 143.574L208.537 143.235L208.17 143.278L208.227 143.774ZM209.669 147.06L209.211 147.261L209.669 147.06ZM222.975 139.533L223.372 139.229L222.975 139.533ZM201.858 139.533L201.461 139.229L201.858 139.533ZM178.568 164.607H178.068C178.068 164.822 178.204 165.012 178.408 165.081L178.568 164.607ZM178.568 158.925L178.408 158.452C178.204 158.52 178.068 158.711 178.068 158.925H178.568ZM184.169 157.031L184.329 157.505L184.873 157.321L184.616 156.807L184.169 157.031ZM181.509 151.722L181.153 151.371C181.003 151.524 180.966 151.755 181.062 151.946L181.509 151.722ZM185.469 147.705L185.698 147.26C185.504 147.16 185.267 147.198 185.113 147.354L185.469 147.705ZM190.703 150.403L190.474 150.847L190.995 151.116L191.178 150.559L190.703 150.403ZM192.57 144.721V144.221C192.354 144.221 192.162 144.36 192.095 144.565L192.57 144.721ZM198.171 144.721L198.646 144.565C198.578 144.36 198.387 144.221 198.171 144.221V144.721ZM200.038 150.403L199.563 150.559L199.746 151.116L200.267 150.847L200.038 150.403ZM205.271 147.705L205.627 147.354C205.474 147.198 205.237 147.16 205.042 147.26L205.271 147.705ZM209.232 151.722L209.679 151.946C209.775 151.755 209.738 151.524 209.588 151.371L209.232 151.722ZM206.572 157.031L206.125 156.807L205.868 157.321L206.412 157.505L206.572 157.031ZM212.173 158.925H212.673C212.673 158.711 212.536 158.52 212.333 158.452L212.173 158.925ZM212.173 164.607L212.333 165.081C212.536 165.012 212.673 164.822 212.673 164.607H212.173ZM206.572 166.501L206.412 166.027L205.868 166.211L206.125 166.725L206.572 166.501ZM209.232 171.81L209.588 172.161C209.738 172.009 209.775 171.778 209.679 171.586L209.232 171.81ZM205.271 175.828L205.042 176.272C205.237 176.373 205.474 176.335 205.627 176.179L205.271 175.828ZM200.038 173.13L200.267 172.685L199.746 172.417L199.563 172.974L200.038 173.13ZM198.171 178.812V179.312C198.387 179.312 198.578 179.173 198.646 178.968L198.171 178.812ZM192.57 178.812L192.095 178.968C192.162 179.173 192.354 179.312 192.57 179.312V178.812ZM190.703 173.13L191.178 172.974L190.995 172.417L190.474 172.685L190.703 173.13ZM185.469 175.828L185.113 176.179C185.267 176.335 185.504 176.373 185.698 176.272L185.469 175.828ZM181.509 171.81L181.062 171.586C180.966 171.778 181.003 172.009 181.153 172.161L181.509 171.81ZM184.169 166.501L184.616 166.725L184.873 166.211L184.329 166.027L184.169 166.501ZM106 153.5H159.086V152.5H106V153.5ZM242.856 153.5H273V152.5H242.856V153.5ZM201.471 233V194.883H200.471V233H201.471ZM201.471 111.117V73H200.471V111.117H201.471ZM220.774 129.897L222.61 133.004L223.471 132.495L221.635 129.388L220.774 129.897ZM214.272 125.227H210.561V126.227H214.272V125.227ZM214.706 126.511L216.147 129.797L217.063 129.395L215.622 126.109L214.706 126.511ZM220.195 128.674L216.547 129.099L216.663 130.092L220.311 129.667L220.195 128.674ZM203.198 129.388L201.362 132.495L202.223 133.004L204.059 129.897L203.198 129.388ZM204.522 129.667L208.17 130.092L208.285 129.099L204.637 128.674L204.522 129.667ZM209.211 126.109L207.77 129.395L208.685 129.797L210.126 126.511L209.211 126.109ZM222.578 133.533L220.397 136.381L221.191 136.989L223.372 134.141L222.578 133.533ZM201.461 134.141L203.642 136.989L204.436 136.381L202.255 133.533L201.461 134.141ZM221.635 143.982L223.471 140.875L222.61 140.367L220.774 143.473L221.635 143.982ZM214.272 147.143H210.561V148.143H214.272V147.143ZM215.622 147.261L217.063 143.975L216.147 143.574L214.706 146.859L215.622 147.261ZM220.311 143.703L216.663 143.278L216.547 144.271L220.195 144.696L220.311 143.703ZM204.059 143.473L202.223 140.367L201.362 140.875L203.198 143.982L204.059 143.473ZM204.637 144.696L208.285 144.271L208.17 143.278L204.522 143.703L204.637 144.696ZM210.126 146.859L208.685 143.574L207.77 143.975L209.211 147.261L210.126 146.859ZM223.372 139.229L221.191 136.381L220.397 136.989L222.578 139.837L223.372 139.229ZM202.255 139.837L204.436 136.989L203.642 136.381L201.461 139.229L202.255 139.837ZM202.223 140.367C202.125 140.2 202.137 139.991 202.255 139.837L201.461 139.229C201.095 139.707 201.056 140.358 201.362 140.875L202.223 140.367ZM203.198 143.982C203.494 144.484 204.058 144.764 204.637 144.696L204.522 143.703C204.335 143.725 204.154 143.634 204.059 143.473L203.198 143.982ZM220.774 143.473C220.679 143.635 220.497 143.725 220.311 143.703L220.195 144.696C220.774 144.764 221.339 144.484 221.635 143.982L220.774 143.473ZM201.362 132.495C201.056 133.012 201.095 133.664 201.461 134.141L202.255 133.533C202.137 133.379 202.125 133.17 202.223 133.004L201.362 132.495ZM210.561 125.227C209.975 125.227 209.446 125.573 209.211 126.109L210.126 126.511C210.202 126.339 210.372 126.227 210.561 126.227V125.227ZM210.561 147.143C210.372 147.143 210.202 147.032 210.126 146.859L209.211 147.261C209.446 147.797 209.975 148.143 210.561 148.143V147.143ZM214.272 126.227C214.46 126.227 214.631 126.339 214.706 126.511L215.622 126.109C215.387 125.573 214.857 125.227 214.272 125.227V126.227ZM214.272 148.143C214.857 148.143 215.387 147.797 215.622 147.261L214.706 146.859C214.631 147.032 214.46 147.143 214.272 147.143V148.143ZM222.61 133.004C222.708 133.17 222.696 133.379 222.578 133.533L223.372 134.141C223.737 133.664 223.777 133.012 223.471 132.495L222.61 133.004ZM204.059 129.897C204.154 129.736 204.335 129.646 204.522 129.667L204.637 128.674C204.058 128.607 203.494 128.887 203.198 129.388L204.059 129.897ZM223.471 140.875C223.777 140.358 223.737 139.707 223.372 139.229L222.578 139.837C222.696 139.991 222.708 140.2 222.61 140.367L223.471 140.875ZM221.635 129.388C221.339 128.886 220.774 128.607 220.195 128.674L220.311 129.667C220.497 129.646 220.679 129.736 220.774 129.897L221.635 129.388ZM179.068 164.607V158.925H178.068V164.607H179.068ZM178.728 159.399L184.329 157.505L184.008 156.558L178.408 158.452L178.728 159.399ZM184.616 156.807L181.956 151.498L181.062 151.946L183.722 157.255L184.616 156.807ZM181.865 152.073L185.825 148.056L185.113 147.354L181.153 151.371L181.865 152.073ZM185.24 148.149L190.474 150.847L190.932 149.958L185.698 147.26L185.24 148.149ZM191.178 150.559L193.045 144.877L192.095 144.565L190.228 150.247L191.178 150.559ZM192.57 145.221H198.171V144.221H192.57V145.221ZM197.696 144.877L199.563 150.559L200.513 150.247L198.646 144.565L197.696 144.877ZM200.267 150.847L205.5 148.149L205.042 147.26L199.809 149.958L200.267 150.847ZM204.915 148.056L208.876 152.073L209.588 151.371L205.627 147.354L204.915 148.056ZM208.785 151.498L206.125 156.807L207.019 157.255L209.679 151.946L208.785 151.498ZM206.412 157.505L212.013 159.399L212.333 158.452L206.732 156.558L206.412 157.505ZM211.673 158.925V164.607H212.673V158.925H211.673ZM212.013 164.134L206.412 166.027L206.732 166.975L212.333 165.081L212.013 164.134ZM206.125 166.725L208.785 172.034L209.679 171.586L207.019 166.277L206.125 166.725ZM208.876 171.459L204.915 175.477L205.627 176.179L209.588 172.161L208.876 171.459ZM205.5 175.384L200.267 172.685L199.809 173.574L205.042 176.272L205.5 175.384ZM199.563 172.974L197.696 178.656L198.646 178.968L200.513 173.286L199.563 172.974ZM198.171 178.312H192.57V179.312H198.171V178.312ZM193.045 178.656L191.178 172.974L190.228 173.286L192.095 178.968L193.045 178.656ZM190.474 172.685L185.24 175.384L185.698 176.272L190.932 173.574L190.474 172.685ZM185.825 175.477L181.865 171.459L181.153 172.161L185.113 176.179L185.825 175.477ZM181.956 172.034L184.616 166.725L183.722 166.277L181.062 171.586L181.956 172.034ZM184.329 166.027L178.728 164.134L178.408 165.081L184.008 166.975L184.329 166.027ZM201.958 161.766C201.958 158.262 199.118 155.422 195.614 155.422V156.422C198.565 156.422 200.958 158.815 200.958 161.766H201.958ZM195.614 155.422C192.11 155.422 189.269 158.262 189.269 161.766H190.269C190.269 158.815 192.662 156.422 195.614 156.422V155.422ZM189.269 161.766C189.269 165.27 192.11 168.11 195.614 168.11V167.11C192.662 167.11 190.269 164.718 190.269 161.766H189.269ZM195.614 168.11C199.118 168.11 201.958 165.27 201.958 161.766H200.958C200.958 164.718 198.565 167.11 195.614 167.11V168.11ZM216.082 136.685C216.082 134.661 214.441 133.019 212.416 133.019V134.019C213.889 134.019 215.082 135.213 215.082 136.685H216.082ZM212.416 133.019C210.392 133.019 208.751 134.661 208.751 136.685H209.751C209.751 135.213 210.944 134.019 212.416 134.019V133.019ZM208.751 136.685C208.751 138.71 210.392 140.351 212.416 140.351V139.351C210.944 139.351 209.751 138.157 209.751 136.685H208.751ZM212.416 140.351C214.441 140.351 216.082 138.71 216.082 136.685H215.082C215.082 138.157 213.889 139.351 212.416 139.351V140.351ZM242.356 153C242.356 175.855 223.827 194.383 200.971 194.383V195.383C224.38 195.383 243.356 176.408 243.356 153H242.356ZM200.971 194.383C178.115 194.383 159.586 175.855 159.586 153H158.586C158.586 176.408 177.563 195.383 200.971 195.383V194.383ZM159.586 153C159.586 130.145 178.115 111.617 200.971 111.617V110.617C177.563 110.617 158.586 129.592 158.586 153H159.586ZM200.971 111.617C223.827 111.617 242.356 130.145 242.356 153H243.356C243.356 129.592 224.38 110.617 200.971 110.617V111.617Z" fill="url(#paint2_linear_15160_14722)"/>
    <path d="M95 153H108C117.941 153 126 144.941 126 135V85C126 67.3269 140.327 53 158 53H181" stroke="url(#paint3_linear_15160_14722)" stroke-linecap="round"/>
    <path d="M95 153H108C117.941 153 126 161.059 126 171V221C126 238.673 140.327 253 158 253H181" stroke="url(#paint4_linear_15160_14722)" stroke-linecap="round"/>
    <circle cx="95" cy="153" r="2" fill="#05C46B"/>
    <path d="M46.8378 152.14L54.6216 159.884L46.8378 167.628M19.1622 152.14L11.3784 159.884L19.1622 167.628M39.0541 145.256L26.9459 174.512M1 135.791H65M8.11111 190H57.8889C61.8162 190 65 186.845 65 182.952V123.048C65 119.155 61.8162 116 57.8889 116H8.11111C4.18375 116 1 119.155 1 123.048V182.952C1 186.845 4.18375 190 8.11111 190Z" stroke="url(#paint5_linear_15160_14722)" stroke-linecap="round" stroke-linejoin="round"/>
    <circle cx="366" cy="152.998" r="2" fill="#05C46B"/>
    <path fill-rule="evenodd" clip-rule="evenodd" d="M201 274C212.598 274 222 264.598 222 253C222 241.402 212.598 232 201 232C189.402 232 180 241.402 180 253C180 264.598 189.402 274 201 274ZM201.882 241.625C201.882 241.073 201.434 240.625 200.882 240.625C200.33 240.625 199.882 241.073 199.882 241.625V244.217H195.773C193.175 244.217 191.25 246.532 191.25 249.151C191.25 251.769 193.175 254.084 195.773 254.084H205.427C206.678 254.084 207.875 255.253 207.875 256.934C207.875 258.614 206.678 259.783 205.427 259.783H192.703C192.151 259.783 191.703 260.231 191.703 260.783C191.703 261.335 192.151 261.783 192.703 261.783H199.882V264.375C199.882 264.927 200.33 265.375 200.882 265.375C201.434 265.375 201.882 264.927 201.882 264.375V261.783H205.427C207.984 261.783 209.875 259.506 209.875 256.934C209.875 254.362 207.984 252.084 205.427 252.084H195.773C194.48 252.084 193.25 250.877 193.25 249.151C193.25 247.424 194.48 246.217 195.773 246.217H208.573C209.125 246.217 209.573 245.77 209.573 245.217C209.573 244.665 209.125 244.217 208.573 244.217H201.882V241.625Z" fill="#05C46B"/>
    <path fill-rule="evenodd" clip-rule="evenodd" d="M201 74C212.598 74 222 64.598 222 53C222 41.402 212.598 32 201 32C189.402 32 180 41.402 180 53C180 64.598 189.402 74 201 74ZM201.125 40.75C201.125 40.1977 200.677 39.75 200.125 39.75C199.573 39.75 199.125 40.1977 199.125 40.75V57.375C199.125 57.7407 199.325 58.0772 199.646 58.2525C199.966 58.4279 200.357 58.4141 200.665 58.2165L211.165 51.4767C211.63 51.1783 211.765 50.5597 211.467 50.095C211.168 49.6302 210.55 49.4953 210.085 49.7936L201.125 55.5448V40.75Z" fill="#05C46B"/>
    <path fill-rule="evenodd" clip-rule="evenodd" d="M293 174C304.598 174 314 164.598 314 153C314 141.402 304.598 132 293 132C281.402 132 272 141.402 272 153C272 164.598 281.402 174 293 174ZM286.612 148.541C288.993 146.7 291.101 146.125 293 146.125C294.899 146.125 297.007 146.7 299.388 148.541C299.825 148.879 300.453 148.799 300.791 148.362C301.129 147.925 301.049 147.297 300.612 146.959C297.902 144.863 295.368 144.125 293 144.125C290.632 144.125 288.098 144.863 285.388 146.959C284.951 147.297 284.871 147.925 285.209 148.362C285.547 148.799 286.175 148.879 286.612 148.541ZM282.401 152.369C282.053 151.941 281.423 151.876 280.994 152.224C280.566 152.572 280.501 153.202 280.849 153.631L286.536 160.631C286.726 160.864 287.011 161 287.312 161C287.614 161 287.899 160.864 288.089 160.631L293 154.586L297.911 160.631C298.101 160.864 298.386 161 298.688 161C298.989 161 299.274 160.864 299.464 160.631L305.151 153.631C305.499 153.202 305.434 152.572 305.006 152.224C304.577 151.876 303.947 151.941 303.599 152.369L298.688 158.414L293.776 152.369C293.586 152.136 293.301 152 293 152C292.699 152 292.414 152.136 292.224 152.369L287.312 158.414L282.401 152.369Z" fill="#05C46B"/>
    <defs>
        <linearGradient id="paint0_linear_15160_14722" x1="451.8" y1="228.484" x2="359.683" y2="199.399" gradientUnits="userSpaceOnUse">
            <stop stop-color="#05C46B"/>
            <stop offset="0.34375" stop-color="#018346"/>
            <stop offset="0.6875" stop-color="#3FFDA5"/>
            <stop offset="1" stop-color="#05C46B"/>
        </linearGradient>
        <linearGradient id="paint1_linear_15160_14722" x1="360.333" y1="165.581" x2="333.618" y2="139.909" gradientUnits="userSpaceOnUse">
            <stop stop-color="#05C46B"/>
            <stop offset="0.34375" stop-color="#018346"/>
            <stop offset="0.6875" stop-color="#3FFDA5"/>
            <stop offset="1" stop-color="#05C46B"/>
        </linearGradient>
        <linearGradient id="paint2_linear_15160_14722" x1="250.733" y1="320.742" x2="31.4853" y2="245.346" gradientUnits="userSpaceOnUse">
            <stop stop-color="#05C46B"/>
            <stop offset="0.34375" stop-color="#018346"/>
            <stop offset="0.6875" stop-color="#3FFDA5"/>
            <stop offset="1" stop-color="#05C46B"/>
        </linearGradient>
        <linearGradient id="paint3_linear_15160_14722" x1="169.533" y1="207.839" x2="52.6585" y2="174.723" gradientUnits="userSpaceOnUse">
            <stop stop-color="#05C46B"/>
            <stop offset="0.34375" stop-color="#018346"/>
            <stop offset="0.6875" stop-color="#3FFDA5"/>
            <stop offset="1" stop-color="#05C46B"/>
        </linearGradient>
        <linearGradient id="paint4_linear_15160_14722" x1="169.533" y1="98.1613" x2="52.6585" y2="131.277" gradientUnits="userSpaceOnUse">
            <stop stop-color="#05C46B"/>
            <stop offset="0.34375" stop-color="#018346"/>
            <stop offset="0.6875" stop-color="#3FFDA5"/>
            <stop offset="1" stop-color="#05C46B"/>
        </linearGradient>
        <linearGradient id="paint5_linear_15160_14722" x1="56.4667" y1="230.581" x2="-30.4367" y2="205.818" gradientUnits="userSpaceOnUse">
            <stop stop-color="#05C46B"/>
            <stop offset="0.34375" stop-color="#018346"/>
            <stop offset="0.6875" stop-color="#3FFDA5"/>
            <stop offset="1" stop-color="#05C46B"/>
        </linearGradient>
    </defs>
</svg>
