<svg width="348" height="62" viewBox="0 0 348 62" fill="none" xmlns="http://www.w3.org/2000/svg">
    <path d="M98.36 17.704H90.776V25H88.064V8.248H90.776V15.304H98.36V8.248H101.072V25H98.36V17.704ZM110.213 25.288C108.805 25.288 107.605 25.032 106.613 24.52C105.637 24.008 104.797 23.32 104.093 22.456L105.965 20.704C106.557 21.424 107.205 21.968 107.909 22.336C108.629 22.704 109.445 22.888 110.357 22.888C111.429 22.888 112.237 22.648 112.781 22.168C113.325 21.688 113.597 21.04 113.597 20.224C113.597 19.568 113.405 19.048 113.021 18.664C112.637 18.28 111.957 17.992 110.981 17.8L109.493 17.536C107.861 17.232 106.637 16.696 105.821 15.928C105.005 15.16 104.597 14.104 104.597 12.76C104.597 12.024 104.733 11.36 105.005 10.768C105.293 10.16 105.685 9.656 106.181 9.256C106.693 8.84 107.309 8.52 108.029 8.296C108.749 8.072 109.557 7.96 110.453 7.96C111.717 7.96 112.813 8.184 113.741 8.632C114.669 9.064 115.461 9.696 116.117 10.528L114.221 12.208C113.789 11.648 113.261 11.2 112.637 10.864C112.013 10.528 111.237 10.36 110.309 10.36C109.349 10.36 108.605 10.552 108.077 10.936C107.549 11.32 107.285 11.88 107.285 12.616C107.285 13.32 107.501 13.848 107.933 14.2C108.365 14.536 109.037 14.792 109.949 14.968L111.437 15.28C113.117 15.6 114.341 16.144 115.109 16.912C115.893 17.68 116.285 18.736 116.285 20.08C116.285 20.864 116.149 21.576 115.877 22.216C115.605 22.856 115.205 23.408 114.677 23.872C114.165 24.32 113.533 24.672 112.781 24.928C112.029 25.168 111.173 25.288 110.213 25.288ZM88.064 56V39.248H95.264C96.816 39.248 98.016 39.704 98.864 40.616C99.712 41.528 100.136 42.752 100.136 44.288C100.136 45.824 99.712 47.048 98.864 47.96C98.016 48.872 96.816 49.328 95.264 49.328H90.776V56H88.064ZM90.776 46.952H95.096C95.784 46.952 96.32 46.776 96.704 46.424C97.088 46.056 97.28 45.536 97.28 44.864V43.712C97.28 43.04 97.088 42.528 96.704 42.176C96.32 41.808 95.784 41.624 95.096 41.624H90.776V46.952ZM105.823 56H103.111V39.248H110.335C111.839 39.248 113.023 39.704 113.887 40.616C114.751 41.512 115.183 42.736 115.183 44.288C115.183 45.488 114.903 46.488 114.343 47.288C113.799 48.072 112.991 48.624 111.919 48.944L115.543 56H112.519L109.159 49.232H105.823V56ZM110.143 46.952C110.831 46.952 111.367 46.776 111.751 46.424C112.135 46.056 112.327 45.536 112.327 44.864V43.712C112.327 43.04 112.135 42.528 111.751 42.176C111.367 41.808 110.831 41.624 110.143 41.624H105.823V46.952H110.143ZM125.083 56.288C123.995 56.288 123.003 56.104 122.107 55.736C121.227 55.352 120.467 54.8 119.827 54.08C119.203 53.344 118.715 52.44 118.363 51.368C118.027 50.28 117.859 49.032 117.859 47.624C117.859 46.216 118.027 44.976 118.363 43.904C118.715 42.816 119.203 41.912 119.827 41.192C120.467 40.456 121.227 39.904 122.107 39.536C123.003 39.152 123.995 38.96 125.083 38.96C126.171 38.96 127.155 39.152 128.035 39.536C128.931 39.904 129.691 40.456 130.315 41.192C130.955 41.912 131.443 42.816 131.779 43.904C132.131 44.976 132.307 46.216 132.307 47.624C132.307 49.032 132.131 50.28 131.779 51.368C131.443 52.44 130.955 53.344 130.315 54.08C129.691 54.8 128.931 55.352 128.035 55.736C127.155 56.104 126.171 56.288 125.083 56.288ZM125.083 53.864C125.723 53.864 126.307 53.752 126.835 53.528C127.379 53.304 127.835 52.984 128.203 52.568C128.587 52.136 128.883 51.616 129.091 51.008C129.299 50.4 129.403 49.712 129.403 48.944V46.304C129.403 45.536 129.299 44.848 129.091 44.24C128.883 43.632 128.587 43.12 128.203 42.704C127.835 42.272 127.379 41.944 126.835 41.72C126.307 41.496 125.723 41.384 125.083 41.384C124.427 41.384 123.835 41.496 123.307 41.72C122.779 41.944 122.323 42.272 121.939 42.704C121.571 43.12 121.283 43.632 121.075 44.24C120.867 44.848 120.763 45.536 120.763 46.304V48.944C120.763 49.712 120.867 50.4 121.075 51.008C121.283 51.616 121.571 52.136 121.939 52.568C122.323 52.984 122.779 53.304 123.307 53.528C123.835 53.752 124.427 53.864 125.083 53.864ZM143.885 39.248V51.44C143.885 52.176 143.765 52.84 143.525 53.432C143.285 54.024 142.941 54.536 142.493 54.968C142.061 55.384 141.525 55.712 140.885 55.952C140.261 56.176 139.565 56.288 138.797 56.288C137.341 56.288 136.189 55.904 135.341 55.136C134.509 54.352 133.981 53.336 133.757 52.088L136.253 51.536C136.397 52.256 136.669 52.824 137.069 53.24C137.485 53.656 138.061 53.864 138.797 53.864C139.517 53.864 140.093 53.64 140.525 53.192C140.957 52.744 141.173 52.064 141.173 51.152V41.504H135.701V39.248H143.885ZM147.923 56V39.248H158.651V41.648H150.635V46.304H157.907V48.704H150.635V53.6H158.651V56H147.923ZM168.438 56.288C166.246 56.288 164.526 55.552 163.278 54.08C162.03 52.592 161.406 50.44 161.406 47.624C161.406 46.216 161.566 44.976 161.886 43.904C162.206 42.832 162.67 41.928 163.278 41.192C163.886 40.456 164.622 39.904 165.486 39.536C166.366 39.152 167.35 38.96 168.438 38.96C169.894 38.96 171.11 39.28 172.086 39.92C173.078 40.56 173.854 41.504 174.414 42.752L172.134 44C171.846 43.2 171.398 42.568 170.79 42.104C170.198 41.624 169.414 41.384 168.438 41.384C167.142 41.384 166.126 41.824 165.39 42.704C164.654 43.584 164.286 44.8 164.286 46.352V48.896C164.286 50.448 164.654 51.664 165.39 52.544C166.126 53.424 167.142 53.864 168.438 53.864C169.446 53.864 170.262 53.608 170.886 53.096C171.526 52.568 171.998 51.896 172.302 51.08L174.486 52.4C173.926 53.616 173.142 54.568 172.134 55.256C171.126 55.944 169.894 56.288 168.438 56.288ZM183.577 41.648V56H180.865V41.648H175.873V39.248H188.569V41.648H183.577Z"
          fill="white"/>
    <rect width="62" height="62" rx="12" fill="#252933"/>
    <rect width="62" height="62" rx="12" fill="url(#paint0_linear)"/>
    <path d="M26 46L17 46C16.4477 46 16 45.5523 16 45L16 36L21.1716 36C21.702 36 22.2107 36.2107 22.5858 36.5858L25.4142 39.4142C25.7893 39.7893 26 40.298 26 40.8284L26 46Z"
          stroke="#05C46B" stroke-linejoin="round"/>
    <path d="M36 16H45C45.5523 16 46 16.4477 46 17V26H40.8284C40.298 26 39.7893 25.7893 39.4142 25.4142L36.5858 22.5858C36.2107 22.2107 36 21.702 36 21.1716L36 16Z"
          stroke="#05C46B" stroke-linejoin="round"/>
    <path d="M45.9998 44.9999C45.9998 45.5522 45.5521 45.9999 44.9998 45.9999H35.9999V36.9999C35.9999 36.4476 35.5521 35.9999 34.9999 35.9999L26.8284 35.9999C26.2979 35.9999 25.7892 35.7892 25.4141 35.4141L16.5858 26.5858C16.2107 26.2107 16 25.702 16 25.1715L16 17C16 16.4477 16.4477 16 17 16L25.9999 16L25.9999 25C25.9999 25.5523 26.4476 26 26.9999 26L35.1714 26C35.7019 26 36.2106 26.2107 36.5856 26.5858L45.414 35.4141C45.7891 35.7892 45.9998 36.2979 45.9998 36.8284V44.9999Z"
          stroke="#05C46B" stroke-linejoin="round"/>
    <defs>
        <linearGradient id="paint0_linear" x1="31" y1="0" x2="31" y2="62" gradientUnits="userSpaceOnUse">
            <stop stop-color="#67708F" stop-opacity="0.2"/>
            <stop offset="1" stop-color="#67708F" stop-opacity="0"/>
        </linearGradient>
    </defs>
</svg>
