<svg width="348" height="62" viewBox="0 0 348 62" fill="none" xmlns="http://www.w3.org/2000/svg">
    <path d="M90.632 8.248V18.568C90.632 19.992 90.904 21.064 91.448 21.784C91.992 22.504 92.92 22.864 94.232 22.864C95.544 22.864 96.472 22.504 97.016 21.784C97.56 21.064 97.832 19.992 97.832 18.568V8.248H100.496V18.136C100.496 19.368 100.384 20.432 100.16 21.328C99.936 22.224 99.576 22.968 99.08 23.56C98.584 24.136 97.936 24.568 97.136 24.856C96.352 25.144 95.384 25.288 94.232 25.288C93.08 25.288 92.104 25.144 91.304 24.856C90.52 24.568 89.88 24.136 89.384 23.56C88.888 22.968 88.528 22.224 88.304 21.328C88.08 20.432 87.968 19.368 87.968 18.136V8.248H90.632ZM104.325 25V12.52H106.941V14.584H107.061C107.333 13.912 107.741 13.352 108.285 12.904C108.845 12.456 109.605 12.232 110.565 12.232C111.845 12.232 112.837 12.656 113.541 13.504C114.261 14.336 114.621 15.528 114.621 17.08V25H112.005V17.416C112.005 15.464 111.221 14.488 109.653 14.488C109.317 14.488 108.981 14.536 108.645 14.632C108.325 14.712 108.037 14.84 107.781 15.016C107.525 15.192 107.317 15.416 107.157 15.688C107.013 15.96 106.941 16.28 106.941 16.648V25H104.325ZM122.207 25.288C121.023 25.288 120.031 25.08 119.231 24.664C118.431 24.248 117.735 23.672 117.143 22.936L118.823 21.4C119.287 21.96 119.799 22.4 120.359 22.72C120.935 23.024 121.599 23.176 122.351 23.176C123.119 23.176 123.687 23.032 124.055 22.744C124.439 22.44 124.631 22.024 124.631 21.496C124.631 21.096 124.495 20.76 124.223 20.488C123.967 20.2 123.511 20.016 122.855 19.936L121.703 19.792C120.423 19.632 119.415 19.264 118.679 18.688C117.959 18.096 117.599 17.224 117.599 16.072C117.599 15.464 117.711 14.928 117.935 14.464C118.159 13.984 118.471 13.584 118.871 13.264C119.287 12.928 119.775 12.672 120.335 12.496C120.911 12.32 121.543 12.232 122.231 12.232C123.351 12.232 124.263 12.408 124.967 12.76C125.687 13.112 126.327 13.6 126.887 14.224L125.279 15.76C124.959 15.376 124.535 15.048 124.007 14.776C123.495 14.488 122.903 14.344 122.231 14.344C121.511 14.344 120.975 14.488 120.623 14.776C120.287 15.064 120.119 15.44 120.119 15.904C120.119 16.384 120.271 16.744 120.575 16.984C120.879 17.224 121.367 17.4 122.039 17.512L123.191 17.656C124.567 17.864 125.567 18.272 126.191 18.88C126.831 19.472 127.151 20.272 127.151 21.28C127.151 21.888 127.031 22.44 126.791 22.936C126.567 23.416 126.239 23.832 125.807 24.184C125.375 24.536 124.855 24.808 124.247 25C123.639 25.192 122.959 25.288 122.207 25.288ZM133.398 25C132.486 25 131.798 24.768 131.334 24.304C130.87 23.824 130.638 23.152 130.638 22.288V14.656H128.694V12.52H129.75C130.182 12.52 130.478 12.424 130.638 12.232C130.814 12.04 130.902 11.728 130.902 11.296V9.112H133.254V12.52H135.87V14.656H133.254V22.864H135.678V25H133.398ZM143.51 25.288C142.646 25.288 141.854 25.136 141.134 24.832C140.43 24.528 139.83 24.096 139.334 23.536C138.838 22.96 138.454 22.272 138.182 21.472C137.91 20.656 137.774 19.752 137.774 18.76C137.774 17.768 137.91 16.872 138.182 16.072C138.454 15.256 138.838 14.568 139.334 14.008C139.83 13.432 140.43 12.992 141.134 12.688C141.854 12.384 142.646 12.232 143.51 12.232C144.374 12.232 145.158 12.384 145.862 12.688C146.582 12.992 147.19 13.432 147.686 14.008C148.182 14.568 148.566 15.256 148.838 16.072C149.11 16.872 149.246 17.768 149.246 18.76C149.246 19.752 149.11 20.656 148.838 21.472C148.566 22.272 148.182 22.96 147.686 23.536C147.19 24.096 146.582 24.528 145.862 24.832C145.158 25.136 144.374 25.288 143.51 25.288ZM143.51 23.128C144.406 23.128 145.126 22.856 145.67 22.312C146.214 21.752 146.486 20.92 146.486 19.816V17.704C146.486 16.6 146.214 15.776 145.67 15.232C145.126 14.672 144.406 14.392 143.51 14.392C142.614 14.392 141.894 14.672 141.35 15.232C140.806 15.776 140.534 16.6 140.534 17.704V19.816C140.534 20.92 140.806 21.752 141.35 22.312C141.894 22.856 142.614 23.128 143.51 23.128ZM152.161 12.52H154.777V14.584H154.897C155.169 13.832 155.609 13.256 156.217 12.856C156.841 12.44 157.569 12.232 158.401 12.232C159.985 12.232 161.209 12.808 162.073 13.96C162.937 15.096 163.369 16.696 163.369 18.76C163.369 20.824 162.937 22.432 162.073 23.584C161.209 24.72 159.985 25.288 158.401 25.288C157.569 25.288 156.841 25.08 156.217 24.664C155.609 24.248 155.169 23.672 154.897 22.936H154.777V29.8H152.161V12.52ZM157.609 23.032C158.521 23.032 159.249 22.744 159.793 22.168C160.337 21.576 160.609 20.8 160.609 19.84V17.68C160.609 16.72 160.337 15.952 159.793 15.376C159.249 14.784 158.521 14.488 157.609 14.488C156.809 14.488 156.137 14.688 155.593 15.088C155.049 15.472 154.777 15.984 154.777 16.624V20.896C154.777 21.536 155.049 22.056 155.593 22.456C156.137 22.84 156.809 23.032 157.609 23.032ZM166.364 12.52H168.98V14.584H169.1C169.372 13.832 169.812 13.256 170.42 12.856C171.044 12.44 171.772 12.232 172.604 12.232C174.188 12.232 175.412 12.808 176.276 13.96C177.14 15.096 177.572 16.696 177.572 18.76C177.572 20.824 177.14 22.432 176.276 23.584C175.412 24.72 174.188 25.288 172.604 25.288C171.772 25.288 171.044 25.08 170.42 24.664C169.812 24.248 169.372 23.672 169.1 22.936H168.98V29.8H166.364V12.52ZM171.812 23.032C172.724 23.032 173.452 22.744 173.996 22.168C174.54 21.576 174.812 20.8 174.812 19.84V17.68C174.812 16.72 174.54 15.952 173.996 15.376C173.452 14.784 172.724 14.488 171.812 14.488C171.012 14.488 170.34 14.688 169.796 15.088C169.252 15.472 168.98 15.984 168.98 16.624V20.896C168.98 21.536 169.252 22.056 169.796 22.456C170.34 22.84 171.012 23.032 171.812 23.032ZM189.711 25C189.023 25 188.495 24.808 188.127 24.424C187.759 24.024 187.535 23.52 187.455 22.912H187.335C187.095 23.696 186.655 24.288 186.015 24.688C185.375 25.088 184.599 25.288 183.687 25.288C182.391 25.288 181.391 24.952 180.687 24.28C179.999 23.608 179.655 22.704 179.655 21.568C179.655 20.32 180.103 19.384 180.999 18.76C181.911 18.136 183.239 17.824 184.983 17.824H187.239V16.768C187.239 16 187.031 15.408 186.615 14.992C186.199 14.576 185.551 14.368 184.671 14.368C183.935 14.368 183.335 14.528 182.871 14.848C182.407 15.168 182.015 15.576 181.695 16.072L180.135 14.656C180.551 13.952 181.135 13.376 181.887 12.928C182.639 12.464 183.623 12.232 184.839 12.232C186.455 12.232 187.695 12.608 188.559 13.36C189.423 14.112 189.855 15.192 189.855 16.6V22.864H191.175V25H189.711ZM184.431 23.296C185.247 23.296 185.919 23.12 186.447 22.768C186.975 22.4 187.239 21.912 187.239 21.304V19.504H185.031C183.223 19.504 182.319 20.064 182.319 21.184V21.616C182.319 22.176 182.503 22.6 182.871 22.888C183.255 23.16 183.775 23.296 184.431 23.296ZM193.739 7.24H196.355V14.584H196.475C196.747 13.832 197.187 13.256 197.795 12.856C198.419 12.44 199.147 12.232 199.979 12.232C201.563 12.232 202.787 12.808 203.651 13.96C204.515 15.096 204.947 16.696 204.947 18.76C204.947 20.824 204.515 22.432 203.651 23.584C202.787 24.72 201.563 25.288 199.979 25.288C199.147 25.288 198.419 25.08 197.795 24.664C197.187 24.248 196.747 23.672 196.475 22.936H196.355V25H193.739V7.24ZM199.187 23.032C200.099 23.032 200.827 22.744 201.371 22.168C201.915 21.576 202.187 20.8 202.187 19.84V17.68C202.187 16.72 201.915 15.952 201.371 15.376C200.827 14.784 200.099 14.488 199.187 14.488C198.387 14.488 197.715 14.688 197.171 15.088C196.627 15.472 196.355 15.984 196.355 16.624V20.896C196.355 21.536 196.627 22.056 197.171 22.456C197.715 22.84 198.387 23.032 199.187 23.032ZM210.606 25C209.71 25 209.038 24.776 208.59 24.328C208.158 23.864 207.942 23.224 207.942 22.408V7.24H210.558V22.864H212.286V25H210.606ZM219.682 25.288C218.786 25.288 217.986 25.136 217.282 24.832C216.578 24.528 215.978 24.096 215.482 23.536C214.986 22.96 214.602 22.272 214.33 21.472C214.074 20.656 213.946 19.752 213.946 18.76C213.946 17.768 214.074 16.872 214.33 16.072C214.602 15.256 214.986 14.568 215.482 14.008C215.978 13.432 216.578 12.992 217.282 12.688C217.986 12.384 218.786 12.232 219.682 12.232C220.594 12.232 221.394 12.392 222.082 12.712C222.786 13.032 223.37 13.48 223.834 14.056C224.298 14.616 224.642 15.272 224.866 16.024C225.106 16.776 225.226 17.584 225.226 18.448V19.432H216.658V19.84C216.658 20.8 216.938 21.592 217.498 22.216C218.074 22.824 218.89 23.128 219.946 23.128C220.714 23.128 221.362 22.96 221.89 22.624C222.418 22.288 222.866 21.832 223.234 21.256L224.77 22.768C224.306 23.536 223.634 24.152 222.754 24.616C221.874 25.064 220.85 25.288 219.682 25.288ZM219.682 14.272C219.234 14.272 218.818 14.352 218.434 14.512C218.066 14.672 217.746 14.896 217.474 15.184C217.218 15.472 217.018 15.816 216.874 16.216C216.73 16.616 216.658 17.056 216.658 17.536V17.704H222.466V17.464C222.466 16.504 222.218 15.736 221.722 15.16C221.226 14.568 220.546 14.272 219.682 14.272ZM90.536 56L86.576 39.248H89.336L91.04 47.312L92.216 52.88H92.288L93.632 47.312L95.624 39.248H98.648L100.616 47.312L101.936 52.856H102.008L103.232 47.312L104.984 39.248H107.648L103.52 56H100.472L98.336 47.336L97.088 42.248H97.04L95.768 47.336L93.584 56H90.536ZM118.789 56C118.101 56 117.573 55.808 117.205 55.424C116.837 55.024 116.613 54.52 116.533 53.912H116.413C116.173 54.696 115.733 55.288 115.093 55.688C114.453 56.088 113.677 56.288 112.765 56.288C111.469 56.288 110.469 55.952 109.765 55.28C109.077 54.608 108.733 53.704 108.733 52.568C108.733 51.32 109.181 50.384 110.077 49.76C110.989 49.136 112.317 48.824 114.061 48.824H116.317V47.768C116.317 47 116.109 46.408 115.693 45.992C115.277 45.576 114.629 45.368 113.749 45.368C113.013 45.368 112.413 45.528 111.949 45.848C111.485 46.168 111.093 46.576 110.773 47.072L109.213 45.656C109.629 44.952 110.213 44.376 110.965 43.928C111.717 43.464 112.701 43.232 113.917 43.232C115.533 43.232 116.773 43.608 117.637 44.36C118.501 45.112 118.933 46.192 118.933 47.6V53.864H120.253V56H118.789ZM113.509 54.296C114.325 54.296 114.997 54.12 115.525 53.768C116.053 53.4 116.317 52.912 116.317 52.304V50.504H114.109C112.301 50.504 111.397 51.064 111.397 52.184V52.616C111.397 53.176 111.581 53.6 111.949 53.888C112.333 54.16 112.853 54.296 113.509 54.296ZM125.481 56C124.585 56 123.913 55.776 123.465 55.328C123.033 54.864 122.817 54.224 122.817 53.408V38.24H125.433V53.864H127.161V56H125.481ZM132.184 56C131.288 56 130.616 55.776 130.168 55.328C129.736 54.864 129.52 54.224 129.52 53.408V38.24H132.136V53.864H133.864V56H132.184ZM141.26 56.288C140.364 56.288 139.564 56.136 138.86 55.832C138.156 55.528 137.556 55.096 137.06 54.536C136.564 53.96 136.18 53.272 135.908 52.472C135.652 51.656 135.524 50.752 135.524 49.76C135.524 48.768 135.652 47.872 135.908 47.072C136.18 46.256 136.564 45.568 137.06 45.008C137.556 44.432 138.156 43.992 138.86 43.688C139.564 43.384 140.364 43.232 141.26 43.232C142.172 43.232 142.972 43.392 143.66 43.712C144.364 44.032 144.948 44.48 145.412 45.056C145.876 45.616 146.22 46.272 146.444 47.024C146.684 47.776 146.804 48.584 146.804 49.448V50.432H138.236V50.84C138.236 51.8 138.516 52.592 139.076 53.216C139.652 53.824 140.468 54.128 141.524 54.128C142.292 54.128 142.94 53.96 143.468 53.624C143.996 53.288 144.444 52.832 144.812 52.256L146.348 53.768C145.884 54.536 145.212 55.152 144.332 55.616C143.452 56.064 142.428 56.288 141.26 56.288ZM141.26 45.272C140.812 45.272 140.396 45.352 140.012 45.512C139.644 45.672 139.324 45.896 139.052 46.184C138.796 46.472 138.596 46.816 138.452 47.216C138.308 47.616 138.236 48.056 138.236 48.536V48.704H144.044V48.464C144.044 47.504 143.796 46.736 143.3 46.16C142.804 45.568 142.124 45.272 141.26 45.272ZM153.156 56C152.244 56 151.556 55.768 151.092 55.304C150.628 54.824 150.396 54.152 150.396 53.288V45.656H148.452V43.52H149.508C149.94 43.52 150.236 43.424 150.396 43.232C150.572 43.04 150.66 42.728 150.66 42.296V40.112H153.012V43.52H155.628V45.656H153.012V53.864H155.436V56H153.156Z"
          fill="white"/>
    <rect width="62" height="62" rx="12" fill="#FFA800"/>
    <rect width="62" height="62" rx="12" fill="url(#paint0_linear)"/>
    <path d="M33.4366 31.0492C33.4366 32.3887 32.3463 33.4739 31.0008 33.4739C29.6553 33.4739 28.5651 32.3887 28.5651 31.0492V0H18.8223V31.0492C18.8223 37.7477 24.2744 43.1786 31.0008 43.1786C37.7263 43.1786 43.1794 37.7477 43.1794 31.0492V0H33.4366V31.0492Z"
          fill="#1F2129"/>
    <defs>
        <linearGradient id="paint0_linear" x1="31" y1="0" x2="31" y2="62" gradientUnits="userSpaceOnUse">
            <stop stop-color="#FED20F"/>
            <stop offset="1" stop-color="#FED20F" stop-opacity="0"/>
        </linearGradient>
    </defs>
</svg>
